{
.appVersion = "3108";
DisplayStrings = (
"/NnaRaHalf.dv",
"/dottedcircle",
"/uni097D",
"/matraAi.dv",
"/TtaTtha.dv ,/space/TtaTtha.dv ,/Ttha.dv/Lla.dv/Cha.dv/quoteright/JhaHalf.dv/YaNuktamatraUu.dv \012U/quoteright",
"/BaHalf.dv Ah",
"/quoteleft/Ttha.dv/quoteright/space/quoteleft/TthaRa.dv/quoteright/space/quoteleft/TthamatraRu.dv/quoteright/space/quoteleft/TthamatraU.dv/quoteright/space/quoteleft/TthamatraUu.dv/quoteright/space/quoteleft/NnaTtha.dv/quoteright/space/quoteleft/LaTtha.dv/quoteright",
"/quoteleft/Lla.dv/quoteright/space/quoteleft/LlaNukta.dv/quoteright/space/quoteleft/LlaHalant.dv/quoteright/space/LlaLla.dv/LlaNuktaHalant.dv/LlaNuktamatraRu.dv/LlaNuktamatraU.dv/LlaNuktamatraUu.dv/LlaRa.dv/LlamatraRu.dv/LlamatraU.dv/LlamatraUu.dv \012/space/quoteright/space/quoteleft/LlaLla.dv/quoteright/space/quoteleft/LlaNuktaHalant.dv/quoteright/space/quoteleft/LlaNuktamatraRu.dv/quoteright/space/quoteleft/LlaNuktamatraU.dv/quoteright/space/quoteleft/LlaNuktamatraUu.dv/quoteright/space/quoteleft/LlaRa.dv/quoteright/space/quoteleft/LlamatraRu.dv/quoteright/space/quoteleft/LlamatraU.dv/quoteright/space/quoteleft/LlamatraUu.dv/quoteright \012/quoteleft/LlamatraUu.dv/quoteright",
"/space/quoteleft/KaSsa.dv/quoteright/space/quoteleft/KaSsaHalant.dv/quoteright/space/quoteleft/KaSsaHalf.dv/quoteright/space/quoteleft/KaSsaMa.dv/quoteright/space/quoteleft/KaSsaMaHalf.dv/quoteright/space/quoteleft/KaSsaMaYa.dv/quoteright/space/quoteleft/KaSsaRa.dv/quoteright/space/quoteleft/KaSsaVa.dv/quoteright/space/quoteleft/KaSsaYa.dv/quoteright/space/quoteleft/KaSsamatraU.dv/quoteright",
"/quoteleft/Sha.dv/quoteright/space/quoteleft/ShaCha.dv/quoteright/space/quoteleft/ShaKa.dv/quoteright/space/quoteleft/ShaKaNukta.dv/quoteright/space/quoteleft/ShaMa.dv/quoteright/space/quoteleft/ShaSha.dv/quoteright/space/quoteleft/ShaTta.dv/quoteright/space/quoteleft/ShaYa.dv/quoteright",

glyphs = (
{
glyphname = .notdef;
lastChange = "2023-12-05 09:52:54 +0000";
layers = (
{
layerId = m002;
paths = (
{
closed = 1;
nodes = (
"465 0 LINE",
"465 639 LINE",
"70 639 LINE",
"70 0 LINE"
);
},
{
closed = 1;
nodes = (
"90 622 LINE",
"446 622 LINE",
"446 18 LINE",
"90 18 LINE"
);
},
{
closed = 1;
nodes = (
"103 0 LINE",
"450 633 LINE",
"430 633 LINE",
"83 0 LINE"
);
},
{
closed = 1;
nodes = (
"105 633 LINE",
"85 633 LINE",
"433 0 LINE",
"453 0 LINE"
);
}
);
userData = {
com.hugojourdan.ColorFlow = {
"0" = 0;
"1" = 0;
"10" = 0;
"11" = 0;
"2" = 0;
"3" = 0;
"4" = 0;
"5" = 0;
"6" = 0;
"7" = 0;
"8" = 0;
"9" = 0;
};
};
width = 535;
}
);
},
{
glyphname = ZWJ;
lastChange = "2023-12-05 09:52:54 +0000";
layers = (
{
layerId = m002;
paths = (
{
closed = 1;
nodes = (
"0 540 LINE",
"69 474 LINE",
"97 499 LINE",
"27 567 LINE",
"97 635 LINE",
"69 660 LINE",
"0 593 LINE",
"-68 660 LINE",
"-97 635 LINE",
"-27 567 LINE",
"-97 499 LINE",
"-68 474 LINE"
);
},
{
closed = 1;
nodes = (
"20 0 LINE",
"20 462 LINE",
"-20 462 LINE",
"-20 0 LINE"
);
}
);
userData = {
com.hugojourdan.ColorFlow = {
"0" = 0;
"1" = 0;
"10" = 0;
"11" = 0;
"2" = 0;
"3" = 0;
"4" = 0;
"5" = 0;
"6" = 0;
"7" = 0;
"8" = 0;
"9" = 0;
};
};
width = 0;
}
);
unicode = 200D;
},
{
glyphname = ZWNJ;
lastChange = "2023-12-05 09:52:54 +0000";
layers = (
{
layerId = m002;
paths = (
{
closed = 1;
nodes = (
"20 0 LINE",
"20 639 LINE",
"-20 639 LINE",
"-20 0 LINE"
);
}
);
userData = {
com.hugojourdan.ColorFlow = {
"0" = 0;
"1" = 0;
"10" = 0;
"11" = 0;
"2" = 0;
"3" = 0;
"4" = 0;
"5" = 0;
"6" = 0;
"7" = 0;
"8" = 0;
"9" = 0;
};
};
width = 0;
}
);
unicode = 200C;
},
{
glyphname = dottedcircle;
lastChange = "2023-12-05 12:12:44 +0000";
layers = (
{
anchors = (
{
name = bottom;
position = "{299, 8}";
},
{
name = bottom1;
position = "{299, -17}";
},
{
name = bottom2;
position = "{299, -5}";
},
{
name = top;
position = "{301, 639}";
},
{
name = top1;
position = "{301, 657}";
},
{
name = top2;
position = "{301, 648}";
}
);
layerId = m002;
paths = (
{
closed = 1;
nodes = (
"242 115 LINE",
"259 100 OFFCURVE",
"275 88 OFFCURVE",
"291 72 CURVE",
"307 83 OFFCURVE",
"336 95 OFFCURVE",
"354 101 CURVE",
"354 108 LINE",
"338 125 OFFCURVE",
"323 138 OFFCURVE",
"305 150 CURVE",
"285 143 OFFCURVE",
"258 132 OFFCURVE",
"242 121 CURVE"
);
},
{
closed = 1;
nodes = (
"242 578 LINE",
"259 563 OFFCURVE",
"275 551 OFFCURVE",
"291 535 CURVE",
"307 546 OFFCURVE",
"336 558 OFFCURVE",
"354 564 CURVE",
"354 571 LINE",
"338 588 OFFCURVE",
"323 601 OFFCURVE",
"305 613 CURVE",
"285 606 OFFCURVE",
"258 595 OFFCURVE",
"242 584 CURVE"
);
},
{
closed = 1;
nodes = (
"20 346 LINE",
"37 331 OFFCURVE",
"53 319 OFFCURVE",
"69 303 CURVE",
"85 314 OFFCURVE",
"114 326 OFFCURVE",
"132 332 CURVE",
"132 339 LINE",
"116 356 OFFCURVE",
"101 369 OFFCURVE",
"83 381 CURVE",
"63 374 OFFCURVE",
"36 363 OFFCURVE",
"20 352 CURVE"
);
},
{
closed = 1;
nodes = (
"463 346 LINE",
"480 331 OFFCURVE",
"496 319 OFFCURVE",
"512 303 CURVE",
"528 314 OFFCURVE",
"557 326 OFFCURVE",
"575 332 CURVE",
"575 339 LINE",
"559 356 OFFCURVE",
"544 369 OFFCURVE",
"526 381 CURVE",
"506 374 OFFCURVE",
"479 363 OFFCURVE",
"463 352 CURVE"
);
},
{
closed = 1;
nodes = (
"76 498 LINE",
"93 483 OFFCURVE",
"109 471 OFFCURVE",
"125 455 CURVE",
"141 466 OFFCURVE",
"170 478 OFFCURVE",
"188 484 CURVE",
"188 491 LINE",
"172 508 OFFCURVE",
"157 521 OFFCURVE",
"139 533 CURVE",
"119 526 OFFCURVE",
"92 515 OFFCURVE",
"76 504 CURVE"
);
},
{
closed = 1;
nodes = (
"407 498 LINE",
"424 483 OFFCURVE",
"440 471 OFFCURVE",
"456 455 CURVE",
"472 466 OFFCURVE",
"501 478 OFFCURVE",
"519 484 CURVE",
"519 491 LINE",
"503 508 OFFCURVE",
"488 521 OFFCURVE",
"470 533 CURVE",
"450 526 OFFCURVE",
"423 515 OFFCURVE",
"407 504 CURVE"
);
},
{
closed = 1;
nodes = (
"407 195 LINE",
"424 180 OFFCURVE",
"440 168 OFFCURVE",
"456 152 CURVE",
"472 163 OFFCURVE",
"501 175 OFFCURVE",
"519 181 CURVE",
"519 188 LINE",
"503 205 OFFCURVE",
"488 218 OFFCURVE",
"470 230 CURVE",
"450 223 OFFCURVE",
"423 212 OFFCURVE",
"407 201 CURVE"
);
},
{
closed = 1;
nodes = (
"76 195 LINE",
"93 180 OFFCURVE",
"109 168 OFFCURVE",
"125 152 CURVE",
"141 163 OFFCURVE",
"170 175 OFFCURVE",
"188 181 CURVE",
"188 188 LINE",
"172 205 OFFCURVE",
"157 218 OFFCURVE",
"139 230 CURVE",
"119 223 OFFCURVE",
"92 212 OFFCURVE",
"76 201 CURVE"
);
}
);
width = 595;
}
);
unicode = 25CC;
},
{
glyphname = exclam;
lastChange = "2023-12-05 09:52:54 +0000";
layers = (
{
associatedMasterId = m002;
layerId = "D19AABD6-596B-4B9F-8AB6-52CEDD5B96B8";
name = img;
width = 226;
},
{
components = (
{
name = period;
transform = "{0.9025, 0, 0, 0.9025, 32, -5}";
}
);
layerId = m002;
paths = (
{
closed = 1;
nodes = (
"163 214 LINE",
"195 632 LINE",
"98 653 LINE",
"82 643 LINE",
"99 241 LINE",
"148 203 LINE"
);
}
);
userData = {
com.hugojourdan.ColorFlow = {
"0" = 0;
"1" = 0;
"10" = 0;
"11" = 0;
"2" = 0;
"3" = 0;
"4" = 0;
"5" = 0;
"6" = 0;
"7" = 0;
"8" = 0;
"9" = 0;
};
};
width = 256;
}
);
leftKerningGroup = exclam;
rightKerningGroup = exclam;
unicode = 0021;
},
{
glyphname = numbersign;
lastChange = "2023-12-05 09:52:54 +0000";
layers = (
{
layerId = m002;
paths = (
{
closed = 1;
nodes = (
"354 0 LINE",
"415 598 LINE",
"352 637 LINE",
"336 630 LINE",
"275 32 LINE",
"338 -7 LINE"
);
},
{
closed = 1;
nodes = (
"168 0 LINE",
"229 598 LINE",
"166 637 LINE",
"150 630 LINE",
"89 32 LINE",
"152 -7 LINE"
);
},
{
closed = 1;
nodes = (
"482 194 LINE",
"491 207 LINE",
"446 267 LINE",
"23 267 LINE",
"16 250 LINE",
"63 194 LINE"
);
},
{
closed = 1;
nodes = (
"485 384 LINE",
"494 397 LINE",
"449 457 LINE",
"26 457 LINE",
"19 440 LINE",
"66 384 LINE"
);
}
);
userData = {
com.hugojourdan.ColorFlow = {
"0" = 0;
"1" = 0;
"10" = 0;
"11" = 0;
"2" = 0;
"3" = 0;
"4" = 0;
"5" = 0;
"6" = 0;
"7" = 0;
"8" = 0;
"9" = 0;
};
};
width = 494;
}
);
leftKerningGroup = numbersign;
rightKerningGroup = numbersign;
unicode = 0023;
},
{
glyphname = percent;
lastChange = "2023-12-05 09:52:54 +0000";
layers = (
{
layerId = m002;
paths = (
{
closed = 1;
nodes = (
"141 1 LINE",
"479 553 LINE",
"433 610 LINE",
"419 607 LINE",
"81 55 LINE",
"125 -2 LINE"
);
},
{
closed = 1;
nodes = (
"224 386 OFFCURVE",
"265 431 OFFCURVE",
"265 499 CURVE SMOOTH",
"265 565 OFFCURVE",
"213 627 OFFCURVE",
"137 627 CURVE SMOOTH",
"71 627 OFFCURVE",
"30 583 OFFCURVE",
"30 516 CURVE SMOOTH",
"30 442 OFFCURVE",
"81 386 OFFCURVE",
"163 386 CURVE SMOOTH"
);
},
{
closed = 1;
nodes = (
"112 441 OFFCURVE",
"103 451 OFFCURVE",
"103 474 CURVE SMOOTH",
"103 528 OFFCURVE",
"132 571 OFFCURVE",
"170 571 CURVE SMOOTH",
"185 571 OFFCURVE",
"193 559 OFFCURVE",
"193 537 CURVE SMOOTH",
"193 483 OFFCURVE",
"166 441 OFFCURVE",
"129 441 CURVE SMOOTH"
);
},
{
closed = 1;
nodes = (
"500 1 OFFCURVE",
"541 46 OFFCURVE",
"541 114 CURVE SMOOTH",
"541 180 OFFCURVE",
"489 242 OFFCURVE",
"413 242 CURVE SMOOTH",
"347 242 OFFCURVE",
"306 198 OFFCURVE",
"306 131 CURVE SMOOTH",
"306 57 OFFCURVE",
"357 1 OFFCURVE",
"439 1 CURVE SMOOTH"
);
},
{
closed = 1;
nodes = (
"388 56 OFFCURVE",
"379 66 OFFCURVE",
"379 89 CURVE SMOOTH",
"379 143 OFFCURVE",
"408 186 OFFCURVE",
"446 186 CURVE SMOOTH",
"461 186 OFFCURVE",
"469 174 OFFCURVE",
"469 152 CURVE SMOOTH",
"469 98 OFFCURVE",
"442 56 OFFCURVE",
"405 56 CURVE SMOOTH"
);
}
);
userData = {
com.hugojourdan.ColorFlow = {
"0" = 0;
"1" = 0;
"10" = 0;
"11" = 0;
"2" = 0;
"3" = 0;
"4" = 0;
"5" = 0;
"6" = 0;
"7" = 0;
"8" = 0;
"9" = 0;
};
};
width = 542;
}
);
leftKerningGroup = percent;
rightKerningGroup = percent;
unicode = 0025;
},
{
glyphname = ampersand;
lastChange = "2023-12-05 09:52:54 +0000";
layers = (
{
layerId = m002;
paths = (
{
closed = 1;
nodes = (
"266 4 LINE SMOOTH",
"355 4 OFFCURVE",
"413 60 OFFCURVE",
"413 150 CURVE SMOOTH",
"413 204 OFFCURVE",
"397 249 OFFCURVE",
"368 273 CURVE",
"368 265 LINE",
"453 274 OFFCURVE",
"480 288 OFFCURVE",
"480 357 CURVE SMOOTH",
"480 377 OFFCURVE",
"468 408 OFFCURVE",
"447 438 CURVE",
"422 429 LINE",
"430 414 OFFCURVE",
"432 402 OFFCURVE",
"432 392 CURVE SMOOTH",
"432 370 OFFCURVE",
"420 354 OFFCURVE",
"303 347 CURVE",
"296 332 LINE",
"316 295 OFFCURVE",
"326 258 OFFCURVE",
"326 221 CURVE SMOOTH",
"326 146 OFFCURVE",
"281 104 OFFCURVE",
"200 104 CURVE SMOOTH",
"182 104 LINE SMOOTH",
"148 104 OFFCURVE",
"132 118 OFFCURVE",
"132 148 CURVE SMOOTH",
"132 172 LINE SMOOTH",
"132 236 OFFCURVE",
"177 277 OFFCURVE",
"240 277 CURVE SMOOTH",
"262 277 LINE",
"272 291 LINE",
"226 367 LINE",
"199 367 LINE SMOOTH",
"104 367 OFFCURVE",
"36 308 OFFCURVE",
"36 194 CURVE SMOOTH",
"36 166 LINE SMOOTH",
"36 99 OFFCURVE",
"166 4 OFFCURVE",
"253 4 CURVE SMOOTH"
);
},
{
closed = 1;
nodes = (
"164 347 LINE",
"152 363 OFFCURVE",
"146 391 OFFCURVE",
"146 431 CURVE SMOOTH",
"146 449 LINE SMOOTH",
"146 517 OFFCURVE",
"179 555 OFFCURVE",
"237 555 CURVE SMOOTH",
"261 555 OFFCURVE",
"272 544 OFFCURVE",
"272 522 CURVE SMOOTH",
"272 495 OFFCURVE",
"267 471 OFFCURVE",
"259 449 CURVE",
"359 426 LINE",
"365 440 OFFCURVE",
"369 462 OFFCURVE",
"369 484 CURVE SMOOTH",
"369 545 OFFCURVE",
"268 646 OFFCURVE",
"195 646 CURVE SMOOTH",
"100 646 OFFCURVE",
"47 584 OFFCURVE",
"47 484 CURVE SMOOTH",
"47 465 LINE SMOOTH",
"47 404 OFFCURVE",
"75 362 OFFCURVE",
"126 327 CURVE"
);
}
);
width = 480;
}
);
leftKerningGroup = ampersand;
rightKerningGroup = ampersand;
unicode = 0026;
},
{
glyphname = quotesingle;
lastChange = "2023-12-06 02:39:50 +0000";
layers = (
{
associatedMasterId = m002;
layerId = "7160225B-4985-4D2C-89AE-5BAA7E54AC43";
name = img;
width = 162;
},
{
layerId = m002;
paths = (
{
closed = 1;
nodes = (
"104 489 LINE",
"126 682 LINE",
"43 719 LINE",
"25 711 LINE",
"41 511 LINE",
"91 483 LINE"
);
}
);
userData = {
com.hugojourdan.ColorFlow = {
"0" = 0;
"1" = 0;
"10" = 0;
"11" = 0;
"2" = 0;
"3" = 0;
"4" = 0;
"5" = 0;
"6" = 0;
"7" = 0;
"8" = 0;
"9" = 0;
};
};
width = 187;
}
);
leftKerningGroup = quotesingle;
rightKerningGroup = quotesingle;
unicode = 0027;
},
{
glyphname = parenleft;
lastChange = "2023-12-05 09:52:54 +0000";
layers = (
{
layerId = m002;
paths = (
{
closed = 1;
nodes = (
"233 715 LINE",
"151 740 LINE",
"72 632 OFFCURVE",
"36 506 OFFCURVE",
"36 336 CURVE SMOOTH",
"36 168 OFFCURVE",
"88 16 OFFCURVE",
"190 -124 CURVE",
"227 -105 LINE",
"161 13 OFFCURVE",
"126 141 OFFCURVE",
"126 302 CURVE SMOOTH",
"126 469 OFFCURVE",
"155 573 OFFCURVE",
"237 701 CURVE"
);
}
);
userData = {
com.hugojourdan.ColorFlow = {
"0" = 0;
"1" = 0;
"10" = 0;
"11" = 0;
"2" = 0;
"3" = 0;
"4" = 0;
"5" = 0;
"6" = 0;
"7" = 0;
"8" = 0;
"9" = 0;
};
};
width = 287;
}
);
leftKerningGroup = parenleft;
rightKerningGroup = parenleft;
unicode = 0028;
},
{
glyphname = asterisk;
lastChange = "2023-12-05 09:52:54 +0000";
layers = (
{
layerId = m002;
paths = (
{
closed = 1;
nodes = (
"342 578 LINE",
"350 491 LINE",
"197 494 LINE",
"209 497 LINE",
"317 382 LINE",
"246 335 LINE",
"237 337 LINE",
"178 477 LINE",
"185 477 LINE",
"110 347 LINE",
"101 346 LINE",
"35 407 LINE",
"156 503 LINE",
"156 498 LINE",
"13 525 LINE",
"38 607 LINE",
"46 610 LINE",
"172 532 LINE",
"164 531 LINE",
"160 687 LINE",
"167 691 LINE",
"250 660 LINE",
"206 527 LINE",
"198 530 LINE",
"333 582 LINE"
);
}
);
userData = {
com.hugojourdan.ColorFlow = {
"0" = 0;
"1" = 0;
"10" = 0;
"11" = 0;
"2" = 0;
"3" = 0;
"4" = 0;
"5" = 0;
"6" = 0;
"7" = 0;
"8" = 0;
"9" = 0;
};
};
width = 373;
}
);
leftKerningGroup = asterisk;
rightKerningGroup = asterisk;
unicode = 002A;
},
{
glyphname = plus;
lastChange = "2023-12-05 09:52:54 +0000";
layers = (
{
associatedMasterId = m002;
layerId = "C992CF1B-CEFD-4C5C-8B99-AF675D4FA833";
name = img;
width = 450;
},
{
layerId = m002;
paths = (
{
closed = 1;
nodes = (
"262 106 LINE",
"262 277 LINE",
"423 277 LINE",
"427 290 LINE",
"382 359 LINE",
"262 359 LINE",
"262 494 LINE",
"178 534 LINE",
"165 530 LINE",
"165 359 LINE",
"5 359 LINE",
"1 346 LINE",
"46 277 LINE",
"165 277 LINE",
"165 142 LINE",
"249 102 LINE"
);
}
);
userData = {
com.hugojourdan.ColorFlow = {
"0" = 0;
"1" = 0;
"10" = 0;
"11" = 0;
"2" = 0;
"3" = 0;
"4" = 0;
"5" = 0;
"6" = 0;
"7" = 0;
"8" = 0;
"9" = 0;
};
};
width = 422;
}
);
leftKerningGroup = plus;
rightKerningGroup = plus;
unicode = 002B;
},
{
glyphname = comma;
lastChange = "2023-12-05 09:52:54 +0000";
layers = (
{
layerId = m002;
paths = (
{
closed = 1;
nodes = (
"59 -116 LINE",
"125 -51 OFFCURVE",
"165 26 OFFCURVE",
"165 107 CURVE",
"77 159 LINE",
"62 151 LINE",
"62 52 OFFCURVE",
"46 -20 OFFCURVE",
"16 -81 CURVE",
"44 -116 LINE"
);
}
);
userData = {
com.hugojourdan.ColorFlow = {
"0" = 0;
"1" = 0;
"10" = 0;
"11" = 0;
"2" = 0;
"3" = 0;
"4" = 0;
"5" = 0;
"6" = 0;
"7" = 0;
"8" = 0;
"9" = 0;
};
};
width = 176;
}
);
leftKerningGroup = comma;
rightKerningGroup = comma;
unicode = 002C;
},
{
glyphname = hyphen;
lastChange = "2023-12-05 09:52:54 +0000";
layers = (
{
associatedMasterId = m002;
layerId = "27E69A36-4D1F-4BE6-AE5C-02FE8AFA565F";
name = img;
width = 294;
},
{
layerId = m002;
paths = (
{
closed = 1;
nodes = (
"247 247 LINE",
"253 261 LINE",
"209 327 LINE",
"25 327 LINE",
"19 312 LINE",
"63 247 LINE"
);
}
);
userData = {
com.hugojourdan.ColorFlow = {
"0" = 0;
"1" = 0;
"10" = 0;
"11" = 0;
"2" = 0;
"3" = 0;
"4" = 0;
"5" = 0;
"6" = 0;
"7" = 0;
"8" = 0;
"9" = 0;
};
};
width = 264;
}
);
leftKerningGroup = hyphen;
rightKerningGroup = hyphen;
unicode = 002D;
},
{
glyphname = period;
lastChange = "2023-12-06 06:02:09 +0000";
layers = (
{
associatedMasterId = m002;
layerId = "B287D9FD-FFA6-43C6-B601-D26B818C3773";
name = img;
width = 178;
},
{
layerId = m002;
paths = (
{
closed = 1;
nodes = (
"130 27 OFFCURVE",
"156 54 OFFCURVE",
"186 75 CURVE",
"187 88 LINE",
"112 165 LINE",
"80 146 OFFCURVE",
"52 121 OFFCURVE",
"30 95 CURVE",
"30 84 LINE",
"105 5 LINE"
);
}
);
userData = {
com.hugojourdan.ColorFlow = {
"0" = 0;
"1" = 0;
"10" = 0;
"11" = 0;
"2" = 0;
"3" = 0;
"4" = 0;
"5" = 0;
"6" = 0;
"7" = 0;
"8" = 0;
"9" = 0;
};
};
width = 197;
}
);
leftKerningGroup = period;
rightKerningGroup = period;
unicode = 002E;
},
{
glyphname = slash;
lastChange = "2023-12-05 09:52:54 +0000";
layers = (
{
associatedMasterId = m002;
layerId = "D48E571B-70B4-4B80-91D2-D02F4E5798DC";
name = img;
width = 214;
},
{
layerId = m002;
paths = (
{
closed = 1;
nodes = (
"112 -103 LINE",
"347 709 LINE",
"285 749 LINE",
"271 742 LINE",
"36 -70 LINE",
"96 -110 LINE"
);
}
);
userData = {
com.hugojourdan.ColorFlow = {
"0" = 0;
"1" = 0;
"10" = 0;
"11" = 0;
"2" = 0;
"3" = 0;
"4" = 0;
"5" = 0;
"6" = 0;
"7" = 0;
"8" = 0;
"9" = 0;
};
};
width = 383;
}
);
leftKerningGroup = slash;
rightKerningGroup = slash;
unicode = 002F;
},
{
glyphname = zero;
lastChange = "2023-12-05 09:52:54 +0000";
layers = (
{
associatedMasterId = m002;
layerId = "BA54BBFE-159D-4773-BFAF-30FADB8FD3B2";
name = img;
width = 427;
},
{
layerId = m002;
paths = (
{
closed = 1;
nodes = (
"352 9 OFFCURVE",
"402 65 OFFCURVE",
"402 171 CURVE SMOOTH",
"402 267 OFFCURVE",
"406 423 OFFCURVE",
"406 476 CURVE SMOOTH",
"406 532 OFFCURVE",
"276 646 OFFCURVE",
"202 646 CURVE SMOOTH",
"102 646 OFFCURVE",
"55 600 OFFCURVE",
"55 502 CURVE SMOOTH",
"55 294 LINE SMOOTH",
"55 234 OFFCURVE",
"49 176 OFFCURVE",
"49 142 CURVE SMOOTH",
"49 92 OFFCURVE",
"186 9 OFFCURVE",
"258 9 CURVE SMOOTH"
);
},
{
closed = 1;
nodes = (
"166 100 OFFCURVE",
"152 110 OFFCURVE",
"152 129 CURVE SMOOTH",
"152 145 OFFCURVE",
"157 187 OFFCURVE",
"157 251 CURVE SMOOTH",
"157 461 LINE SMOOTH",
"157 524 OFFCURVE",
"176 553 OFFCURVE",
"259 553 CURVE SMOOTH",
"291 553 OFFCURVE",
"303 542 OFFCURVE",
"303 514 CURVE SMOOTH",
"303 472 OFFCURVE",
"302 289 OFFCURVE",
"302 242 CURVE SMOOTH",
"302 140 OFFCURVE",
"269 100 OFFCURVE",
"189 100 CURVE SMOOTH"
);
}
);
userData = {
com.hugojourdan.ColorFlow = {
"0" = 0;
"1" = 0;
"10" = 0;
"11" = 0;
"2" = 0;
"3" = 0;
"4" = 0;
"5" = 0;
"6" = 0;
"7" = 0;
"8" = 0;
"9" = 0;
};
};
width = 447;
}
);
leftKerningGroup = O;
leftMetricsKey = O;
rightKerningGroup = O;
rightMetricsKey = O;
unicode = 0030;
},
{
glyphname = one;
lastChange = "2023-12-05 09:52:54 +0000";
layers = (
{
hints = (
{
horizontal = 1;
place = "{15, 77}";
type = Stem;
},
{
horizontal = 1;
place = "{639, -20}";
target = down;
type = TopGhost;
},
{
place = "{163, 95}";
type = Stem;
}
);
layerId = m002;
paths = (
{
closed = 1;
nodes = (
"226 343 LINE",
"226 391 LINE SMOOTH",
"226 474 OFFCURVE",
"231 536 OFFCURVE",
"247 576 CURVE",
"183 651 LINE",
"4 550 LINE",
"4 535 LINE",
"53 467 LINE",
"151 529 LINE",
"144 553 LINE",
"132 530 OFFCURVE",
"125 463 OFFCURVE",
"125 376 CURVE SMOOTH",
"125 343 LINE"
);
},
{
closed = 1;
nodes = (
"260 29 LINE",
"230 43 OFFCURVE",
"217 53 OFFCURVE",
"217 66 CURVE SMOOTH",
"217 82 OFFCURVE",
"226 133 OFFCURVE",
"226 202 CURVE SMOOTH",
"226 359 LINE",
"125 359 LINE",
"125 204 LINE SMOOTH",
"125 140 OFFCURVE",
"113 90 OFFCURVE",
"113 72 CURVE SMOOTH",
"113 56 OFFCURVE",
"159 29 OFFCURVE",
"247 0 CURVE"
);
}
);
userData = {
com.hugojourdan.ColorFlow = {
"0" = 0;
"1" = 0;
"10" = 0;
"11" = 0;
"2" = 0;
"3" = 0;
"4" = 0;
"5" = 0;
"6" = 0;
"7" = 0;
"8" = 0;
"9" = 0;
};
};
width = 290;
}
);
leftKerningGroup = one;
rightKerningGroup = one;
unicode = 0031;
},
{
glyphname = two;
lastChange = "2023-12-05 09:52:54 +0000";
layers = (
{
layerId = m002;
paths = (
{
closed = 1;
nodes = (
"138 21 LINE",
"133 44 OFFCURVE",
"131 64 OFFCURVE",
"131 81 CURVE SMOOTH",
"131 97 OFFCURVE",
"132 103 OFFCURVE",
"135 108 CURVE",
"140 143 LINE",
"146 173 OFFCURVE",
"173 197 OFFCURVE",
"201 219 CURVE SMOOTH",
"272 276 LINE SMOOTH",
"350 338 OFFCURVE",
"362 393 OFFCURVE",
"362 474 CURVE SMOOTH",
"362 538 OFFCURVE",
"257 647 OFFCURVE",
"191 647 CURVE SMOOTH",
"103 647 OFFCURVE",
"35 584 OFFCURVE",
"35 458 CURVE",
"117 413 LINE",
"132 419 LINE",
"132 519 OFFCURVE",
"167 555 OFFCURVE",
"237 555 CURVE SMOOTH",
"261 555 OFFCURVE",
"271 540 OFFCURVE",
"271 514 CURVE SMOOTH",
"271 432 OFFCURVE",
"253 397 OFFCURVE",
"191 347 CURVE SMOOTH",
"122 292 LINE SMOOTH",
"62 244 OFFCURVE",
"34 189 OFFCURVE",
"34 110 CURVE SMOOTH",
"34 90 OFFCURVE",
"35 69 OFFCURVE",
"39 46 CURVE",
"125 8 LINE"
);
},
{
closed = 1;
nodes = (
"346 6 OFFCURVE",
"383 26 OFFCURVE",
"405 57 CURVE",
"351 158 LINE",
"335 158 LINE",
"318 134 OFFCURVE",
"286 109 OFFCURVE",
"244 109 CURVE SMOOTH",
"203 109 OFFCURVE",
"164 122 OFFCURVE",
"136 175 CURVE",
"117 132 LINE",
"163 47 OFFCURVE",
"221 6 OFFCURVE",
"297 6 CURVE SMOOTH"
);
}
);
userData = {
com.hugojourdan.ColorFlow = {
"0" = 0;
"1" = 0;
"10" = 0;
"11" = 0;
"2" = 0;
"3" = 0;
"4" = 0;
"5" = 0;
"6" = 0;
"7" = 0;
"8" = 0;
"9" = 0;
};
};
width = 388;
}
);
leftKerningGroup = two;
rightKerningGroup = two;
unicode = 0032;
},
{
glyphname = three;
lastChange = "2023-12-05 09:52:54 +0000";
layers = (
{
layerId = m002;
paths = (
{
closed = 1;
nodes = (
"174 263 LINE",
"206 305 OFFCURVE",
"220 325 OFFCURVE",
"244 325 CURVE SMOOTH",
"268 325 OFFCURVE",
"287 299 OFFCURVE",
"287 242 CURVE SMOOTH",
"287 162 OFFCURVE",
"247 102 OFFCURVE",
"178 102 CURVE SMOOTH",
"135 102 OFFCURVE",
"96 125 OFFCURVE",
"50 222 CURVE",
"10 206 LINE",
"59 77 OFFCURVE",
"132 6 OFFCURVE",
"232 6 CURVE SMOOTH",
"318 6 OFFCURVE",
"376 76 OFFCURVE",
"376 174 CURVE SMOOTH",
"376 280 OFFCURVE",
"327 359 OFFCURVE",
"240 392 CURVE",
"215 373 LINE",
"230 344 LINE",
"371 550 LINE",
"303 639 LINE",
"20 639 LINE",
"12 621 LINE",
"81 524 LINE",
"100 524 LINE",
"129 547 OFFCURVE",
"189 556 OFFCURVE",
"288 556 CURVE",
"265 564 LINE",
"251 545 OFFCURVE",
"233 519 OFFCURVE",
"212 489 CURVE SMOOTH",
"93 321 LINE",
"158 263 LINE"
);
}
);
userData = {
com.hugojourdan.ColorFlow = {
"0" = 0;
"1" = 0;
"10" = 0;
"11" = 0;
"2" = 0;
"3" = 0;
"4" = 0;
"5" = 0;
"6" = 0;
"7" = 0;
"8" = 0;
"9" = 0;
};
};
width = 397;
}
);
leftKerningGroup = three;
rightKerningGroup = three;
unicode = 0033;
},
{
glyphname = four;
lastChange = "2023-12-05 09:52:54 +0000";
layers = (
{
layerId = m002;
paths = (
{
closed = 1;
nodes = (
"433 161 LINE",
"441 173 LINE",
"398 243 LINE",
"91 243 LINE SMOOTH",
"82 243 OFFCURVE",
"104 221 OFFCURVE",
"104 230 CURVE SMOOTH",
"104 256 OFFCURVE",
"202 444 OFFCURVE",
"256 561 CURVE",
"251 561 LINE",
"248 520 OFFCURVE",
"242 418 OFFCURVE",
"242 327 CURVE SMOOTH",
"242 290 LINE",
"336 290 LINE",
"336 327 LINE SMOOTH",
"336 390 OFFCURVE",
"342 497 OFFCURVE",
"347 559 CURVE",
"280 639 LINE",
"204 639 LINE",
"140 543 OFFCURVE",
"7 279 OFFCURVE",
"7 255 CURVE SMOOTH",
"7 234 OFFCURVE",
"94 161 OFFCURVE",
"105 161 CURVE SMOOTH"
);
},
{
closed = 1;
nodes = (
"374 26 LINE",
"344 42 OFFCURVE",
"331 50 OFFCURVE",
"331 63 CURVE SMOOTH",
"331 82 OFFCURVE",
"336 113 OFFCURVE",
"336 166 CURVE SMOOTH",
"336 323 LINE",
"242 323 LINE",
"242 188 LINE SMOOTH",
"242 106 OFFCURVE",
"234 90 OFFCURVE",
"234 69 CURVE SMOOTH",
"234 53 OFFCURVE",
"273 28 OFFCURVE",
"361 -3 CURVE"
);
}
);
userData = {
com.hugojourdan.ColorFlow = {
"0" = 0;
"1" = 0;
"10" = 0;
"11" = 0;
"2" = 0;
"3" = 0;
"4" = 0;
"5" = 0;
"6" = 0;
"7" = 0;
"8" = 0;
"9" = 0;
};
};
width = 421;
}
);
leftKerningGroup = four;
rightKerningGroup = four;
unicode = 0034;
},
{
glyphname = five;
lastChange = "2023-12-05 09:52:54 +0000";
layers = (
{
associatedMasterId = m002;
layerId = "C1A84A66-2E9A-4D40-926A-1A0671E9857C";
name = img;
width = 439;
},
{
layerId = m002;
paths = (
{
closed = 1;
nodes = (
"340 6 OFFCURVE",
"388 71 OFFCURVE",
"388 189 CURVE SMOOTH",
"388 324 OFFCURVE",
"318 415 OFFCURVE",
"276 415 CURVE SMOOTH",
"253 415 OFFCURVE",
"178 384 OFFCURVE",
"146 366 CURVE",
"159 340 LINE",
"159 365 LINE SMOOTH",
"159 448 OFFCURVE",
"162 531 OFFCURVE",
"178 558 CURVE",
"147 639 LINE",
"37 639 LINE",
"30 622 LINE",
"78 552 LINE",
"122 552 LINE",
"81 566 LINE",
"66 540 OFFCURVE",
"64 434 OFFCURVE",
"64 339 CURVE SMOOTH",
"64 326 OFFCURVE",
"151 262 OFFCURVE",
"164 262 CURVE SMOOTH",
"172 262 OFFCURVE",
"247 309 OFFCURVE",
"286 309 CURVE SMOOTH",
"301 309 OFFCURVE",
"313 290 OFFCURVE",
"313 255 CURVE SMOOTH",
"313 179 OFFCURVE",
"277 123 OFFCURVE",
"204 123 CURVE SMOOTH",
"135 123 OFFCURVE",
"104 147 OFFCURVE",
"69 224 CURVE",
"35 213 LINE",
"65 87 OFFCURVE",
"126 6 OFFCURVE",
"237 6 CURVE SMOOTH"
);
},
{
closed = 1;
nodes = (
"343 525 LINE",
"393 568 LINE",
"343 639 LINE",
"106 639 LINE",
"169 556 LINE",
"243 556 LINE SMOOTH",
"293 556 OFFCURVE",
"309 548 OFFCURVE",
"324 525 CURVE"
);
}
);
userData = {
com.hugojourdan.ColorFlow = {
"0" = 0;
"1" = 0;
"10" = 0;
"11" = 0;
"2" = 0;
"3" = 0;
"4" = 0;
"5" = 0;
"6" = 0;
"7" = 0;
"8" = 0;
"9" = 0;
};
};
width = 413;
}
);
leftKerningGroup = five;
rightKerningGroup = five;
unicode = 0035;
},
{
glyphname = six;
lastChange = "2023-12-05 09:52:54 +0000";
layers = (
{
layerId = m002;
paths = (
{
closed = 1;
nodes = (
"330 7 OFFCURVE",
"398 58 OFFCURVE",
"398 167 CURVE SMOOTH",
"398 240 LINE SMOOTH",
"398 294 OFFCURVE",
"288 397 OFFCURVE",
"229 397 CURVE SMOOTH",
"196 397 OFFCURVE",
"164 395 OFFCURVE",
"143 393 CURVE",
"145 285 LINE",
"181 303 OFFCURVE",
"218 311 OFFCURVE",
"261 311 CURVE SMOOTH",
"282 311 OFFCURVE",
"295 300 OFFCURVE",
"295 279 CURVE SMOOTH",
"295 220 LINE SMOOTH",
"295 141 OFFCURVE",
"257 95 OFFCURVE",
"185 95 CURVE SMOOTH",
"162 95 OFFCURVE",
"150 105 OFFCURVE",
"150 128 CURVE SMOOTH",
"150 157 OFFCURVE",
"155 200 OFFCURVE",
"155 247 CURVE SMOOTH",
"155 441 LINE SMOOTH",
"155 528 OFFCURVE",
"187 564 OFFCURVE",
"263 564 CURVE SMOOTH",
"280 564 OFFCURVE",
"288 556 OFFCURVE",
"288 536 CURVE SMOOTH",
"288 518 OFFCURVE",
"285 492 OFFCURVE",
"281 463 CURVE",
"381 440 LINE",
"384 461 OFFCURVE",
"387 485 OFFCURVE",
"387 517 CURVE SMOOTH",
"387 558 OFFCURVE",
"269 651 OFFCURVE",
"215 651 CURVE SMOOTH",
"103 651 OFFCURVE",
"54 604 OFFCURVE",
"54 480 CURVE SMOOTH",
"54 276 LINE SMOOTH",
"54 209 OFFCURVE",
"49 161 OFFCURVE",
"49 136 CURVE SMOOTH",
"49 99 OFFCURVE",
"170 7 OFFCURVE",
"258 7 CURVE SMOOTH"
);
}
);
userData = {
com.hugojourdan.ColorFlow = {
"0" = 0;
"1" = 0;
"10" = 0;
"11" = 0;
"2" = 0;
"3" = 0;
"4" = 0;
"5" = 0;
"6" = 0;
"7" = 0;
"8" = 0;
"9" = 0;
};
};
width = 425;
}
);
leftKerningGroup = six;
rightKerningGroup = six;
unicode = 0036;
},
{
glyphname = seven;
lastChange = "2023-12-05 09:52:54 +0000";
layers = (
{
layerId = m002;
paths = (
{
closed = 1;
nodes = (
"233 22 LINE",
"206 40 OFFCURVE",
"183 46 OFFCURVE",
"183 69 CURVE SMOOTH",
"183 76 OFFCURVE",
"179 96 OFFCURVE",
"223 217 CURVE SMOOTH",
"283 380 LINE SMOOTH",
"313 461 OFFCURVE",
"330 510 OFFCURVE",
"348 556 CURVE",
"288 639 LINE",
"0 639 LINE",
"-8 621 LINE",
"61 524 LINE",
"80 524 LINE",
"109 547 OFFCURVE",
"129 556 OFFCURVE",
"207 556 CURVE SMOOTH",
"255 556 LINE",
"244 565 LINE",
"228 529 OFFCURVE",
"202 466 OFFCURVE",
"178 405 CURVE SMOOTH",
"122 260 LINE SMOOTH",
"90 177 OFFCURVE",
"75 121 OFFCURVE",
"75 88 CURVE SMOOTH",
"75 65 OFFCURVE",
"101 53 OFFCURVE",
"220 -6 CURVE"
);
}
);
userData = {
com.hugojourdan.ColorFlow = {
"0" = 0;
"1" = 0;
"10" = 0;
"11" = 0;
"2" = 0;
"3" = 0;
"4" = 0;
"5" = 0;
"6" = 0;
"7" = 0;
"8" = 0;
"9" = 0;
};
};
width = 360;
}
);
leftKerningGroup = seven;
rightKerningGroup = seven;
unicode = 0037;
},
{
glyphname = eight;
lastChange = "2023-12-05 09:52:54 +0000";
layers = (
{
layerId = m002;
paths = (
{
closed = 1;
nodes = (
"346 7 OFFCURVE",
"399 75 OFFCURVE",
"399 178 CURVE SMOOTH",
"399 269 OFFCURVE",
"364 319 OFFCURVE",
"291 353 CURVE",
"260 328 LINE",
"283 305 OFFCURVE",
"299 276 OFFCURVE",
"299 213 CURVE SMOOTH",
"299 134 OFFCURVE",
"264 97 OFFCURVE",
"189 97 CURVE SMOOTH",
"159 97 OFFCURVE",
"145 107 OFFCURVE",
"145 142 CURVE SMOOTH",
"145 144 OFFCURVE",
"145 155 OFFCURVE",
"145 156 CURVE SMOOTH",
"145 216 OFFCURVE",
"161 244 OFFCURVE",
"231 283 CURVE SMOOTH",
"288 315 LINE SMOOTH",
"359 355 OFFCURVE",
"389 379 OFFCURVE",
"390 468 CURVE SMOOTH",
"390 470 OFFCURVE",
"390 495 OFFCURVE",
"390 497 CURVE SMOOTH",
"390 550 OFFCURVE",
"292 650 OFFCURVE",
"208 650 CURVE SMOOTH",
"110 650 OFFCURVE",
"47 606 OFFCURVE",
"47 498 CURVE SMOOTH",
"47 402 OFFCURVE",
"77 361 OFFCURVE",
"142 329 CURVE",
"183 355 LINE",
"164 366 OFFCURVE",
"149 376 OFFCURVE",
"149 450 CURVE SMOOTH",
"149 535 OFFCURVE",
"185 566 OFFCURVE",
"245 566 CURVE SMOOTH",
"278 566 OFFCURVE",
"287 555 OFFCURVE",
"287 529 CURVE SMOOTH",
"287 528 OFFCURVE",
"287 507 OFFCURVE",
"287 505 CURVE SMOOTH",
"286 452 OFFCURVE",
"267 412 OFFCURVE",
"218 389 CURVE SMOOTH",
"155 359 LINE SMOOTH",
"72 319 OFFCURVE",
"44 273 OFFCURVE",
"43 188 CURVE SMOOTH",
"43 187 OFFCURVE",
"43 164 OFFCURVE",
"43 162 CURVE SMOOTH",
"43 89 OFFCURVE",
"163 7 OFFCURVE",
"257 7 CURVE SMOOTH"
);
}
);
userData = {
com.hugojourdan.ColorFlow = {
"0" = 0;
"1" = 0;
"10" = 0;
"11" = 0;
"2" = 0;
"3" = 0;
"4" = 0;
"5" = 0;
"6" = 0;
"7" = 0;
"8" = 0;
"9" = 0;
};
};
width = 434;
}
);
leftKerningGroup = eight;
rightKerningGroup = eight;
unicode = 0038;
},
{
glyphname = nine;
lastChange = "2023-12-05 09:52:54 +0000";
layers = (
{
associatedMasterId = m002;
layerId = "6CF83CD0-5B75-461F-BB2C-5BA3618801E2";
name = img;
width = 427;
},
{
layerId = m002;
paths = (
{
closed = 1;
nodes = (
"313 8 OFFCURVE",
"372 45 OFFCURVE",
"372 187 CURVE SMOOTH",
"372 334 OFFCURVE",
"377 437 OFFCURVE",
"377 483 CURVE SMOOTH",
"377 545 OFFCURVE",
"262 646 OFFCURVE",
"199 646 CURVE SMOOTH",
"108 646 OFFCURVE",
"45 609 OFFCURVE",
"45 500 CURVE SMOOTH",
"45 450 OFFCURVE",
"43 407 OFFCURVE",
"43 357 CURVE SMOOTH",
"43 306 OFFCURVE",
"172 229 OFFCURVE",
"215 229 CURVE SMOOTH",
"244 229 OFFCURVE",
"267 233 OFFCURVE",
"283 240 CURVE",
"283 351 LINE",
"245 331 OFFCURVE",
"204 322 OFFCURVE",
"175 322 CURVE SMOOTH",
"155 322 OFFCURVE",
"144 332 OFFCURVE",
"144 353 CURVE SMOOTH",
"144 394 OFFCURVE",
"146 423 OFFCURVE",
"146 464 CURVE SMOOTH",
"146 531 OFFCURVE",
"176 559 OFFCURVE",
"242 559 CURVE SMOOTH",
"266 559 OFFCURVE",
"276 549 OFFCURVE",
"276 526 CURVE SMOOTH",
"276 497 OFFCURVE",
"273 461 OFFCURVE",
"273 414 CURVE SMOOTH",
"273 206 LINE SMOOTH",
"273 126 OFFCURVE",
"230 97 OFFCURVE",
"182 97 CURVE SMOOTH",
"136 97 OFFCURVE",
"104 130 OFFCURVE",
"69 188 CURVE",
"35 167 LINE",
"85 76 OFFCURVE",
"139 8 OFFCURVE",
"237 8 CURVE SMOOTH"
);
}
);
userData = {
com.hugojourdan.ColorFlow = {
"0" = 0;
"1" = 0;
"10" = 0;
"11" = 0;
"2" = 0;
"3" = 0;
"4" = 0;
"5" = 0;
"6" = 0;
"7" = 0;
"8" = 0;
"9" = 0;
};
};
width = 417;
}
);
leftKerningGroup = nine;
rightKerningGroup = nine;
unicode = 0039;
},
{
glyphname = less;
lastChange = "2023-12-05 09:52:54 +0000";
layers = (
{
layerId = m002;
paths = (
{
closed = 1;
nodes = (
"350 197 LINE",
"103 314 LINE",
"106 283 LINE",
"347 412 LINE",
"288 493 LINE",
"9 333 LINE",
"9 309 LINE",
"323 152 LINE"
);
}
);
userData = {
com.hugojourdan.ColorFlow = {
"0" = 0;
"1" = 0;
"10" = 0;
"11" = 0;
"2" = 0;
"3" = 0;
"4" = 0;
"5" = 0;
"6" = 0;
"7" = 0;
"8" = 0;
"9" = 0;
};
};
width = 369;
}
);
leftKerningGroup = less;
rightKerningGroup = less;
unicode = 003C;
},
{
glyphname = equal;
lastChange = "2023-12-05 09:52:54 +0000";
layers = (
{
associatedMasterId = m002;
layerId = "D68F7147-5D32-415D-8C74-52E6F3343C8D";
name = img;
width = 413;
},
{
layerId = m002;
paths = (
{
closed = 1;
nodes = (
"410 342 LINE",
"414 355 LINE",
"367 419 LINE",
"49 419 LINE",
"45 406 LINE",
"92 342 LINE"
);
},
{
closed = 1;
nodes = (
"416 189 LINE",
"420 202 LINE",
"373 266 LINE",
"55 266 LINE",
"51 253 LINE",
"98 189 LINE"
);
}
);
userData = {
com.hugojourdan.ColorFlow = {
"0" = 0;
"1" = 0;
"10" = 0;
"11" = 0;
"2" = 0;
"3" = 0;
"4" = 0;
"5" = 0;
"6" = 0;
"7" = 0;
"8" = 0;
"9" = 0;
};
};
width = 445;
}
);
leftKerningGroup = equal;
rightKerningGroup = equal;
unicode = 003D;
},
{
glyphname = question;
lastChange = "2023-12-05 09:52:54 +0000";
layers = (
{
components = (
{
name = period;
transform = "{0.8886, 0, 0, 0.8886, 58, -4}";
}
);
layerId = m002;
paths = (
{
closed = 1;
nodes = (
"178 202 LINE",
"167 216 OFFCURVE",
"161 228 OFFCURVE",
"161 236 CURVE SMOOTH",
"161 244 OFFCURVE",
"166 253 OFFCURVE",
"192 275 CURVE SMOOTH",
"258 333 LINE SMOOTH",
"294 364 OFFCURVE",
"319 401 OFFCURVE",
"319 447 CURVE SMOOTH",
"319 497 LINE SMOOTH",
"319 550 OFFCURVE",
"217 650 OFFCURVE",
"162 650 CURVE SMOOTH",
"97 650 OFFCURVE",
"35 610 OFFCURVE",
"16 535 CURVE",
"78 475 LINE",
"94 475 LINE",
"107 530 OFFCURVE",
"151 560 OFFCURVE",
"192 560 CURVE SMOOTH",
"211 560 OFFCURVE",
"222 546 OFFCURVE",
"222 520 CURVE SMOOTH",
"222 480 LINE SMOOTH",
"222 438 OFFCURVE",
"201 416 OFFCURVE",
"169 388 CURVE SMOOTH",
"116 341 LINE SMOOTH",
"88 316 OFFCURVE",
"83 299 OFFCURVE",
"83 288 CURVE SMOOTH",
"83 264 OFFCURVE",
"114 231 OFFCURVE",
"152 185 CURVE"
);
}
);
userData = {
com.hugojourdan.ColorFlow = {
"0" = 0;
"1" = 0;
"10" = 0;
"11" = 0;
"2" = 0;
"3" = 0;
"4" = 0;
"5" = 0;
"6" = 0;
"7" = 0;
"8" = 0;
"9" = 0;
};
};
width = 333;
}
);
leftKerningGroup = question;
rightKerningGroup = question;
unicode = 003F;
},
{
glyphname = at;
lastChange = "2023-12-05 09:52:54 +0000";
layers = (
{
layerId = m002;
paths = (
{
closed = 1;
nodes = (
"514 21 LINE",
"467 -4 OFFCURVE",
"385 -20 OFFCURVE",
"336 -20 CURVE SMOOTH",
"169 -20 OFFCURVE",
"121 79 OFFCURVE",
"121 224 CURVE SMOOTH",
"121 429 OFFCURVE",
"201 529 OFFCURVE",
"371 529 CURVE SMOOTH",
"510 529 OFFCURVE",
"582 468 OFFCURVE",
"582 307 CURVE SMOOTH",
"582 209 OFFCURVE",
"560 150 OFFCURVE",
"514 150 CURVE SMOOTH",
"489 150 OFFCURVE",
"479 172 OFFCURVE",
"481 208 CURVE SMOOTH",
"483 242 OFFCURVE",
"491 351 OFFCURVE",
"494 376 CURVE",
"426 445 LINE",
"411 440 LINE",
"403 408 OFFCURVE",
"402 344 OFFCURVE",
"396 278 CURVE SMOOTH",
"386 163 OFFCURVE",
"367 125 OFFCURVE",
"323 125 CURVE SMOOTH",
"304 125 OFFCURVE",
"295 135 OFFCURVE",
"295 163 CURVE SMOOTH",
"295 307 OFFCURVE",
"321 374 OFFCURVE",
"376 374 CURVE SMOOTH",
"392 374 OFFCURVE",
"403 373 OFFCURVE",
"411 371 CURVE",
"426 445 LINE",
"405 448 OFFCURVE",
"381 449 OFFCURVE",
"362 449 CURVE SMOOTH",
"252 449 OFFCURVE",
"205 392 OFFCURVE",
"205 201 CURVE SMOOTH",
"205 117 OFFCURVE",
"318 60 OFFCURVE",
"378 60 CURVE SMOOTH",
"410 60 OFFCURVE",
"448 80 OFFCURVE",
"464 133 CURVE",
"457 129 LINE",
"471 104 OFFCURVE",
"521 60 OFFCURVE",
"569 60 CURVE SMOOTH",
"631 60 OFFCURVE",
"667 136 OFFCURVE",
"667 269 CURVE SMOOTH",
"667 456 OFFCURVE",
"526 612 OFFCURVE",
"335 612 CURVE SMOOTH",
"140 612 OFFCURVE",
"30 486 OFFCURVE",
"30 269 CURVE SMOOTH",
"30 17 OFFCURVE",
"221 -95 OFFCURVE",
"423 -95 CURVE SMOOTH",
"487 -95 OFFCURVE",
"537 -83 OFFCURVE",
"569 -64 CURVE",
"529 16 LINE"
);
}
);
width = 692;
}
);
leftKerningGroup = at;
rightKerningGroup = at;
unicode = 0040;
},
{
glyphname = bracketleft;
lastChange = "2023-12-05 09:52:54 +0000";
layers = (
{
associatedMasterId = m002;
layerId = "1D295500-28F9-4D90-AD47-89D043DD2441";
name = img;
width = 239;
},
{
layerId = m002;
paths = (
{
closed = 1;
nodes = (
"62 737 LINE",
"62 -85 LINE",
"238 -85 LINE",
"238 -46 LINE",
"154 -46 LINE",
"154 695 LINE",
"238 695 LINE",
"238 737 LINE"
);
}
);
userData = {
com.hugojourdan.ColorFlow = {
"0" = 0;
"1" = 0;
"10" = 0;
"11" = 0;
"2" = 0;
"3" = 0;
"4" = 0;
"5" = 0;
"6" = 0;
"7" = 0;
"8" = 0;
"9" = 0;
};
};
width = 265;
}
);
leftKerningGroup = bracketleft;
rightKerningGroup = bracketleft;
unicode = 005B;
},
{
glyphname = backslash;
lastChange = "2023-12-05 09:52:54 +0000";
layers = (
{
layerId = m002;
paths = (
{
closed = 1;
nodes = (
"309 -109 LINE",
"99 695 LINE",
"21 746 LINE",
"6 738 LINE",
"217 -73 LINE",
"293 -118 LINE"
);
}
);
userData = {
com.hugojourdan.ColorFlow = {
"0" = 0;
"1" = 0;
"10" = 0;
"11" = 0;
"2" = 0;
"3" = 0;
"4" = 0;
"5" = 0;
"6" = 0;
"7" = 0;
"8" = 0;
"9" = 0;
};
};
width = 305;
}
);
leftKerningGroup = backslash;
rightKerningGroup = backslash;
unicode = 005C;
},
{
glyphname = bracketright;
lastChange = "2023-12-05 09:52:54 +0000";
layers = (
{
associatedMasterId = m002;
layerId = "71D449AB-16FD-48C1-BD54-F94B79A40B8C";
name = img;
width = 219;
},
{
layerId = m002;
paths = (
{
closed = 1;
nodes = (
"34 695 LINE",
"118 695 LINE",
"118 -46 LINE",
"34 -46 LINE",
"34 -85 LINE",
"210 -85 LINE",
"210 737 LINE",
"34 737 LINE"
);
}
);
userData = {
com.hugojourdan.ColorFlow = {
"0" = 0;
"1" = 0;
"10" = 0;
"11" = 0;
"2" = 0;
"3" = 0;
"4" = 0;
"5" = 0;
"6" = 0;
"7" = 0;
"8" = 0;
"9" = 0;
};
};
width = 272;
}
);
leftKerningGroup = bracketright;
rightKerningGroup = bracketright;
unicode = 005D;
},
{
glyphname = underscore;
lastChange = "2023-12-05 09:52:54 +0000";
layers = (
{
associatedMasterId = m002;
layerId = "9E601CF8-87A4-420F-8DAD-CDB9B33457A0";
name = img;
width = 366;
},
{
layerId = m002;
paths = (
{
closed = 1;
nodes = (
"364 -120 LINE",
"368 -107 LINE",
"318 -38 LINE",
"0 -38 LINE",
"-4 -51 LINE",
"46 -120 LINE"
);
}
);
userData = {
com.hugojourdan.ColorFlow = {
"0" = 0;
"1" = 0;
"10" = 0;
"11" = 0;
"2" = 0;
"3" = 0;
"4" = 0;
"5" = 0;
"6" = 0;
"7" = 0;
"8" = 0;
"9" = 0;
};
};
width = 289;
}
);
leftKerningGroup = underscore;
rightKerningGroup = underscore;
unicode = 005F;
},
{
glyphname = braceleft;
lastChange = "2023-12-05 09:52:54 +0000";
layers = (
{
layerId = m002;
paths = (
{
closed = 1;
nodes = (
"102 730 OFFCURVE",
"49 712 OFFCURVE",
"49 646 CURVE SMOOTH",
"49 591 OFFCURVE",
"55 571 OFFCURVE",
"55 431 CURVE SMOOTH",
"55 393 OFFCURVE",
"38 374 OFFCURVE",
"-1 361 CURVE SMOOTH",
"-30 351 LINE",
"-27 314 LINE",
"-1 305 LINE SMOOTH",
"40 291 OFFCURVE",
"55 274 OFFCURVE",
"55 239 CURVE SMOOTH",
"55 74 OFFCURVE",
"49 54 OFFCURVE",
"49 2 CURVE SMOOTH",
"49 -49 OFFCURVE",
"125 -77 OFFCURVE",
"224 -93 CURVE",
"234 -48 LINE",
"172 -37 OFFCURVE",
"140 -26 OFFCURVE",
"140 12 CURVE SMOOTH",
"140 56 OFFCURVE",
"146 88 OFFCURVE",
"146 194 CURVE SMOOTH",
"146 281 OFFCURVE",
"79 345 OFFCURVE",
"9 345 CURVE",
"9 325 LINE",
"79 325 OFFCURVE",
"144 361 OFFCURVE",
"144 430 CURVE SMOOTH",
"144 558 OFFCURVE",
"138 564 OFFCURVE",
"138 634 CURVE SMOOTH",
"138 688 OFFCURVE",
"175 692 OFFCURVE",
"230 703 CURVE",
"221 749 LINE"
);
}
);
userData = {
com.hugojourdan.ColorFlow = {
"0" = 0;
"1" = 0;
"10" = 0;
"11" = 0;
"2" = 0;
"3" = 0;
"4" = 0;
"5" = 0;
"6" = 0;
"7" = 0;
"8" = 0;
"9" = 0;
};
};
width = 244;
}
);
leftKerningGroup = braceleft;
rightKerningGroup = braceleft;
unicode = 007B;
},
{
glyphname = bar;
lastChange = "2023-12-05 09:52:54 +0000";
layers = (
{
layerId = m002;
paths = (
{
closed = 1;
nodes = (
"167 -99 LINE",
"167 723 LINE",
"100 755 LINE",
"84 744 LINE",
"84 -78 LINE",
"151 -110 LINE"
);
}
);
userData = {
com.hugojourdan.ColorFlow = {
"0" = 0;
"1" = 0;
"10" = 0;
"11" = 0;
"2" = 0;
"3" = 0;
"4" = 0;
"5" = 0;
"6" = 0;
"7" = 0;
"8" = 0;
"9" = 0;
};
};
width = 251;
}
);
leftKerningGroup = bar;
rightKerningGroup = bar;
unicode = 007C;
},
{
glyphname = braceright;
lastChange = "2023-12-05 09:52:54 +0000";
layers = (
{
associatedMasterId = m002;
layerId = "D5DDCF08-8B55-4FB7-A6AF-9305EFEDF731";
name = img;
width = 231;
},
{
layerId = m002;
paths = (
{
closed = 1;
nodes = (
"21 703 LINE",
"76 692 OFFCURVE",
"113 688 OFFCURVE",
"113 634 CURVE SMOOTH",
"113 564 OFFCURVE",
"107 558 OFFCURVE",
"107 430 CURVE SMOOTH",
"107 361 OFFCURVE",
"172 325 OFFCURVE",
"242 325 CURVE",
"242 345 LINE",
"172 345 OFFCURVE",
"105 281 OFFCURVE",
"105 194 CURVE SMOOTH",
"105 88 OFFCURVE",
"111 56 OFFCURVE",
"111 12 CURVE SMOOTH",
"111 -26 OFFCURVE",
"79 -37 OFFCURVE",
"17 -48 CURVE",
"27 -93 LINE",
"126 -77 OFFCURVE",
"202 -49 OFFCURVE",
"202 2 CURVE SMOOTH",
"202 54 OFFCURVE",
"196 74 OFFCURVE",
"196 239 CURVE SMOOTH",
"196 274 OFFCURVE",
"211 291 OFFCURVE",
"252 305 CURVE SMOOTH",
"278 314 LINE",
"281 351 LINE",
"252 361 LINE SMOOTH",
"213 374 OFFCURVE",
"196 393 OFFCURVE",
"196 431 CURVE SMOOTH",
"196 571 OFFCURVE",
"202 591 OFFCURVE",
"202 646 CURVE SMOOTH",
"202 712 OFFCURVE",
"149 730 OFFCURVE",
"30 749 CURVE"
);
}
);
userData = {
com.hugojourdan.ColorFlow = {
"0" = 0;
"1" = 0;
"10" = 0;
"11" = 0;
"2" = 0;
"3" = 0;
"4" = 0;
"5" = 0;
"6" = 0;
"7" = 0;
"8" = 0;
"9" = 0;
};
};
width = 253;
}
);
leftKerningGroup = braceright;
rightKerningGroup = braceright;
unicode = 007D;
},
{
glyphname = endash;
lastChange = "2023-12-05 09:52:54 +0000";
layers = (
{
associatedMasterId = m002;
layerId = "541D6C48-22A5-4163-AFBD-E7C6AD98315D";
name = img;
width = 370;
},
{
layerId = m002;
paths = (
{
closed = 1;
nodes = (
"387 249 LINE",
"393 263 LINE",
"351 327 LINE",
"16 327 LINE",
"10 312 LINE",
"52 249 LINE"
);
}
);
userData = {
com.hugojourdan.ColorFlow = {
"0" = 0;
"1" = 0;
"10" = 0;
"11" = 0;
"2" = 0;
"3" = 0;
"4" = 0;
"5" = 0;
"6" = 0;
"7" = 0;
"8" = 0;
"9" = 0;
};
};
width = 387;
}
);
leftKerningGroup = endash;
rightKerningGroup = endash;
unicode = 2013;
},
{
glyphname = emdash;
lastChange = "2023-12-05 09:52:54 +0000";
layers = (
{
associatedMasterId = m002;
layerId = "E9E2E28F-C160-4FB0-9651-7FAE1098DACD";
name = img;
width = 609;
},
{
layerId = m002;
paths = (
{
closed = 1;
nodes = (
"560 249 LINE",
"566 263 LINE",
"519 327 LINE",
"16 327 LINE",
"10 312 LINE",
"57 249 LINE"
);
}
);
userData = {
com.hugojourdan.ColorFlow = {
"0" = 0;
"1" = 0;
"10" = 0;
"11" = 0;
"2" = 0;
"3" = 0;
"4" = 0;
"5" = 0;
"6" = 0;
"7" = 0;
"8" = 0;
"9" = 0;
};
};
width = 578;
}
);
leftKerningGroup = endash;
rightKerningGroup = endash;
unicode = 2014;
},
{
glyphname = quoteleft;
lastChange = "2023-12-05 09:52:54 +0000";
layers = (
{
associatedMasterId = m002;
layerId = "760F2AF1-4FF1-495B-9A02-D3F156DC36FC";
name = img;
width = 148;
},
{
layerId = m002;
paths = (
{
closed = 1;
nodes = (
"130 575 LINE",
"130 592 LINE",
"113 611 OFFCURVE",
"103 623 OFFCURVE",
"103 655 CURVE SMOOTH",
"103 683 OFFCURVE",
"114 715 OFFCURVE",
"130 737 CURVE",
"112 757 LINE",
"31 699 OFFCURVE",
"12 655 OFFCURVE",
"12 604 CURVE SMOOTH",
"12 566 OFFCURVE",
"26 542 OFFCURVE",
"43 522 CURVE"
);
}
);
userData = {
com.hugojourdan.ColorFlow = {
"0" = 0;
"1" = 0;
"10" = 0;
"11" = 0;
"2" = 0;
"3" = 0;
"4" = 0;
"5" = 0;
"6" = 0;
"7" = 0;
"8" = 0;
"9" = 0;
};
};
width = 186;
}
);
leftKerningGroup = quoteleft;
rightKerningGroup = quoteleft;
unicode = 2018;
},
{
glyphname = quoteright;
lastChange = "2023-12-05 15:48:02 +0000";
layers = (
{
associatedMasterId = m002;
layerId = "CD8D5D4C-1749-46F1-970C-0A6FC75C5ABC";
name = img;
width = 160;
},
{
layerId = m002;
paths = (
{
closed = 1;
nodes = (
"31 669 LINE",
"31 652 LINE",
"50 633 OFFCURVE",
"58 621 OFFCURVE",
"58 589 CURVE SMOOTH",
"58 561 OFFCURVE",
"47 529 OFFCURVE",
"31 507 CURVE",
"49 487 LINE",
"130 545 OFFCURVE",
"149 589 OFFCURVE",
"149 640 CURVE SMOOTH",
"149 678 OFFCURVE",
"135 702 OFFCURVE",
"118 722 CURVE"
);
}
);
userData = {
com.hugojourdan.ColorFlow = {
"0" = 0;
"1" = 0;
"10" = 0;
"11" = 0;
"2" = 0;
"3" = 0;
"4" = 0;
"5" = 0;
"6" = 0;
"7" = 0;
"8" = 0;
"9" = 0;
};
};
width = 191;
}
);
leftKerningGroup = quoteright;
rightKerningGroup = quoteright;
unicode = 2019;
},
{
glyphname = divide;
lastChange = "2023-12-05 09:52:54 +0000";
layers = (
{
components = (
{
name = _tittle;
transform = "{1, 0, 0, 1, 93, -466}";
},
{
name = _tittle;
transform = "{1, 0, 0, 1, 97, -152}";
}
);
layerId = m002;
paths = (
{
closed = 1;
nodes = (
"425 273 LINE",
"429 286 LINE",
"379 355 LINE",
"21 355 LINE",
"17 342 LINE",
"67 273 LINE"
);
}
);
userData = {
com.hugojourdan.ColorFlow = {
"0" = 0;
"1" = 0;
"10" = 0;
"11" = 0;
"2" = 0;
"3" = 0;
"4" = 0;
"5" = 0;
"6" = 0;
"7" = 0;
"8" = 0;
"9" = 0;
};
};
width = 442;
}
);
leftKerningGroup = divide;
leftMetricsKey = minus;
rightKerningGroup = divide;
rightMetricsKey = minus;
unicode = 00F7;
},
{
glyphname = minus;
lastChange = "2023-12-05 09:52:54 +0000";
layers = (
{
layerId = m002;
paths = (
{
closed = 1;
nodes = (
"395 277 LINE",
"399 290 LINE",
"349 359 LINE",
"21 359 LINE",
"17 346 LINE",
"67 277 LINE"
);
}
);
userData = {
com.hugojourdan.ColorFlow = {
"0" = 0;
"1" = 0;
"10" = 0;
"11" = 0;
"2" = 0;
"3" = 0;
"4" = 0;
"5" = 0;
"6" = 0;
"7" = 0;
"8" = 0;
"9" = 0;
};
};
width = 412;
}
);
leftKerningGroup = endash;
rightKerningGroup = endash;
unicode = 2212;
},
{
glyphname = multiply;
lastChange = "2023-12-05 09:52:54 +0000";
layers = (
{
associatedMasterId = m002;
layerId = "85B3CE04-96FB-4C9E-8608-A82AE91FDA05";
name = img;
width = 417;
},
{
layerId = m002;
paths = (
{
closed = 1;
nodes = (
"402 423 LINE",
"323 496 LINE",
"32 179 LINE",
"109 106 LINE"
);
},
{
closed = 1;
nodes = (
"401 149 LINE",
"259 307 LINE",
"220 358 LINE",
"94 499 LINE",
"45 453 LINE",
"179 304 LINE",
"220 251 LINE",
"354 101 LINE"
);
}
);
userData = {
com.hugojourdan.ColorFlow = {
"0" = 0;
"1" = 0;
"10" = 0;
"11" = 0;
"2" = 0;
"3" = 0;
"4" = 0;
"5" = 0;
"6" = 0;
"7" = 0;
"8" = 0;
"9" = 0;
};
};
width = 439;
}
);
leftKerningGroup = multiply;
unicode = 00D7;
},
{
glyphname = bullet;
lastChange = "2023-12-05 09:52:54 +0000";
layers = (
{
layerId = m002;
paths = (
{
closed = 1;
nodes = (
"219 249 OFFCURVE",
"265 283 OFFCURVE",
"305 318 CURVE",
"306 337 LINE",
"197 452 LINE",
"156 421 OFFCURVE",
"108 382 OFFCURVE",
"71 344 CURVE",
"71 329 LINE",
"179 213 LINE"
);
}
);
userData = {
com.hugojourdan.ColorFlow = {
"0" = 0;
"1" = 0;
"10" = 0;
"11" = 0;
"2" = 0;
"3" = 0;
"4" = 0;
"5" = 0;
"6" = 0;
"7" = 0;
"8" = 0;
"9" = 0;
};
};
width = 377;
}
);
leftKerningGroup = bullet;
rightKerningGroup = bullet;
unicode = 2022;
},
{
glyphname = Avagraha.dv;
lastChange = "2023-12-05 09:52:54 +0000";
layers = (
{
layerId = m002;
paths = (
{
closed = 1;
nodes = (
"348 585 LINE",
"298 639 LINE",
"183 639 LINE SMOOTH",
"113 639 OFFCURVE",
"36 595 OFFCURVE",
"36 503 CURVE SMOOTH",
"36 380 OFFCURVE",
"275 300 OFFCURVE",
"275 206 CURVE SMOOTH",
"275 148 OFFCURVE",
"222 92 OFFCURVE",
"162 92 CURVE SMOOTH",
"113 92 OFFCURVE",
"71 118 OFFCURVE",
"25 220 CURVE",
"-2 203 LINE",
"33 101 OFFCURVE",
"126 10 OFFCURVE",
"213 10 CURVE SMOOTH",
"299 10 OFFCURVE",
"362 71 OFFCURVE",
"362 159 CURVE SMOOTH",
"362 265 OFFCURVE",
"241 315 OFFCURVE",
"173 376 CURVE SMOOTH",
"146 400 OFFCURVE",
"128 425 OFFCURVE",
"128 456 CURVE SMOOTH",
"128 523 OFFCURVE",
"185 567 OFFCURVE",
"254 567 CURVE SMOOTH",
"336 567 LINE"
);
}
);
width = 382;
}
);
unicode = 093D;
},
{
glyphname = Om.dv;
lastChange = "2023-12-05 09:52:54 +0000";
layers = (
{
layerId = m002;
paths = (
{
closed = 1;
nodes = (
"302 490 LINE SMOOTH",
"302 526 OFFCURVE",
"319 553 OFFCURVE",
"338 567 CURVE",
"272 639 LINE",
"17 639 LINE",
"7 615 LINE",
"96 519 LINE",
"118 519 LINE",
"131 540 OFFCURVE",
"159 564 OFFCURVE",
"186 567 CURVE",
"231 567 LINE",
"216 552 OFFCURVE",
"207 526 OFFCURVE",
"207 497 CURVE SMOOTH",
"207 455 LINE SMOOTH",
"207 424 OFFCURVE",
"202 383 OFFCURVE",
"173 358 CURVE",
"170 359 OFFCURVE",
"166 359 OFFCURVE",
"163 359 CURVE SMOOTH",
"115 359 OFFCURVE",
"68 330 OFFCURVE",
"52 293 CURVE",
"150 222 LINE",
"170 252 OFFCURVE",
"206 277 OFFCURVE",
"242 277 CURVE SMOOTH",
"271 277 OFFCURVE",
"285 261 OFFCURVE",
"285 228 CURVE SMOOTH",
"285 166 OFFCURVE",
"241 103 OFFCURVE",
"171 103 CURVE SMOOTH",
"110 103 OFFCURVE",
"61 142 OFFCURVE",
"5 230 CURVE",
"-22 214 LINE",
"28 106 OFFCURVE",
"135 21 OFFCURVE",
"236 21 CURVE SMOOTH",
"325 21 OFFCURVE",
"379 84 OFFCURVE",
"379 154 CURVE SMOOTH",
"379 160 OFFCURVE",
"378 167 OFFCURVE",
"377 174 CURVE",
"438 324 OFFCURVE",
"506 432 OFFCURVE",
"537 432 CURVE SMOOTH",
"552 432 OFFCURVE",
"562 414 OFFCURVE",
"562 395 CURVE SMOOTH",
"562 262 OFFCURVE",
"458 145 OFFCURVE",
"458 119 CURVE SMOOTH",
"458 81 OFFCURVE",
"571 0 OFFCURVE",
"603 -19 CURVE",
"619 3 LINE",
"595 19 OFFCURVE",
"554 48 OFFCURVE",
"554 70 CURVE SMOOTH",
"554 87 OFFCURVE",
"657 216 OFFCURVE",
"657 340 CURVE SMOOTH",
"657 401 OFFCURVE",
"555 506 OFFCURVE",
"480 506 CURVE SMOOTH",
"417 506 OFFCURVE",
"361 403 OFFCURVE",
"308 284 CURVE",
"297 295 OFFCURVE",
"284 306 OFFCURVE",
"271 315 CURVE",
"295 343 OFFCURVE",
"302 383 OFFCURVE",
"302 422 CURVE"
);
},
{
closed = 1;
nodes = (
"320 646 LINE",
"379 564 OFFCURVE",
"457 540 OFFCURVE",
"507 540 CURVE SMOOTH",
"569 540 OFFCURVE",
"622 570 OFFCURVE",
"643 601 CURVE",
"567 659 LINE",
"546 632 OFFCURVE",
"494 606 OFFCURVE",
"443 606 CURVE SMOOTH",
"410 606 OFFCURVE",
"377 619 OFFCURVE",
"341 660 CURVE"
);
},
{
closed = 1;
nodes = (
"519 689 LINE",
"498 709 OFFCURVE",
"473 728 OFFCURVE",
"454 743 CURVE",
"429 734 OFFCURVE",
"395 721 OFFCURVE",
"375 706 CURVE",
"375 698 LINE",
"394 681 OFFCURVE",
"416 663 OFFCURVE",
"439 644 CURVE",
"459 657 OFFCURVE",
"496 673 OFFCURVE",
"519 681 CURVE"
);
}
);
width = 687;
}
);
unicode = 0950;
},
{
glyphname = copyright;
lastChange = "2023-12-05 09:52:54 +0000";
layers = (
{
components = (
{
name = c;
transform = "{0.72733, 0, 0, 0.72733, 203, 138}";
}
);
layerId = m002;
paths = (
{
closed = 1;
nodes = (
"535 13 OFFCURVE",
"653 133 OFFCURVE",
"653 312 CURVE SMOOTH",
"653 504 OFFCURVE",
"528 633 OFFCURVE",
"339 633 CURVE SMOOTH",
"164 633 OFFCURVE",
"47 512 OFFCURVE",
"47 332 CURVE SMOOTH",
"47 141 OFFCURVE",
"171 13 OFFCURVE",
"359 13 CURVE SMOOTH"
);
},
{
closed = 1;
nodes = (
"198 69 OFFCURVE",
"104 166 OFFCURVE",
"104 312 CURVE SMOOTH",
"104 482 OFFCURVE",
"196 577 OFFCURVE",
"359 577 CURVE SMOOTH",
"501 577 OFFCURVE",
"596 479 OFFCURVE",
"596 332 CURVE SMOOTH",
"596 164 OFFCURVE",
"504 69 OFFCURVE",
"339 69 CURVE SMOOTH"
);
}
);
userData = {
com.hugojourdan.ColorFlow = {
"0" = 0;
"1" = 0;
"10" = 0;
"11" = 0;
"2" = 0;
"3" = 0;
"4" = 0;
"5" = 0;
"6" = 0;
"7" = 0;
"8" = 0;
"9" = 0;
};
};
width = 698;
}
);
leftKerningGroup = copyright;
rightKerningGroup = copyright;
unicode = 00A9;
},
{
glyphname = registered;
lastChange = "2023-12-05 09:52:54 +0000";
layers = (
{
layerId = m002;
paths = (
{
closed = 1;
nodes = (
"402 189 OFFCURVE",
"503 283 OFFCURVE",
"503 418 CURVE SMOOTH",
"503 554 OFFCURVE",
"402 649 OFFCURVE",
"270 649 CURVE SMOOTH",
"140 649 OFFCURVE",
"39 554 OFFCURVE",
"39 418 CURVE SMOOTH",
"39 283 OFFCURVE",
"140 189 OFFCURVE",
"270 189 CURVE SMOOTH"
);
},
{
closed = 1;
nodes = (
"170 234 OFFCURVE",
"92 310 OFFCURVE",
"92 418 CURVE SMOOTH",
"92 528 OFFCURVE",
"170 604 OFFCURVE",
"270 604 CURVE SMOOTH",
"371 604 OFFCURVE",
"450 528 OFFCURVE",
"450 418 CURVE SMOOTH",
"450 310 OFFCURVE",
"371 234 OFFCURVE",
"270 234 CURVE SMOOTH"
);
},
{
closed = 1;
nodes = (
"244 339 OFFCURVE",
"247 361 OFFCURVE",
"247 388 CURVE SMOOTH",
"247 435 OFFCURVE",
"248 497 OFFCURVE",
"251 509 CURVE",
"222 549 LINE",
"172 549 LINE",
"167 539 LINE",
"196 507 LINE",
"192 470 OFFCURVE",
"191 425 OFFCURVE",
"191 386 CURVE SMOOTH",
"191 362 OFFCURVE",
"188 347 OFFCURVE",
"188 327 CURVE SMOOTH",
"188 318 OFFCURVE",
"219 304 OFFCURVE",
"250 290 CURVE",
"257 302 LINE",
"246 312 OFFCURVE",
"244 317 OFFCURVE",
"244 325 CURVE SMOOTH"
);
},
{
closed = 1;
nodes = (
"303 327 LINE SMOOTH",
"304 315 OFFCURVE",
"328 304 OFFCURVE",
"366 287 CURVE",
"373 299 LINE",
"362 307 OFFCURVE",
"356 313 OFFCURVE",
"355 327 CURVE SMOOTH",
"351 375 LINE SMOOTH",
"350 387 OFFCURVE",
"337 400 OFFCURVE",
"310 412 CURVE",
"313 403 LINE",
"335 418 OFFCURVE",
"357 444 OFFCURVE",
"357 463 CURVE SMOOTH",
"357 492 OFFCURVE",
"321 554 OFFCURVE",
"288 554 CURVE SMOOTH",
"272 554 OFFCURVE",
"217 549 OFFCURVE",
"193 549 CURVE",
"233 496 LINE",
"250 503 OFFCURVE",
"269 506 OFFCURVE",
"288 506 CURVE SMOOTH",
"306 506 OFFCURVE",
"310 503 OFFCURVE",
"310 485 CURVE SMOOTH",
"310 457 OFFCURVE",
"292 438 OFFCURVE",
"260 426 CURVE",
"260 413 LINE",
"292 402 OFFCURVE",
"298 398 OFFCURVE",
"300 370 CURVE SMOOTH"
);
}
);
userData = {
com.hugojourdan.ColorFlow = {
"0" = 0;
"1" = 0;
"10" = 0;
"11" = 0;
"2" = 0;
"3" = 0;
"4" = 0;
"5" = 0;
"6" = 0;
"7" = 0;
"8" = 0;
"9" = 0;
};
};
width = 544;
}
);
leftKerningGroup = registered;
rightKerningGroup = registered;
unicode = 00AE;
},
{
glyphname = trademark;
lastChange = "2023-12-05 09:52:54 +0000";
layers = (
{
layerId = m002;
paths = (
{
closed = 1;
nodes = (
"582 351 LINE",
"568 363 OFFCURVE",
"560 375 OFFCURVE",
"560 392 CURVE SMOOTH",
"560 556 LINE",
"560 578 OFFCURVE",
"563 593 OFFCURVE",
"572 607 CURVE",
"539 639 LINE",
"487 639 LINE",
"455 610 OFFCURVE",
"413 509 OFFCURVE",
"407 445 CURVE",
"423 445 LINE",
"414 527 OFFCURVE",
"381 597 OFFCURVE",
"353 639 CURVE",
"269 639 LINE",
"263 628 LINE",
"295 582 LINE",
"287 603 LINE",
"285 592 OFFCURVE",
"282 390 OFFCURVE",
"282 383 CURVE SMOOTH",
"282 377 OFFCURVE",
"322 352 OFFCURVE",
"352 335 CURVE",
"364 351 LINE",
"348 367 OFFCURVE",
"344 378 OFFCURVE",
"344 395 CURVE SMOOTH",
"344 438 OFFCURVE",
"345 513 OFFCURVE",
"348 603 CURVE",
"329 599 LINE",
"357 561 OFFCURVE",
"382 506 OFFCURVE",
"392 413 CURVE",
"440 394 LINE",
"451 398 LINE",
"458 457 OFFCURVE",
"491 558 OFFCURVE",
"516 592 CURVE",
"515 614 LINE",
"505 586 OFFCURVE",
"499 542 OFFCURVE",
"499 488 CURVE SMOOTH",
"499 445 LINE SMOOTH",
"499 408 OFFCURVE",
"499 391 OFFCURVE",
"499 383 CURVE SMOOTH",
"499 377 OFFCURVE",
"533 356 OFFCURVE",
"570 335 CURVE"
);
},
{
closed = 1;
nodes = (
"190 348 LINE",
"173 361 OFFCURVE",
"169 365 OFFCURVE",
"169 381 CURVE SMOOTH",
"169 430 OFFCURVE",
"170 561 OFFCURVE",
"174 584 CURVE",
"194 584 OFFCURVE",
"207 579 OFFCURVE",
"223 560 CURVE",
"234 560 LINE",
"267 590 LINE",
"229 639 LINE",
"-1 639 LINE",
"-7 624 LINE",
"38 562 LINE",
"53 562 LINE",
"60 573 OFFCURVE",
"77 584 OFFCURVE",
"95 584 CURVE SMOOTH",
"102 584 LINE",
"101 556 OFFCURVE",
"97 407 OFFCURVE",
"97 381 CURVE SMOOTH",
"97 374 OFFCURVE",
"154 344 OFFCURVE",
"181 332 CURVE"
);
}
);
userData = {
com.hugojourdan.ColorFlow = {
"0" = 0;
"1" = 0;
"10" = 0;
"11" = 0;
"2" = 0;
"3" = 0;
"4" = 0;
"5" = 0;
"6" = 0;
"7" = 0;
"8" = 0;
"9" = 0;
};
};
width = 605;
}
);
leftKerningGroup = trademark;
rightKerningGroup = trademark;
unicode = 2122;
},
{
glyphname = degree;
lastChange = "2023-12-05 09:52:54 +0000";
layers = (
{
layerId = m002;
paths = (
{
closed = 1;
nodes = (
"227 459 OFFCURVE",
"264 490 OFFCURVE",
"264 561 CURVE SMOOTH",
"264 581 LINE SMOOTH",
"264 632 OFFCURVE",
"197 700 OFFCURVE",
"127 700 CURVE SMOOTH",
"67 700 OFFCURVE",
"21 671 OFFCURVE",
"21 593 CURVE SMOOTH",
"21 565 LINE SMOOTH",
"21 522 OFFCURVE",
"80 459 OFFCURVE",
"166 459 CURVE SMOOTH"
);
},
{
closed = 1;
nodes = (
"104 518 OFFCURVE",
"98 526 OFFCURVE",
"98 540 CURVE",
"98 566 LINE SMOOTH",
"98 635 OFFCURVE",
"135 640 OFFCURVE",
"165 640 CURVE SMOOTH",
"182 640 OFFCURVE",
"187 631 OFFCURVE",
"187 617 CURVE",
"187 591 LINE SMOOTH",
"187 530 OFFCURVE",
"156 518 OFFCURVE",
"121 518 CURVE SMOOTH"
);
}
);
userData = {
com.hugojourdan.ColorFlow = {
"0" = 0;
"1" = 0;
"10" = 0;
"11" = 0;
"2" = 0;
"3" = 0;
"4" = 0;
"5" = 0;
"6" = 0;
"7" = 0;
"8" = 0;
"9" = 0;
};
};
width = 290;
}
);
leftKerningGroup = degree;
rightKerningGroup = degree;
unicode = 00B0;
},
{
glyphname = Euro;
lastChange = "2023-12-05 09:52:54 +0000";
layers = (
{
layerId = m002;
paths = (
{
closed = 1;
nodes = (
"359 14 OFFCURVE",
"415 38 OFFCURVE",
"449 64 CURVE",
"397 154 LINE",
"385 154 LINE",
"351 133 OFFCURVE",
"289 109 OFFCURVE",
"229 109 CURVE SMOOTH",
"205 109 OFFCURVE",
"193 119 OFFCURVE",
"193 138 CURVE SMOOTH",
"193 154 OFFCURVE",
"198 193 OFFCURVE",
"198 260 CURVE SMOOTH",
"198 446 LINE SMOOTH",
"198 519 OFFCURVE",
"233 553 OFFCURVE",
"306 553 CURVE SMOOTH",
"330 553 OFFCURVE",
"341 542 OFFCURVE",
"341 520 CURVE SMOOTH",
"341 498 OFFCURVE",
"339 481 OFFCURVE",
"336 461 CURVE",
"438 439 LINE",
"441 458 OFFCURVE",
"442 473 OFFCURVE",
"442 490 CURVE SMOOTH",
"442 545 OFFCURVE",
"331 646 OFFCURVE",
"259 646 CURVE SMOOTH",
"168 646 OFFCURVE",
"99 589 OFFCURVE",
"99 481 CURVE SMOOTH",
"99 300 LINE SMOOTH",
"99 240 OFFCURVE",
"92 182 OFFCURVE",
"92 148 CURVE SMOOTH",
"92 98 OFFCURVE",
"241 14 OFFCURVE",
"312 14 CURVE SMOOTH"
);
},
{
closed = 1;
nodes = (
"370 228 LINE",
"374 241 LINE",
"325 293 LINE",
"24 293 LINE",
"20 280 LINE",
"67 228 LINE"
);
},
{
closed = 1;
nodes = (
"357 339 LINE",
"361 352 LINE",
"312 404 LINE",
"11 404 LINE",
"7 391 LINE",
"54 339 LINE"
);
}
);
userData = {
com.hugojourdan.ColorFlow = {
"0" = 0;
"1" = 0;
"10" = 0;
"11" = 0;
"2" = 0;
"3" = 0;
"4" = 0;
"5" = 0;
"6" = 0;
"7" = 0;
"8" = 0;
"9" = 0;
};
};
width = 466;
}
);
leftKerningGroup = Euro;
rightKerningGroup = Euro;
unicode = 20AC;
},
{
glyphname = sterling;
lastChange = "2023-12-05 09:52:54 +0000";
layers = (
{
associatedMasterId = m002;
layerId = "45AD5A9B-F7CA-49CD-A39B-A57D29A170B5";
name = img;
width = 475;
},
{
layerId = m002;
paths = (
{
closed = 1;
nodes = (
"414 23 LINE",
"426 40 LINE",
"380 120 LINE",
"351 116 OFFCURVE",
"316 112 OFFCURVE",
"280 112 CURVE SMOOTH",
"147 112 LINE",
"161 103 LINE",
"176 138 OFFCURVE",
"184 189 OFFCURVE",
"184 245 CURVE SMOOTH",
"184 434 LINE SMOOTH",
"184 527 OFFCURVE",
"222 558 OFFCURVE",
"273 558 CURVE SMOOTH",
"300 558 OFFCURVE",
"309 548 OFFCURVE",
"309 526 CURVE SMOOTH",
"309 495 OFFCURVE",
"305 475 OFFCURVE",
"300 446 CURVE",
"395 424 LINE",
"401 450 OFFCURVE",
"405 468 OFFCURVE",
"405 495 CURVE SMOOTH",
"405 548 OFFCURVE",
"314 648 OFFCURVE",
"230 648 CURVE SMOOTH",
"141 648 OFFCURVE",
"85 582 OFFCURVE",
"85 465 CURVE SMOOTH",
"85 261 LINE SMOOTH",
"85 159 OFFCURVE",
"57 116 OFFCURVE",
"57 106 CURVE SMOOTH",
"57 91 OFFCURVE",
"99 44 OFFCURVE",
"125 23 CURVE"
);
},
{
closed = 1;
nodes = (
"367 265 LINE",
"372 279 LINE",
"319 342 LINE",
"5 342 LINE",
"0 328 LINE",
"48 265 LINE"
);
}
);
userData = {
com.hugojourdan.ColorFlow = {
"0" = 0;
"1" = 0;
"10" = 0;
"11" = 0;
"2" = 0;
"3" = 0;
"4" = 0;
"5" = 0;
"6" = 0;
"7" = 0;
"8" = 0;
"9" = 0;
};
};
width = 431;
}
);
leftKerningGroup = sterling;
rightKerningGroup = sterling;
unicode = 00A3;
},
{
glyphname = yen;
lastChange = "2023-12-05 09:52:54 +0000";
layers = (
{
components = (
{
name = Y;
transform = "{1, 0, 0, 1, 11, 0}";
}
);
layerId = m002;
paths = (
{
closed = 1;
nodes = (
"440 245 LINE",
"444 258 LINE",
"402 305 LINE",
"21 305 LINE",
"17 292 LINE",
"57 245 LINE"
);
},
{
closed = 1;
nodes = (
"448 119 LINE",
"452 132 LINE",
"410 179 LINE",
"29 179 LINE",
"25 166 LINE",
"65 119 LINE"
);
}
);
userData = {
com.hugojourdan.ColorFlow = {
"0" = 0;
"1" = 0;
"10" = 0;
"11" = 0;
"2" = 0;
"3" = 0;
"4" = 0;
"5" = 0;
"6" = 0;
"7" = 0;
"8" = 0;
"9" = 0;
};
};
width = 455;
}
);
leftKerningGroup = yen;
rightKerningGroup = yen;
unicode = 00A5;
},
{
glyphname = plusminus;
lastChange = "2023-12-05 09:52:54 +0000";
layers = (
{
associatedMasterId = m002;
layerId = "6D9269C4-1CFB-4905-B8AD-76EC0A4477DE";
name = img;
width = 430;
},
{
layerId = m002;
paths = (
{
closed = 1;
nodes = (
"277 196 LINE",
"277 347 LINE",
"428 347 LINE",
"432 360 LINE",
"382 429 LINE",
"277 429 LINE",
"277 544 LINE",
"193 584 LINE",
"180 580 LINE",
"180 429 LINE",
"34 429 LINE",
"30 416 LINE",
"80 347 LINE",
"180 347 LINE",
"180 232 LINE",
"264 192 LINE"
);
},
{
closed = 1;
nodes = (
"428 70 LINE",
"432 83 LINE",
"382 152 LINE",
"34 152 LINE",
"30 139 LINE",
"80 70 LINE"
);
}
);
userData = {
com.hugojourdan.ColorFlow = {
"0" = 0;
"1" = 0;
"10" = 0;
"11" = 0;
"2" = 0;
"3" = 0;
"4" = 0;
"5" = 0;
"6" = 0;
"7" = 0;
"8" = 0;
"9" = 0;
};
};
width = 457;
}
);
leftKerningGroup = plusminus;
rightKerningGroup = plusminus;
unicode = 00B1;
},
{
glyphname = dollar;
lastChange = "2023-12-05 09:52:54 +0000";
layers = (
{
components = (
{
name = S;
transform = "{0.9525, 0, 0, 0.9525, 1, 16}";
}
);
layerId = m002;
paths = (
{
closed = 1;
nodes = (
"245 -87 LINE",
"245 52 LINE",
"154 73 LINE",
"154 -51 LINE",
"232 -91 LINE"
);
},
{
closed = 1;
nodes = (
"262 699 LINE",
"184 739 LINE",
"171 735 LINE",
"171 616 LINE",
"262 595 LINE"
);
}
);
userData = {
com.hugojourdan.ColorFlow = {
"0" = 0;
"1" = 0;
"10" = 0;
"11" = 0;
"2" = 0;
"3" = 0;
"4" = 0;
"5" = 0;
"6" = 0;
"7" = 0;
"8" = 0;
"9" = 0;
};
};
width = 390;
}
);
leftKerningGroup = S;
leftMetricsKey = S;
rightKerningGroup = S;
rightMetricsKey = S;
unicode = 0024;
},
{
glyphname = A;
lastChange = "2023-12-05 09:52:54 +0000";
layers = (
{
anchors = (
{
name = bottom;
position = "{249, 9}";
},
{
name = top;
position = "{217, 639}";
}
);
components = (
{
name = "_mid-bar";
transform = "{1, 0, 0, 1, 82, -69}";
}
);
layerId = m002;
paths = (
{
closed = 1;
nodes = (
"158 30 LINE",
"105 55 LINE",
"121 30 LINE",
"179 261 OFFCURVE",
"232 457 OFFCURVE",
"262 566 CURVE",
"253 566 LINE",
"277 441 OFFCURVE",
"318 239 OFFCURVE",
"334 65 CURVE SMOOTH",
"335 54 OFFCURVE",
"401 20 OFFCURVE",
"462 0 CURVE",
"474 32 LINE",
"443 48 OFFCURVE",
"434 53 OFFCURVE",
"431 71 CURVE SMOOTH",
"427 89 OFFCURVE",
"369 392 OFFCURVE",
"330 555 CURVE",
"272 639 LINE",
"66 639 LINE",
"60 623 LINE",
"105 556 LINE",
"193 556 LINE",
"159 564 LINE",
"130 463 OFFCURVE",
"24 69 OFFCURVE",
"24 52 CURVE SMOOTH",
"24 43 OFFCURVE",
"96 15 OFFCURVE",
"146 -2 CURVE"
);
}
);
userData = {
com.hugojourdan.ColorFlow = {
"0" = 0;
"1" = 0;
"10" = 0;
"11" = 0;
"2" = 0;
"3" = 0;
"4" = 0;
"5" = 0;
"6" = 0;
"7" = 0;
"8" = 0;
"9" = 0;
};
};
width = 453;
}
);
leftKerningGroup = A;
rightKerningGroup = A;
unicode = 0041;
},
{
glyphname = B;
lastChange = "2023-12-05 09:52:54 +0000";
layers = (
{
anchors = (
{
name = bottom;
position = "{235, 9}";
},
{
name = top;
position = "{244, 639}";
}
);
components = (
{
name = _ascender2;
transform = "{1, 0, 0, 1, -1, 0}";
}
);
layerId = m002;
paths = (
{
closed = 1;
nodes = (
"374 14 OFFCURVE",
"423 61 OFFCURVE",
"423 154 CURVE SMOOTH",
"423 174 LINE SMOOTH",
"423 229 OFFCURVE",
"396 270 OFFCURVE",
"340 310 CURVE",
"321 290 LINE",
"374 311 OFFCURVE",
"404 369 OFFCURVE",
"404 443 CURVE SMOOTH",
"404 488 LINE SMOOTH",
"404 542 OFFCURVE",
"290 643 OFFCURVE",
"222 643 CURVE SMOOTH",
"183 643 OFFCURVE",
"151 639 OFFCURVE",
"89 639 CURVE",
"159 544 LINE",
"195 553 OFFCURVE",
"231 556 OFFCURVE",
"264 556 CURVE SMOOTH",
"294 556 OFFCURVE",
"305 545 OFFCURVE",
"305 505 CURVE SMOOTH",
"305 465 LINE SMOOTH",
"305 385 OFFCURVE",
"274 372 OFFCURVE",
"230 372 CURVE SMOOTH",
"204 372 OFFCURVE",
"172 372 OFFCURVE",
"143 372 CURVE",
"142 292 LINE",
"238 292 LINE SMOOTH",
"287 292 OFFCURVE",
"319 281 OFFCURVE",
"319 209 CURVE SMOOTH",
"319 193 LINE SMOOTH",
"319 134 OFFCURVE",
"292 95 OFFCURVE",
"211 95 CURVE SMOOTH",
"187 95 OFFCURVE",
"158 100 OFFCURVE",
"132 110 CURVE",
"159 79 LINE",
"164 116 OFFCURVE",
"169 161 OFFCURVE",
"169 228 CURVE",
"169 355 LINE",
"68 355 LINE",
"68 273 LINE SMOOTH",
"68 167 OFFCURVE",
"55 112 OFFCURVE",
"55 79 CURVE SMOOTH",
"55 56 OFFCURVE",
"172 14 OFFCURVE",
"293 14 CURVE SMOOTH"
);
}
);
userData = {
com.hugojourdan.ColorFlow = {
"0" = 0;
"1" = 0;
"10" = 0;
"11" = 0;
"2" = 0;
"3" = 0;
"4" = 0;
"5" = 0;
"6" = 0;
"7" = 0;
"8" = 0;
"9" = 0;
};
};
width = 442;
}
);
leftKerningGroup = B;
rightKerningGroup = B;
unicode = 0042;
},
{
glyphname = C;
lastChange = "2023-12-05 09:52:54 +0000";
layers = (
{
anchors = (
{
name = bottom;
position = "{229, 9}";
},
{
name = top;
position = "{222, 639}";
}
);
layerId = m002;
paths = (
{
closed = 1;
nodes = (
"333 8 OFFCURVE",
"384 56 OFFCURVE",
"412 141 CURVE",
"329 189 LINE",
"317 189 LINE",
"287 125 OFFCURVE",
"251 97 OFFCURVE",
"188 97 CURVE SMOOTH",
"164 97 OFFCURVE",
"152 107 OFFCURVE",
"152 132 CURVE SMOOTH",
"152 148 OFFCURVE",
"157 187 OFFCURVE",
"157 254 CURVE SMOOTH",
"157 447 LINE SMOOTH",
"157 526 OFFCURVE",
"194 555 OFFCURVE",
"253 555 CURVE SMOOTH",
"277 555 OFFCURVE",
"288 544 OFFCURVE",
"288 522 CURVE SMOOTH",
"288 483 OFFCURVE",
"282 447 OFFCURVE",
"277 415 CURVE",
"376 392 LINE",
"385 424 OFFCURVE",
"389 465 OFFCURVE",
"389 496 CURVE SMOOTH",
"389 550 OFFCURVE",
"286 648 OFFCURVE",
"207 648 CURVE SMOOTH",
"111 648 OFFCURVE",
"54 598 OFFCURVE",
"54 467 CURVE SMOOTH",
"54 294 LINE SMOOTH",
"54 234 OFFCURVE",
"47 176 OFFCURVE",
"47 142 CURVE SMOOTH",
"47 92 OFFCURVE",
"195 8 OFFCURVE",
"271 8 CURVE SMOOTH"
);
}
);
userData = {
com.hugojourdan.ColorFlow = {
"0" = 0;
"1" = 0;
"10" = 0;
"11" = 0;
"2" = 0;
"3" = 0;
"4" = 0;
"5" = 0;
"6" = 0;
"7" = 0;
"8" = 0;
"9" = 0;
};
};
width = 418;
}
);
leftKerningGroup = O;
rightKerningGroup = C;
unicode = 0043;
},
{
glyphname = D;
lastChange = "2023-12-05 09:52:54 +0000";
layers = (
{
anchors = (
{
name = bottom;
position = "{232, 9}";
},
{
name = top;
position = "{220, 639}";
}
);
components = (
{
name = _ascender2;
transform = "{1, 0, 0, 1, -1, 0}";
}
);
layerId = m002;
paths = (
{
closed = 1;
nodes = (
"343 14 OFFCURVE",
"416 46 OFFCURVE",
"416 208 CURVE SMOOTH",
"416 307 OFFCURVE",
"421 389 OFFCURVE",
"421 471 CURVE SMOOTH",
"421 534 OFFCURVE",
"314 641 OFFCURVE",
"241 641 CURVE SMOOTH",
"206 641 OFFCURVE",
"152 639 OFFCURVE",
"93 639 CURVE",
"175 542 LINE",
"211 550 OFFCURVE",
"238 552 OFFCURVE",
"274 552 CURVE SMOOTH",
"307 552 OFFCURVE",
"320 537 OFFCURVE",
"320 502 CURVE SMOOTH",
"320 459 OFFCURVE",
"313 353 OFFCURVE",
"313 251 CURVE SMOOTH",
"313 133 OFFCURVE",
"271 92 OFFCURVE",
"191 92 CURVE SMOOTH",
"174 92 OFFCURVE",
"165 94 OFFCURVE",
"154 98 CURVE",
"162 92 LINE",
"167 127 OFFCURVE",
"169 170 OFFCURVE",
"169 246 CURVE SMOOTH",
"169 375 LINE",
"68 375 LINE",
"68 271 LINE SMOOTH",
"68 167 OFFCURVE",
"57 97 OFFCURVE",
"57 63 CURVE SMOOTH",
"57 40 OFFCURVE",
"144 14 OFFCURVE",
"230 14 CURVE SMOOTH"
);
}
);
userData = {
com.hugojourdan.ColorFlow = {
"0" = 0;
"1" = 0;
"10" = 0;
"11" = 0;
"2" = 0;
"3" = 0;
"4" = 0;
"5" = 0;
"6" = 0;
"7" = 0;
"8" = 0;
"9" = 0;
};
};
width = 456;
}
);
leftKerningGroup = L;
leftMetricsKey = B;
rightKerningGroup = D;
unicode = 0044;
},
{
glyphname = E;
lastChange = "2023-12-07 12:54:16 +0000";
layers = (
{
anchors = (
{
name = bottom;
position = "{222, 9}";
},
{
name = top;
position = "{196, 639}";
}
);
components = (
{
name = _ascender2;
transform = "{1, 0, 0, 1, -1, 0}";
}
);
layerId = m002;
paths = (
{
closed = 1;
nodes = (
"291 20 OFFCURVE",
"370 20 OFFCURVE",
"386 20 CURVE",
"398 37 LINE",
"352 116 LINE",
"323 112 OFFCURVE",
"288 109 OFFCURVE",
"252 109 CURVE SMOOTH",
"204 109 OFFCURVE",
"167 113 OFFCURVE",
"145 119 CURVE",
"159 94 LINE",
"166 144 OFFCURVE",
"169 183 OFFCURVE",
"169 250 CURVE SMOOTH",
"169 402 LINE",
"68 402 LINE",
"68 275 LINE SMOOTH",
"68 164 OFFCURVE",
"53 88 OFFCURVE",
"53 62 CURVE SMOOTH",
"53 50 OFFCURVE",
"125 20 OFFCURVE",
"284 20 CURVE SMOOTH"
);
},
{
closed = 1;
nodes = (
"335 290 LINE",
"348 305 LINE",
"303 377 LINE",
"144 377 LINE",
"144 290 LINE"
);
},
{
closed = 1;
nodes = (
"340 524 LINE",
"389 567 LINE",
"333 639 LINE",
"115 639 LINE",
"136 556 LINE",
"252 556 LINE SMOOTH",
"288 556 OFFCURVE",
"304 548 OFFCURVE",
"319 524 CURVE"
);
}
);
userData = {
com.hugojourdan.ColorFlow = {
"0" = 0;
"1" = 0;
"10" = 0;
"11" = 0;
"2" = 0;
"3" = 0;
"4" = 0;
"5" = 0;
"6" = 0;
"7" = 0;
"8" = 0;
"9" = 0;
};
};
width = 396;
}
);
leftKerningGroup = L;
leftMetricsKey = D;
rightKerningGroup = E;
unicode = 0045;
},
{
glyphname = F;
lastChange = "2023-12-05 09:52:54 +0000";
layers = (
{
anchors = (
{
name = bottom;
position = "{211, 9}";
},
{
name = top;
position = "{221, 639}";
}
);
components = (
{
name = "_H-bottom";
transform = "{1, 0, 0, 1, 23, 30}";
},
{
name = "_joining-vert";
},
{
name = _ascender2;
transform = "{1, 0, 0, 1, 3, 0}";
}
);
layerId = m002;
paths = (
{
closed = 1;
nodes = (
"329 524 LINE",
"380 569 LINE",
"331 639 LINE",
"117 639 LINE",
"137 556 LINE",
"247 556 LINE SMOOTH",
"277 556 OFFCURVE",
"296 544 OFFCURVE",
"309 524 CURVE"
);
},
{
closed = 1;
nodes = (
"348 279 LINE",
"355 296 LINE",
"312 365 LINE",
"140 365 LINE",
"144 279 LINE"
);
}
);
userData = {
com.hugojourdan.ColorFlow = {
"0" = 0;
"1" = 0;
"10" = 0;
"11" = 0;
"2" = 0;
"3" = 0;
"4" = 0;
"5" = 0;
"6" = 0;
"7" = 0;
"8" = 0;
"9" = 0;
};
};
width = 385;
}
);
leftKerningGroup = H;
leftMetricsKey = H;
rightKerningGroup = F;
unicode = 0046;
},
{
glyphname = G;
lastChange = "2023-12-05 09:52:54 +0000";
layers = (
{
anchors = (
{
name = bottom;
position = "{222, 9}";
},
{
name = top;
position = "{232, 639}";
}
);
layerId = m002;
paths = (
{
closed = 1;
nodes = (
"461 22 LINE",
"416 53 OFFCURVE",
"402 76 OFFCURVE",
"402 101 CURVE SMOOTH",
"402 167 OFFCURVE",
"404 213 OFFCURVE",
"410 266 CURVE",
"350 346 LINE",
"208 346 LINE",
"200 329 LINE",
"250 261 LINE",
"329 261 LINE",
"312 278 LINE",
"308 262 OFFCURVE",
"306 233 OFFCURVE",
"306 185 CURVE SMOOTH",
"306 127 OFFCURVE",
"270 103 OFFCURVE",
"188 103 CURVE SMOOTH",
"164 103 OFFCURVE",
"151 112 OFFCURVE",
"151 131 CURVE SMOOTH",
"151 148 OFFCURVE",
"158 181 OFFCURVE",
"158 245 CURVE SMOOTH",
"158 438 LINE SMOOTH",
"158 539 OFFCURVE",
"200 555 OFFCURVE",
"265 555 CURVE SMOOTH",
"295 555 OFFCURVE",
"306 549 OFFCURVE",
"306 524 CURVE SMOOTH",
"306 497 OFFCURVE",
"302 467 OFFCURVE",
"293 431 CURVE",
"389 406 LINE",
"397 436 OFFCURVE",
"401 474 OFFCURVE",
"401 495 CURVE SMOOTH",
"401 553 OFFCURVE",
"294 648 OFFCURVE",
"213 648 CURVE SMOOTH",
"109 648 OFFCURVE",
"55 600 OFFCURVE",
"55 466 CURVE SMOOTH",
"55 279 LINE SMOOTH",
"55 220 OFFCURVE",
"49 168 OFFCURVE",
"49 135 CURVE SMOOTH",
"49 89 OFFCURVE",
"185 7 OFFCURVE",
"263 7 CURVE SMOOTH",
"322 7 OFFCURVE",
"368 27 OFFCURVE",
"390 70 CURVE",
"353 71 LINE",
"381 36 OFFCURVE",
"405 20 OFFCURVE",
"441 -6 CURVE"
);
}
);
userData = {
com.hugojourdan.ColorFlow = {
"0" = 0;
"1" = 0;
"10" = 0;
"11" = 0;
"2" = 0;
"3" = 0;
"4" = 0;
"5" = 0;
"6" = 0;
"7" = 0;
"8" = 0;
"9" = 0;
};
};
width = 443;
}
);
leftKerningGroup = O;
leftMetricsKey = O;
rightKerningGroup = G;
unicode = 0047;
},
{
glyphname = I;
lastChange = "2023-12-05 09:52:54 +0000";
layers = (
{
anchors = (
{
name = bottom;
position = "{132, 9}";
},
{
name = top;
position = "{124, 639}";
}
);
components = (
{
name = "_H-bottom";
transform = "{1, 0, 0, 1, 30, 29}";
},
{
name = ascender1;
transform = "{1, 0, 0, 1, 29, 27}";
}
);
layerId = m002;
paths = (
{
closed = 1;
nodes = (
"180 280 LINE",
"180 358 LINE",
"79 358 LINE",
"79 280 LINE"
);
}
);
userData = {
com.hugojourdan.ColorFlow = {
"0" = 0;
"1" = 0;
"10" = 0;
"11" = 0;
"2" = 0;
"3" = 0;
"4" = 0;
"5" = 0;
"6" = 0;
"7" = 0;
"8" = 0;
"9" = 0;
};
};
width = 251;
}
);
leftKerningGroup = H;
rightKerningGroup = H;
unicode = 0049;
},
{
glyphname = J;
lastChange = "2023-12-05 09:52:54 +0000";
layers = (
{
anchors = (
{
name = bottom;
position = "{192, 9}";
},
{
name = top;
position = "{202, 639}";
}
);
layerId = m002;
paths = (
{
closed = 1;
nodes = (
"296 10 OFFCURVE",
"334 56 OFFCURVE",
"334 152 CURVE SMOOTH",
"334 202 OFFCURVE",
"332 259 OFFCURVE",
"332 342 CURVE",
"231 342 LINE",
"231 269 OFFCURVE",
"233 234 OFFCURVE",
"233 201 CURVE SMOOTH",
"233 114 OFFCURVE",
"206 94 OFFCURVE",
"151 94 CURVE SMOOTH",
"127 94 OFFCURVE",
"118 103 OFFCURVE",
"118 129 CURVE SMOOTH",
"118 176 OFFCURVE",
"121 210 OFFCURVE",
"126 248 CURVE",
"27 266 LINE",
"19 221 OFFCURVE",
"17 186 OFFCURVE",
"17 144 CURVE SMOOTH",
"17 93 OFFCURVE",
"113 10 OFFCURVE",
"222 10 CURVE SMOOTH"
);
},
{
closed = 1;
nodes = (
"198 556 LINE",
"251 556 LINE",
"270 556 LINE",
"270 639 LINE",
"135 639 LINE",
"128 622 LINE",
"179 556 LINE"
);
},
{
closed = 1;
nodes = (
"332 336 LINE",
"332 384 LINE SMOOTH",
"332 458 OFFCURVE",
"338 518 OFFCURVE",
"350 561 CURVE",
"294 639 LINE",
"158 639 LINE",
"150 622 LINE",
"200 556 LINE",
"256 556 LINE",
"249 566 LINE",
"237 533 OFFCURVE",
"231 459 OFFCURVE",
"231 389 CURVE SMOOTH",
"231 336 LINE"
);
}
);
userData = {
com.hugojourdan.ColorFlow = {
"0" = 0;
"1" = 0;
"10" = 0;
"11" = 0;
"2" = 0;
"3" = 0;
"4" = 0;
"5" = 0;
"6" = 0;
"7" = 0;
"8" = 0;
"9" = 0;
};
};
width = 385;
}
);
leftKerningGroup = J;
rightKerningGroup = J;
unicode = 004A;
},
{
glyphname = K;
lastChange = "2023-12-05 09:52:54 +0000";
layers = (
{
anchors = (
{
name = bottom;
position = "{261, 9}";
},
{
name = top;
position = "{231, 639}";
}
);
components = (
{
name = "_H-bottom";
transform = "{1, 0, 0, 1, 22, 30}";
},
{
name = ascender1;
transform = "{1, 0, 0, 1, 21, 27}";
}
);
layerId = m002;
paths = (
{
closed = 1;
nodes = (
"466 24 LINE",
"431 44 OFFCURVE",
"418 55 OFFCURVE",
"418 78 CURVE SMOOTH",
"418 108 OFFCURVE",
"420 180 OFFCURVE",
"420 224 CURVE SMOOTH",
"420 253 OFFCURVE",
"380 298 OFFCURVE",
"273 342 CURVE",
"304 322 LINE",
"339 350 OFFCURVE",
"367 391 OFFCURVE",
"398 456 CURVE SMOOTH",
"429 521 OFFCURVE",
"432 533 OFFCURVE",
"445 562 CURVE",
"388 639 LINE",
"259 639 LINE",
"251 623 LINE",
"303 556 LINE",
"360 556 LINE",
"349 570 LINE",
"338 548 OFFCURVE",
"333 537 OFFCURVE",
"297 467 CURVE SMOOTH",
"260 395 OFFCURVE",
"231 382 OFFCURVE",
"199 382 CURVE SMOOTH",
"190 382 OFFCURVE",
"175 382 OFFCURVE",
"167 382 CURVE",
"167 308 LINE",
"182 308 OFFCURVE",
"214 303 OFFCURVE",
"238 296 CURVE SMOOTH",
"287 282 OFFCURVE",
"310 258 OFFCURVE",
"310 221 CURVE SMOOTH",
"310 188 OFFCURVE",
"308 120 OFFCURVE",
"308 92 CURVE SMOOTH",
"308 60 OFFCURVE",
"361 35 OFFCURVE",
"451 -4 CURVE"
);
},
{
closed = 1;
nodes = (
"172 313 LINE",
"172 402 LINE",
"71 402 LINE",
"71 313 LINE"
);
}
);
userData = {
com.hugojourdan.ColorFlow = {
"0" = 0;
"1" = 0;
"10" = 0;
"11" = 0;
"2" = 0;
"3" = 0;
"4" = 0;
"5" = 0;
"6" = 0;
"7" = 0;
"8" = 0;
"9" = 0;
};
};
width = 466;
}
);
leftKerningGroup = H;
leftMetricsKey = H;
rightKerningGroup = K;
unicode = 004B;
},
{
glyphname = L;
lastChange = "2023-12-05 09:52:54 +0000";
layers = (
{
anchors = (
{
name = bottom;
position = "{205, 9}";
},
{
name = top;
position = "{172, 639}";
}
);
layerId = m002;
paths = (
{
closed = 1;
nodes = (
"347 20 LINE",
"359 37 LINE",
"316 114 LINE",
"274 108 OFFCURVE",
"241 107 OFFCURVE",
"205 107 CURVE SMOOTH",
"178 107 OFFCURVE",
"155 109 OFFCURVE",
"142 113 CURVE",
"161 95 LINE",
"165 127 OFFCURVE",
"171 183 OFFCURVE",
"171 270 CURVE SMOOTH",
"171 334 LINE SMOOTH",
"171 440 OFFCURVE",
"178 521 OFFCURVE",
"193 562 CURVE",
"136 639 LINE",
"9 639 LINE",
"1 623 LINE",
"51 556 LINE",
"130 556 LINE",
"93 570 LINE",
"78 539 OFFCURVE",
"70 433 OFFCURVE",
"70 329 CURVE SMOOTH",
"70 279 LINE SMOOTH",
"70 144 OFFCURVE",
"53 88 OFFCURVE",
"53 62 CURVE SMOOTH",
"53 42 OFFCURVE",
"170 20 OFFCURVE",
"255 20 CURVE SMOOTH"
);
}
);
userData = {
com.hugojourdan.ColorFlow = {
"0" = 0;
"1" = 0;
"10" = 0;
"11" = 0;
"2" = 0;
"3" = 0;
"4" = 0;
"5" = 0;
"6" = 0;
"7" = 0;
"8" = 0;
"9" = 0;
};
};
width = 331;
}
);
leftKerningGroup = L;
leftMetricsKey = E;
rightKerningGroup = L;
unicode = 004C;
},
{
glyphname = M;
lastChange = "2023-12-05 09:52:54 +0000";
layers = (
{
anchors = (
{
name = bottom;
position = "{321, 9}";
},
{
name = top;
position = "{297, 639}";
}
);
layerId = m002;
paths = (
{
closed = 1;
nodes = (
"353 152 LINE",
"373 288 OFFCURVE",
"419 456 OFFCURVE",
"465 556 CURVE",
"462 560 LINE",
"450 515 OFFCURVE",
"446 447 OFFCURVE",
"446 370 CURVE SMOOTH",
"446 358 LINE",
"547 358 LINE",
"547 418 LINE SMOOTH",
"547 488 OFFCURVE",
"552 528 OFFCURVE",
"562 559 CURVE",
"505 639 LINE",
"413 639 LINE",
"355 547 OFFCURVE",
"310 424 OFFCURVE",
"289 295 CURVE",
"305 295 LINE",
"281 409 OFFCURVE",
"238 561 OFFCURVE",
"200 639 CURVE",
"10 639 LINE",
"1 621 LINE",
"46 556 LINE",
"108 556 LINE",
"90 569 LINE",
"74 520 OFFCURVE",
"66 453 OFFCURVE",
"66 332 CURVE",
"66 277 LINE",
"167 277 LINE",
"167 321 OFFCURVE",
"166 474 OFFCURVE",
"177 548 CURVE",
"171 547 LINE",
"203 455 OFFCURVE",
"242 306 OFFCURVE",
"256 186 CURVE",
"336 142 LINE"
);
},
{
closed = 1;
nodes = (
"200 31 LINE",
"173 47 OFFCURVE",
"156 60 OFFCURVE",
"156 70 CURVE SMOOTH",
"156 92 OFFCURVE",
"167 118 OFFCURVE",
"167 209 CURVE SMOOTH",
"167 315 LINE",
"66 315 LINE",
"66 223 LINE SMOOTH",
"66 148 OFFCURVE",
"53 95 OFFCURVE",
"53 80 CURVE SMOOTH",
"53 65 OFFCURVE",
"136 23 OFFCURVE",
"187 3 CURVE"
);
},
{
closed = 1;
nodes = (
"580 31 LINE",
"553 47 OFFCURVE",
"536 60 OFFCURVE",
"536 70 CURVE SMOOTH",
"536 92 OFFCURVE",
"547 118 OFFCURVE",
"547 209 CURVE SMOOTH",
"547 375 LINE",
"446 375 LINE",
"446 223 LINE SMOOTH",
"446 138 OFFCURVE",
"433 98 OFFCURVE",
"433 80 CURVE SMOOTH",
"433 65 OFFCURVE",
"516 23 OFFCURVE",
"567 3 CURVE"
);
}
);
userData = {
com.hugojourdan.ColorFlow = {
"0" = 0;
"1" = 0;
"10" = 0;
"11" = 0;
"2" = 0;
"3" = 0;
"4" = 0;
"5" = 0;
"6" = 0;
"7" = 0;
"8" = 0;
"9" = 0;
};
};
width = 603;
}
);
leftKerningGroup = H;
rightKerningGroup = H;
unicode = 004D;
script = latin;
category = Letter;
subCategory = Spacing;
},
{
glyphname = N;
lastChange = "2023-12-05 09:52:54 +0000";
layers = (
{
anchors = (
{
name = bottom;
position = "{268, 9}";
},
{
name = top;
position = "{241, 639}";
}
);
components = (
{
name = "_H-bottom";
transform = "{1, 0, 0, 1, 21, 29}";
}
);
layerId = m002;
paths = (
{
closed = 1;
nodes = (
"465 32 LINE",
"444 42 OFFCURVE",
"422 54 OFFCURVE",
"407 71 CURVE",
"407 53 LINE",
"426 53 LINE",
"430 73 OFFCURVE",
"436 136 OFFCURVE",
"436 233 CURVE SMOOTH",
"436 325 LINE",
"335 326 LINE",
"335 276 OFFCURVE",
"338 222 OFFCURVE",
"343 172 CURVE",
"348 178 LINE",
"201 533 LINE SMOOTH",
"170 608 OFFCURVE",
"146 639 OFFCURVE",
"138 639 CURVE SMOOTH",
"6 639 LINE",
"-1 623 LINE",
"48 556 LINE",
"110 556 LINE",
"90 578 LINE",
"78 551 OFFCURVE",
"70 493 OFFCURVE",
"70 372 CURVE",
"70 313 LINE",
"171 313 LINE",
"171 367 OFFCURVE",
"172 422 OFFCURVE",
"166 476 CURVE",
"163 454 LINE",
"314 86 LINE SMOOTH",
"321 70 OFFCURVE",
"375 32 OFFCURVE",
"450 1 CURVE"
);
},
{
closed = 1;
nodes = (
"436 308 LINE",
"436 423 LINE SMOOTH",
"436 502 OFFCURVE",
"445 539 OFFCURVE",
"455 564 CURVE",
"405 639 LINE",
"274 639 LINE",
"267 623 LINE",
"310 556 LINE",
"373 556 LINE",
"354 575 LINE",
"342 539 OFFCURVE",
"335 497 OFFCURVE",
"335 408 CURVE SMOOTH",
"335 308 LINE"
);
}
);
userData = {
com.hugojourdan.ColorFlow = {
"0" = 0;
"1" = 0;
"10" = 0;
"11" = 0;
"2" = 0;
"3" = 0;
"4" = 0;
"5" = 0;
"6" = 0;
"7" = 0;
"8" = 0;
"9" = 0;
};
};
width = 494;
}
);
leftKerningGroup = H;
rightKerningGroup = H;
unicode = 004E;
script = latin;
category = Letter;
subCategory = Spacing;
},
{
glyphname = O;
lastChange = "2023-12-05 09:52:54 +0000";
layers = (
{
anchors = (
{
name = bottom;
position = "{227, 9}";
},
{
name = top;
position = "{222, 639}";
}
);
layerId = m002;
paths = (
{
closed = 1;
nodes = (
"360 8 OFFCURVE",
"410 64 OFFCURVE",
"410 170 CURVE SMOOTH",
"410 266 OFFCURVE",
"414 435 OFFCURVE",
"414 485 CURVE SMOOTH",
"414 544 OFFCURVE",
"288 648 OFFCURVE",
"214 648 CURVE SMOOTH",
"105 648 OFFCURVE",
"55 609 OFFCURVE",
"55 501 CURVE SMOOTH",
"55 293 LINE SMOOTH",
"55 233 OFFCURVE",
"49 175 OFFCURVE",
"49 141 CURVE SMOOTH",
"49 91 OFFCURVE",
"196 8 OFFCURVE",
"266 8 CURVE SMOOTH"
);
},
{
closed = 1;
nodes = (
"166 99 OFFCURVE",
"152 109 OFFCURVE",
"152 128 CURVE SMOOTH",
"152 144 OFFCURVE",
"157 186 OFFCURVE",
"157 250 CURVE SMOOTH",
"157 463 LINE SMOOTH",
"157 526 OFFCURVE",
"176 555 OFFCURVE",
"271 555 CURVE SMOOTH",
"303 555 OFFCURVE",
"315 544 OFFCURVE",
"315 516 CURVE SMOOTH",
"315 474 OFFCURVE",
"308 288 OFFCURVE",
"308 241 CURVE SMOOTH",
"308 139 OFFCURVE",
"281 99 OFFCURVE",
"189 99 CURVE SMOOTH"
);
}
);
userData = {
com.hugojourdan.ColorFlow = {
"0" = 0;
"1" = 0;
"10" = 0;
"11" = 0;
"2" = 0;
"3" = 0;
"4" = 0;
"5" = 0;
"6" = 0;
"7" = 0;
"8" = 0;
"9" = 0;
};
};
width = 455;
}
);
leftKerningGroup = O;
rightKerningGroup = O;
unicode = 004F;
},
{
glyphname = P;
lastChange = "2023-12-05 09:52:54 +0000";
layers = (
{
anchors = (
{
name = bottom;
position = "{211, 9}";
},
{
name = top;
position = "{237, 639}";
}
);
components = (
{
name = "_H-bottom";
transform = "{1, 0, 0, 1, 19, 18}";
},
{
name = "_joining-vert";
transform = "{1, 0, 0, 1, -4, 0}";
},
{
name = _ascender2;
transform = "{1, 0, 0, 1, -1, 1}";
}
);
layerId = m002;
paths = (
{
closed = 1;
nodes = (
"369 225 OFFCURVE",
"404 276 OFFCURVE",
"404 380 CURVE SMOOTH",
"404 486 LINE SMOOTH",
"404 541 OFFCURVE",
"280 643 OFFCURVE",
"220 643 CURVE SMOOTH",
"198 643 OFFCURVE",
"151 640 OFFCURVE",
"99 640 CURVE",
"159 545 LINE",
"195 555 OFFCURVE",
"226 557 OFFCURVE",
"254 557 CURVE SMOOTH",
"292 557 OFFCURVE",
"303 543 OFFCURVE",
"303 507 CURVE SMOOTH",
"303 418 LINE SMOOTH",
"303 341 OFFCURVE",
"282 306 OFFCURVE",
"213 306 CURVE SMOOTH",
"179 306 OFFCURVE",
"157 311 OFFCURVE",
"136 319 CURVE",
"136 257 LINE",
"181 236 OFFCURVE",
"237 225 OFFCURVE",
"284 225 CURVE SMOOTH"
);
}
);
userData = {
com.hugojourdan.ColorFlow = {
"0" = 0;
"1" = 0;
"10" = 0;
"11" = 0;
"2" = 0;
"3" = 0;
"4" = 0;
"5" = 0;
"6" = 0;
"7" = 0;
"8" = 0;
"9" = 0;
};
};
width = 422;
}
);
leftKerningGroup = H;
leftMetricsKey = R;
rightKerningGroup = P;
unicode = 0050;
},
{
glyphname = Q;
lastChange = "2023-12-05 09:52:54 +0000";
layers = (
{
anchors = (
{
name = bottom;
position = "{228, 9}";
},
{
name = top;
position = "{242, 639}";
}
);
layerId = m002;
paths = (
{
closed = 1;
nodes = (
"516 -142 OFFCURVE",
"551 -136 OFFCURVE",
"575 -123 CURVE",
"535 -21 LINE",
"522 -21 LINE",
"492 -34 OFFCURVE",
"454 -42 OFFCURVE",
"401 -42 CURVE SMOOTH",
"329 -42 OFFCURVE",
"278 -19 OFFCURVE",
"232 20 CURVE",
"232 7 LINE",
"252 5 LINE",
"357 5 OFFCURVE",
"409 62 OFFCURVE",
"409 167 CURVE SMOOTH",
"409 263 OFFCURVE",
"414 434 OFFCURVE",
"414 484 CURVE SMOOTH",
"414 543 OFFCURVE",
"289 647 OFFCURVE",
"214 647 CURVE SMOOTH",
"103 647 OFFCURVE",
"55 605 OFFCURVE",
"55 493 CURVE SMOOTH",
"55 269 LINE SMOOTH",
"55 208 OFFCURVE",
"49 172 OFFCURVE",
"49 133 CURVE SMOOTH",
"49 82 OFFCURVE",
"294 -142 OFFCURVE",
"473 -142 CURVE SMOOTH"
);
},
{
closed = 1;
nodes = (
"164 100 OFFCURVE",
"151 109 OFFCURVE",
"151 128 CURVE SMOOTH",
"151 145 OFFCURVE",
"156 184 OFFCURVE",
"156 247 CURVE SMOOTH",
"156 462 LINE SMOOTH",
"156 525 OFFCURVE",
"171 554 OFFCURVE",
"270 554 CURVE SMOOTH",
"304 554 OFFCURVE",
"314 543 OFFCURVE",
"314 515 CURVE SMOOTH",
"314 473 OFFCURVE",
"307 286 OFFCURVE",
"307 239 CURVE SMOOTH",
"307 137 OFFCURVE",
"284 100 OFFCURVE",
"188 100 CURVE SMOOTH"
);
}
);
userData = {
com.hugojourdan.ColorFlow = {
"0" = 0;
"1" = 0;
"10" = 0;
"11" = 0;
"2" = 0;
"3" = 0;
"4" = 0;
"5" = 0;
"6" = 0;
"7" = 0;
"8" = 0;
"9" = 0;
};
};
width = 456;
}
);
leftKerningGroup = O;
leftMetricsKey = O;
rightKerningGroup = Q;
unicode = 0051;
},
{
glyphname = R;
lastChange = "2023-12-05 09:52:54 +0000";
layers = (
{
anchors = (
{
name = bottom;
position = "{258, 9}";
},
{
name = top;
position = "{206, 639}";
}
);
components = (
{
name = "_H-bottom";
transform = "{1, 0, 0, 1, 19, 27}";
},
{
name = _ascender2;
transform = "{1, 0, 0, 1, -1, 0}";
}
);
layerId = m002;
paths = (
{
closed = 1;
nodes = (
"454 26 LINE",
"419 45 OFFCURVE",
"406 55 OFFCURVE",
"406 77 CURVE SMOOTH",
"406 107 OFFCURVE",
"408 156 OFFCURVE",
"408 186 CURVE SMOOTH",
"408 222 OFFCURVE",
"374 255 OFFCURVE",
"306 287 CURVE",
"316 270 LINE",
"372 292 OFFCURVE",
"404 338 OFFCURVE",
"404 399 CURVE SMOOTH",
"404 488 LINE SMOOTH",
"404 542 OFFCURVE",
"288 643 OFFCURVE",
"215 643 CURVE SMOOTH",
"182 643 OFFCURVE",
"102 638 OFFCURVE",
"59 638 CURVE",
"159 544 LINE",
"195 553 OFFCURVE",
"231 556 OFFCURVE",
"265 556 CURVE SMOOTH",
"294 556 OFFCURVE",
"305 540 OFFCURVE",
"305 498 CURVE SMOOTH",
"305 443 LINE SMOOTH",
"305 382 OFFCURVE",
"278 348 OFFCURVE",
"231 348 CURVE SMOOTH",
"207 348 OFFCURVE",
"172 348 OFFCURVE",
"152 348 CURVE",
"152 264 LINE",
"187 264 LINE SMOOTH",
"268 264 OFFCURVE",
"304 238 OFFCURVE",
"304 193 CURVE SMOOTH",
"304 167 OFFCURVE",
"300 125 OFFCURVE",
"300 92 CURVE SMOOTH",
"300 59 OFFCURVE",
"349 35 OFFCURVE",
"439 -4 CURVE"
);
},
{
closed = 1;
nodes = (
"169 264 LINE",
"169 373 LINE",
"68 373 LINE",
"68 264 LINE"
);
}
);
userData = {
com.hugojourdan.ColorFlow = {
"0" = 0;
"1" = 0;
"10" = 0;
"11" = 0;
"2" = 0;
"3" = 0;
"4" = 0;
"5" = 0;
"6" = 0;
"7" = 0;
"8" = 0;
"9" = 0;
};
};
width = 447;
}
);
leftKerningGroup = H;
rightKerningGroup = R;
unicode = 0052;
},
{
glyphname = S;
lastChange = "2023-12-05 09:52:54 +0000";
layers = (
{
anchors = (
{
name = bottom;
position = "{221, 9}";
},
{
name = top;
position = "{203, 639}";
}
);
layerId = m002;
paths = (
{
closed = 1;
nodes = (
"334 8 OFFCURVE",
"382 81 OFFCURVE",
"382 205 CURVE SMOOTH",
"382 321 OFFCURVE",
"320 416 OFFCURVE",
"278 416 CURVE SMOOTH",
"245 416 OFFCURVE",
"177 385 OFFCURVE",
"138 385 CURVE SMOOTH",
"127 385 OFFCURVE",
"117 394 OFFCURVE",
"117 420 CURVE SMOOTH",
"117 496 OFFCURVE",
"160 537 OFFCURVE",
"233 537 CURVE SMOOTH",
"280 537 OFFCURVE",
"319 518 OFFCURVE",
"340 473 CURVE",
"374 482 LINE",
"344 594 OFFCURVE",
"289 647 OFFCURVE",
"202 647 CURVE SMOOTH",
"102 647 OFFCURVE",
"40 591 OFFCURVE",
"40 484 CURVE SMOOTH",
"40 388 OFFCURVE",
"111 269 OFFCURVE",
"165 269 CURVE SMOOTH",
"195 269 OFFCURVE",
"260 293 OFFCURVE",
"294 293 CURVE SMOOTH",
"309 293 OFFCURVE",
"316 279 OFFCURVE",
"316 255 CURVE SMOOTH",
"316 183 OFFCURVE",
"259 126 OFFCURVE",
"183 126 CURVE SMOOTH",
"121 126 OFFCURVE",
"88 160 OFFCURVE",
"57 234 CURVE",
"23 225 LINE",
"55 80 OFFCURVE",
"120 8 OFFCURVE",
"228 8 CURVE SMOOTH"
);
}
);
userData = {
com.hugojourdan.ColorFlow = {
"0" = 0;
"1" = 0;
"10" = 0;
"11" = 0;
"2" = 0;
"3" = 0;
"4" = 0;
"5" = 0;
"6" = 0;
"7" = 0;
"8" = 0;
"9" = 0;
};
};
width = 407;
}
);
leftKerningGroup = S;
rightKerningGroup = S;
unicode = 0053;
},
{
glyphname = T;
lastChange = "2023-12-05 09:52:54 +0000";
layers = (
{
anchors = (
{
name = bottom;
position = "{201, 9}";
},
{
name = top;
position = "{188, 639}";
}
);
components = (
{
name = "_H-bottom";
transform = "{1, 0, 0, 1, 90, 31}";
}
);
layerId = m002;
paths = (
{
closed = 1;
nodes = (
"240 288 LINE",
"240 441 LINE SMOOTH",
"240 496 OFFCURVE",
"248 542 OFFCURVE",
"261 566 CURVE",
"245 556 LINE",
"379 566 LINE",
"383 577 LINE",
"344 639 LINE",
"-15 639 LINE",
"-22 623 LINE",
"43 527 LINE",
"64 527 LINE",
"76 541 OFFCURVE",
"106 556 OFFCURVE",
"136 556 CURVE",
"189 556 LINE",
"154 568 LINE",
"144 539 OFFCURVE",
"139 493 OFFCURVE",
"139 436 CURVE SMOOTH",
"139 288 LINE"
);
},
{
closed = 1;
nodes = (
"350 527 LINE",
"400 569 LINE",
"352 639 LINE",
"128 639 LINE",
"157 556 LINE",
"261 556 LINE SMOOTH",
"293 556 OFFCURVE",
"308 551 OFFCURVE",
"333 527 CURVE"
);
}
);
userData = {
com.hugojourdan.ColorFlow = {
"0" = 0;
"1" = 0;
"10" = 0;
"11" = 0;
"2" = 0;
"3" = 0;
"4" = 0;
"5" = 0;
"6" = 0;
"7" = 0;
"8" = 0;
"9" = 0;
};
};
width = 403;
}
);
leftKerningGroup = T;
rightKerningGroup = T;
unicode = 0054;
script = latin;
category = Letter;
subCategory = Spacing;
},
{
glyphname = U;
lastChange = "2023-12-05 09:52:54 +0000";
layers = (
{
anchors = (
{
name = bottom;
position = "{231, 9}";
},
{
name = top;
position = "{221, 639}";
}
);
components = (
{
name = ascender1;
transform = "{1, 0, 0, 1, 16, 27}";
},
{
name = ascender1;
transform = "{1, 0, 0, 1, 259, 27}";
}
);
layerId = m002;
paths = (
{
closed = 1;
nodes = (
"361 8 OFFCURVE",
"410 64 OFFCURVE",
"410 170 CURVE SMOOTH",
"410 348 LINE",
"309 348 LINE",
"309 241 LINE SMOOTH",
"309 139 OFFCURVE",
"282 99 OFFCURVE",
"200 99 CURVE SMOOTH",
"177 99 OFFCURVE",
"163 109 OFFCURVE",
"163 128 CURVE SMOOTH",
"163 144 OFFCURVE",
"167 186 OFFCURVE",
"167 343 CURVE",
"66 343 LINE",
"66 233 OFFCURVE",
"60 175 OFFCURVE",
"60 141 CURVE SMOOTH",
"60 91 OFFCURVE",
"197 8 OFFCURVE",
"267 8 CURVE SMOOTH"
);
}
);
userData = {
com.hugojourdan.ColorFlow = {
"0" = 0;
"1" = 0;
"10" = 0;
"11" = 0;
"2" = 0;
"3" = 0;
"4" = 0;
"5" = 0;
"6" = 0;
"7" = 0;
"8" = 0;
"9" = 0;
};
};
width = 469;
}
);
leftKerningGroup = U;
rightKerningGroup = J;
rightMetricsKey = J;
unicode = 0055;
},
{
glyphname = V;
lastChange = "2023-12-05 09:52:54 +0000";
layers = (
{
anchors = (
{
name = bottom;
position = "{222, 9}";
},
{
name = top;
position = "{212, 639}";
}
);
layerId = m002;
paths = (
{
closed = 1;
nodes = (
"295 7 OFFCURVE",
"389 421 OFFCURVE",
"429 556 CURVE",
"373 639 LINE",
"239 639 LINE",
"232 623 LINE",
"277 556 LINE",
"329 556 LINE",
"323 570 LINE",
"278 397 OFFCURVE",
"235 224 OFFCURVE",
"203 113 CURVE",
"209 113 LINE",
"145 426 OFFCURVE",
"136 463 OFFCURVE",
"136 488 CURVE SMOOTH",
"136 524 OFFCURVE",
"146 541 OFFCURVE",
"175 556 CURVE",
"175 569 LINE",
"128 639 LINE",
"-8 639 LINE",
"-15 623 LINE",
"31 556 LINE",
"72 556 LINE",
"65 571 LINE",
"58 559 OFFCURVE",
"54 540 OFFCURVE",
"54 518 CURVE SMOOTH",
"54 475 OFFCURVE",
"67 421 OFFCURVE",
"132 117 CURVE SMOOTH",
"137 95 OFFCURVE",
"244 7 OFFCURVE",
"274 7 CURVE SMOOTH"
);
}
);
userData = {
com.hugojourdan.ColorFlow = {
"0" = 0;
"1" = 0;
"10" = 0;
"11" = 0;
"2" = 0;
"3" = 0;
"4" = 0;
"5" = 0;
"6" = 0;
"7" = 0;
"8" = 0;
"9" = 0;
};
};
width = 444;
}
);
leftKerningGroup = V;
rightKerningGroup = V;
unicode = 0056;
},
{
glyphname = W;
lastChange = "2023-12-05 09:52:54 +0000";
layers = (
{
anchors = (
{
name = bottom;
position = "{328, 9}";
},
{
name = top;
position = "{319, 639}";
}
);
guideLines = (
{
position = "{-252, 119}";
}
);
layerId = m002;
paths = (
{
closed = 1;
nodes = (
"544 3 OFFCURVE",
"616 436 OFFCURVE",
"647 562 CURVE",
"589 639 LINE",
"455 639 LINE",
"447 623 LINE",
"499 556 LINE",
"566 556 LINE",
"549 579 LINE",
"528 473 OFFCURVE",
"460 138 OFFCURVE",
"452 73 CURVE",
"472 55 LINE",
"435 243 OFFCURVE",
"408 433 OFFCURVE",
"386 557 CURVE",
"310 619 LINE",
"291 609 LINE",
"260 482 OFFCURVE",
"196 227 OFFCURVE",
"168 73 CURVE",
"184 73 LINE",
"144 414 OFFCURVE",
"137 473 OFFCURVE",
"137 482 CURVE SMOOTH",
"137 521 OFFCURVE",
"147 541 OFFCURVE",
"178 556 CURVE",
"180 569 LINE",
"129 639 LINE",
"-10 639 LINE",
"-18 623 LINE",
"32 556 LINE",
"73 556 LINE",
"66 573 LINE",
"56 555 OFFCURVE",
"51 535 OFFCURVE",
"51 494 CURVE SMOOTH",
"51 461 OFFCURVE",
"65 417 OFFCURVE",
"100 119 CURVE SMOOTH",
"103 95 OFFCURVE",
"213 9 OFFCURVE",
"237 9 CURVE SMOOTH",
"256 9 OFFCURVE",
"318 288 OFFCURVE",
"347 460 CURVE",
"331 460 LINE",
"352 316 OFFCURVE",
"367 214 OFFCURVE",
"385 114 CURVE SMOOTH",
"389 94 OFFCURVE",
"501 3 OFFCURVE",
"522 3 CURVE SMOOTH"
);
}
);
userData = {
com.hugojourdan.ColorFlow = {
"0" = 0;
"1" = 0;
"10" = 0;
"11" = 0;
"2" = 0;
"3" = 0;
"4" = 0;
"5" = 0;
"6" = 0;
"7" = 0;
"8" = 0;
"9" = 0;
};
};
width = 656;
}
);
leftKerningGroup = V;
rightKerningGroup = W;
unicode = 0057;
},
{
glyphname = X;
lastChange = "2023-12-05 09:52:54 +0000";
layers = (
{
anchors = (
{
name = bottom;
position = "{222, 9}";
},
{
name = top;
position = "{222, 639}";
}
);
layerId = m002;
paths = (
{
closed = 1;
nodes = (
"168 26 LINE",
"142 39 OFFCURVE",
"133 47 OFFCURVE",
"133 63 CURVE SMOOTH",
"133 83 OFFCURVE",
"180 184 OFFCURVE",
"262 289 CURVE SMOOTH",
"349 400 OFFCURVE",
"417 506 OFFCURVE",
"431 556 CURVE",
"375 639 LINE",
"250 639 LINE",
"243 623 LINE",
"294 557 LINE",
"348 557 LINE",
"328 579 LINE",
"308 532 OFFCURVE",
"265 455 OFFCURVE",
"181 353 CURVE SMOOTH",
"90 242 OFFCURVE",
"24 101 OFFCURVE",
"24 73 CURVE SMOOTH",
"24 59 OFFCURVE",
"49 39 OFFCURVE",
"155 -3 CURVE"
);
},
{
closed = 1;
nodes = (
"443 22 LINE",
"411 40 OFFCURVE",
"402 49 OFFCURVE",
"402 64 CURVE SMOOTH",
"402 166 OFFCURVE",
"370 242 OFFCURVE",
"271 327 CURVE",
"240 287 LINE",
"267 252 OFFCURVE",
"289 216 OFFCURVE",
"289 141 CURVE SMOOTH",
"289 94 OFFCURVE",
"287 81 OFFCURVE",
"287 71 CURVE SMOOTH",
"287 56 OFFCURVE",
"337 30 OFFCURVE",
"430 -8 CURVE"
);
},
{
closed = 1;
nodes = (
"204 341 LINE",
"174 382 OFFCURVE",
"162 428 OFFCURVE",
"162 478 CURVE SMOOTH",
"162 513 OFFCURVE",
"172 538 OFFCURVE",
"192 556 CURVE",
"194 567 LINE",
"135 639 LINE",
"2 639 LINE",
"-5 623 LINE",
"45 556 LINE",
"77 556 LINE",
"74 569 LINE",
"68 556 OFFCURVE",
"63 536 OFFCURVE",
"63 515 CURVE SMOOTH",
"63 434 OFFCURVE",
"109 350 OFFCURVE",
"187 302 CURVE"
);
}
);
userData = {
com.hugojourdan.ColorFlow = {
"0" = 0;
"1" = 0;
"10" = 0;
"11" = 0;
"2" = 0;
"3" = 0;
"4" = 0;
"5" = 0;
"6" = 0;
"7" = 0;
"8" = 0;
"9" = 0;
};
};
width = 444;
}
);
leftKerningGroup = X;
rightKerningGroup = X;
unicode = 0058;
},
{
glyphname = Y;
lastChange = "2023-12-05 09:52:54 +0000";
layers = (
{
anchors = (
{
name = bottom;
position = "{215, 9}";
},
{
name = top;
position = "{212, 639}";
}
);
layerId = m002;
paths = (
{
closed = 1;
nodes = (
"305 28 LINE",
"274 45 OFFCURVE",
"257 56 OFFCURVE",
"257 70 CURVE SMOOTH",
"257 88 OFFCURVE",
"267 132 OFFCURVE",
"267 256 CURVE",
"248 307 LINE",
"265 219 LINE",
"312 323 OFFCURVE",
"368 439 OFFCURVE",
"419 562 CURVE",
"366 639 LINE",
"233 639 LINE",
"225 623 LINE",
"274 556 LINE",
"317 556 LINE",
"313 570 LINE",
"261 456 OFFCURVE",
"224 368 OFFCURVE",
"191 293 CURVE",
"165 287 LINE",
"165 129 OFFCURVE",
"155 97 OFFCURVE",
"155 78 CURVE SMOOTH",
"155 54 OFFCURVE",
"204 31 OFFCURVE",
"292 -3 CURVE"
);
},
{
closed = 1;
nodes = (
"204 297 LINE",
"163 376 OFFCURVE",
"153 441 OFFCURVE",
"153 481 CURVE SMOOTH",
"153 516 OFFCURVE",
"160 538 OFFCURVE",
"180 556 CURVE",
"180 568 LINE",
"129 639 LINE",
"-10 639 LINE",
"-17 623 LINE",
"34 556 LINE",
"71 556 LINE",
"60 573 LINE",
"54 555 OFFCURVE",
"52 538 OFFCURVE",
"52 519 CURVE SMOOTH",
"52 439 OFFCURVE",
"95 355 OFFCURVE",
"172 253 CURVE"
);
}
);
userData = {
com.hugojourdan.ColorFlow = {
"0" = 0;
"1" = 0;
"10" = 0;
"11" = 0;
"2" = 0;
"3" = 0;
"4" = 0;
"5" = 0;
"6" = 0;
"7" = 0;
"8" = 0;
"9" = 0;
};
};
width = 430;
}
);
leftKerningGroup = Y;
rightKerningGroup = Y;
unicode = 0059;
},
{
glyphname = Z;
lastChange = "2023-12-05 09:52:54 +0000";
layers = (
{
anchors = (
{
name = bottom;
position = "{191, 9}";
},
{
name = top;
position = "{194, 639}";
}
);
layerId = m002;
paths = (
{
closed = 1;
nodes = (
"383 19 LINE",
"389 37 LINE",
"336 115 LINE",
"284 107 OFFCURVE",
"234 103 OFFCURVE",
"208 103 CURVE SMOOTH",
"95 103 LINE",
"129 94 LINE",
"146 133 OFFCURVE",
"173 186 OFFCURVE",
"240 307 CURVE SMOOTH",
"305 425 OFFCURVE",
"326 466 OFFCURVE",
"374 556 CURVE",
"317 639 LINE",
"28 639 LINE",
"21 622 LINE",
"83 529 LINE",
"102 529 LINE",
"141 550 OFFCURVE",
"174 556 OFFCURVE",
"219 556 CURVE SMOOTH",
"275 556 LINE",
"276 573 LINE",
"254 534 OFFCURVE",
"240 513 OFFCURVE",
"153 363 CURVE SMOOTH",
"77 232 OFFCURVE",
"41 158 OFFCURVE",
"15 102 CURVE",
"75 19 LINE"
);
}
);
userData = {
com.hugojourdan.ColorFlow = {
"0" = 0;
"1" = 0;
"10" = 0;
"11" = 0;
"2" = 0;
"3" = 0;
"4" = 0;
"5" = 0;
"6" = 0;
"7" = 0;
"8" = 0;
"9" = 0;
};
};
width = 382;
}
);
leftKerningGroup = Z;
rightKerningGroup = Z;
unicode = 005A;
},
{
glyphname = a;
lastChange = "2023-12-05 09:52:54 +0000";
layers = (
{
anchors = (
{
name = bottom;
position = "{211, 9}";
},
{
name = top;
position = "{190, 494}";
}
);
layerId = m002;
paths = (
{
closed = 1;
nodes = (
"406 33 LINE",
"368 48 OFFCURVE",
"358 57 OFFCURVE",
"358 97 CURVE SMOOTH",
"357 173 OFFCURVE",
"366 284 OFFCURVE",
"366 351 CURVE SMOOTH",
"366 398 OFFCURVE",
"265 494 OFFCURVE",
"213 494 CURVE SMOOTH",
"168 494 OFFCURVE",
"101 494 OFFCURVE",
"46 494 CURVE",
"38 478 LINE",
"103 383 LINE",
"122 383 LINE",
"154 401 OFFCURVE",
"187 409 OFFCURVE",
"239 409 CURVE SMOOTH",
"260 409 OFFCURVE",
"267 403 OFFCURVE",
"267 388 CURVE SMOOTH",
"267 349 OFFCURVE",
"262 223 OFFCURVE",
"262 181 CURVE SMOOTH",
"262 120 OFFCURVE",
"220 92 OFFCURVE",
"166 92 CURVE SMOOTH",
"149 92 OFFCURVE",
"135 96 OFFCURVE",
"135 130 CURVE SMOOTH",
"135 165 LINE SMOOTH",
"135 218 OFFCURVE",
"159 237 OFFCURVE",
"207 237 CURVE SMOOTH",
"226 237 OFFCURVE",
"251 236 OFFCURVE",
"266 231 CURVE",
"268 295 LINE",
"239 303 OFFCURVE",
"190 309 OFFCURVE",
"153 309 CURVE SMOOTH",
"80 309 OFFCURVE",
"37 279 OFFCURVE",
"37 201 CURVE SMOOTH",
"37 195 OFFCURVE",
"36 165 OFFCURVE",
"36 130 CURVE SMOOTH",
"36 74 OFFCURVE",
"187 9 OFFCURVE",
"233 9 CURVE SMOOTH",
"291 9 OFFCURVE",
"326 47 OFFCURVE",
"342 87 CURVE",
"284 56 LINE",
"317 34 OFFCURVE",
"349 20 OFFCURVE",
"393 5 CURVE"
);
}
);
userData = {
com.hugojourdan.ColorFlow = {
"0" = 0;
"1" = 0;
"10" = 0;
"11" = 0;
"2" = 0;
"3" = 0;
"4" = 0;
"5" = 0;
"6" = 0;
"7" = 0;
"8" = 0;
"9" = 0;
};
};
width = 413;
}
);
leftKerningGroup = a;
rightKerningGroup = a;
unicode = 0061;
},
{
glyphname = b;
lastChange = "2023-12-05 09:52:54 +0000";
layers = (
{
anchors = (
{
name = bottom;
position = "{212, 9}";
},
{
name = top;
position = "{82, 720}";
}
);
components = (
{
name = ascender3;
transform = "{1, 0, 0, 1, 6, 5}";
}
);
layerId = m002;
paths = (
{
closed = 1;
nodes = (
"340 5 OFFCURVE",
"389 64 OFFCURVE",
"389 152 CURVE SMOOTH",
"389 233 OFFCURVE",
"392 317 OFFCURVE",
"392 347 CURVE SMOOTH",
"392 391 OFFCURVE",
"288 501 OFFCURVE",
"235 501 CURVE SMOOTH",
"190 501 OFFCURVE",
"149 478 OFFCURVE",
"136 462 CURVE",
"152 313 LINE",
"152 384 OFFCURVE",
"179 411 OFFCURVE",
"255 411 CURVE SMOOTH",
"287 411 OFFCURVE",
"294 402 OFFCURVE",
"294 379 CURVE SMOOTH",
"294 336 OFFCURVE",
"290 268 OFFCURVE",
"290 189 CURVE SMOOTH",
"290 110 OFFCURVE",
"247 90 OFFCURVE",
"180 90 CURVE SMOOTH",
"159 90 OFFCURVE",
"148 99 OFFCURVE",
"148 111 CURVE SMOOTH",
"148 126 OFFCURVE",
"152 188 OFFCURVE",
"152 254 CURVE SMOOTH",
"152 447 LINE",
"53 447 LINE",
"53 279 LINE SMOOTH",
"52 198 OFFCURVE",
"46 155 OFFCURVE",
"46 114 CURVE SMOOTH",
"46 60 OFFCURVE",
"207 5 OFFCURVE",
"245 5 CURVE SMOOTH"
);
}
);
userData = {
com.hugojourdan.ColorFlow = {
"0" = 0;
"1" = 0;
"10" = 0;
"11" = 0;
"2" = 0;
"3" = 0;
"4" = 0;
"5" = 0;
"6" = 0;
"7" = 0;
"8" = 0;
"9" = 0;
};
};
width = 429;
}
);
leftKerningGroup = b;
rightKerningGroup = o;
rightMetricsKey = o;
unicode = 0062;
},
{
glyphname = c;
lastChange = "2023-12-05 09:52:54 +0000";
layers = (
{
anchors = (
{
name = bottom;
position = "{188, 9}";
},
{
name = top;
position = "{188, 494}";
}
);
layerId = m002;
paths = (
{
closed = 1;
nodes = (
"280 152 LINE",
"252 105 OFFCURVE",
"219 86 OFFCURVE",
"170 86 CURVE SMOOTH",
"150 86 OFFCURVE",
"135 94 OFFCURVE",
"135 109 CURVE SMOOTH",
"135 131 OFFCURVE",
"138 163 OFFCURVE",
"138 249 CURVE SMOOTH",
"138 329 LINE SMOOTH",
"138 388 OFFCURVE",
"168 415 OFFCURVE",
"224 415 CURVE SMOOTH",
"243 415 OFFCURVE",
"251 409 OFFCURVE",
"251 386 CURVE SMOOTH",
"251 363 OFFCURVE",
"248 332 OFFCURVE",
"243 302 CURVE",
"346 282 LINE",
"350 303 OFFCURVE",
"353 328 OFFCURVE",
"353 363 CURVE SMOOTH",
"353 427 OFFCURVE",
"241 502 OFFCURVE",
"186 502 CURVE SMOOTH",
"96 502 OFFCURVE",
"39 455 OFFCURVE",
"39 367 CURVE SMOOTH",
"39 285 LINE SMOOTH",
"39 245 OFFCURVE",
"37 164 OFFCURVE",
"37 139 CURVE SMOOTH",
"37 86 OFFCURVE",
"155 4 OFFCURVE",
"234 4 CURVE SMOOTH",
"297 4 OFFCURVE",
"349 38 OFFCURVE",
"376 101 CURVE",
"292 155 LINE"
);
}
);
userData = {
com.hugojourdan.ColorFlow = {
"0" = 0;
"1" = 0;
"10" = 0;
"11" = 0;
"2" = 0;
"3" = 0;
"4" = 0;
"5" = 0;
"6" = 0;
"7" = 0;
"8" = 0;
"9" = 0;
};
};
width = 388;
}
);
leftKerningGroup = c;
leftMetricsKey = o;
rightKerningGroup = c;
unicode = 0063;
},
{
glyphname = d;
lastChange = "2023-12-05 09:52:54 +0000";
layers = (
{
anchors = (
{
name = bottom;
position = "{232, 9}";
},
{
name = top;
position = "{325, 720}";
}
);
components = (
{
name = ascender3;
transform = "{1, 0, 0, 1, 233, 5}";
}
);
layerId = m002;
paths = (
{
closed = 1;
nodes = (
"424 30 LINE",
"385 46 OFFCURVE",
"377 54 OFFCURVE",
"376 94 CURVE SMOOTH",
"375 171 OFFCURVE",
"379 239 OFFCURVE",
"379 304 CURVE SMOOTH",
"379 423 LINE",
"280 423 LINE",
"280 185 LINE SMOOTH",
"280 125 OFFCURVE",
"246 90 OFFCURVE",
"174 90 CURVE SMOOTH",
"150 90 OFFCURVE",
"139 98 OFFCURVE",
"139 121 CURVE SMOOTH",
"143 323 LINE SMOOTH",
"144 389 OFFCURVE",
"183 409 OFFCURVE",
"239 409 CURVE SMOOTH",
"258 409 OFFCURVE",
"279 406 OFFCURVE",
"293 401 CURVE",
"299 458 LINE",
"272 477 OFFCURVE",
"228 497 OFFCURVE",
"193 497 CURVE SMOOTH",
"100 497 OFFCURVE",
"45 459 OFFCURVE",
"45 364 CURVE SMOOTH",
"45 231 OFFCURVE",
"39 163 OFFCURVE",
"39 148 CURVE SMOOTH",
"39 75 OFFCURVE",
"174 5 OFFCURVE",
"238 5 CURVE SMOOTH",
"287 5 OFFCURVE",
"311 18 OFFCURVE",
"343 49 CURVE",
"318 43 LINE",
"353 24 OFFCURVE",
"375 13 OFFCURVE",
"409 2 CURVE"
);
}
);
userData = {
com.hugojourdan.ColorFlow = {
"0" = 0;
"1" = 0;
"10" = 0;
"11" = 0;
"2" = 0;
"3" = 0;
"4" = 0;
"5" = 0;
"6" = 0;
"7" = 0;
"8" = 0;
"9" = 0;
};
};
width = 443;
}
);
leftKerningGroup = c;
rightKerningGroup = d;
unicode = 0064;
},
{
glyphname = e;
lastChange = "2023-12-05 09:52:54 +0000";
layers = (
{
anchors = (
{
name = bottom;
position = "{206, 9}";
},
{
name = top;
position = "{199, 494}";
}
);
layerId = m002;
paths = (
{
closed = 1;
nodes = (
"292 7 OFFCURVE",
"349 25 OFFCURVE",
"375 49 CURVE",
"321 131 LINE",
"306 131 LINE",
"267 105 OFFCURVE",
"214 93 OFFCURVE",
"173 93 CURVE SMOOTH",
"145 93 OFFCURVE",
"136 101 OFFCURVE",
"136 123 CURVE SMOOTH",
"136 135 OFFCURVE",
"141 305 OFFCURVE",
"141 338 CURVE SMOOTH",
"141 396 OFFCURVE",
"174 415 OFFCURVE",
"227 415 CURVE SMOOTH",
"253 415 OFFCURVE",
"259 402 OFFCURVE",
"259 388 CURVE SMOOTH",
"259 368 OFFCURVE",
"259 349 OFFCURVE",
"259 334 CURVE SMOOTH",
"259 294 OFFCURVE",
"245 275 OFFCURVE",
"207 275 CURVE SMOOTH",
"174 275 OFFCURVE",
"144 277 OFFCURVE",
"125 280 CURVE",
"125 216 LINE",
"161 208 OFFCURVE",
"224 201 OFFCURVE",
"266 201 CURVE SMOOTH",
"326 201 OFFCURVE",
"356 226 OFFCURVE",
"356 282 CURVE SMOOTH",
"356 307 OFFCURVE",
"356 343 OFFCURVE",
"356 364 CURVE SMOOTH",
"356 416 OFFCURVE",
"245 500 OFFCURVE",
"186 500 CURVE SMOOTH",
"90 500 OFFCURVE",
"44 458 OFFCURVE",
"44 370 CURVE SMOOTH",
"44 260 OFFCURVE",
"37 178 OFFCURVE",
"37 146 CURVE SMOOTH",
"37 81 OFFCURVE",
"182 7 OFFCURVE",
"246 7 CURVE SMOOTH"
);
}
);
userData = {
com.hugojourdan.ColorFlow = {
"0" = 0;
"1" = 0;
"10" = 0;
"11" = 0;
"2" = 0;
"3" = 0;
"4" = 0;
"5" = 0;
"6" = 0;
"7" = 0;
"8" = 0;
"9" = 0;
};
};
width = 394;
}
);
leftKerningGroup = c;
rightKerningGroup = e;
unicode = 0065;
script = latin;
category = Letter;
subCategory = Spacing;
},
{
glyphname = g;
lastChange = "2023-12-05 09:52:54 +0000";
layers = (
{
anchors = (
{
name = bottom;
position = "{208, -188}";
},
{
name = top;
position = "{204, 494}";
}
);
layerId = m002;
paths = (
{
closed = 1;
nodes = (
"307 -192 OFFCURVE",
"380 -149 OFFCURVE",
"380 -73 CURVE SMOOTH",
"380 -20 OFFCURVE",
"330 96 OFFCURVE",
"277 96 CURVE SMOOTH",
"245 96 OFFCURVE",
"181 72 OFFCURVE",
"136 72 CURVE SMOOTH",
"122 72 OFFCURVE",
"116 78 OFFCURVE",
"116 88 CURVE SMOOTH",
"116 108 OFFCURVE",
"132 123 OFFCURVE",
"188 133 CURVE SMOOTH",
"231 141 LINE SMOOTH",
"331 160 OFFCURVE",
"350 190 OFFCURVE",
"350 283 CURVE SMOOTH",
"350 330 LINE SMOOTH",
"350 374 OFFCURVE",
"320 412 OFFCURVE",
"279 430 CURVE",
"230 419 LINE",
"252 415 OFFCURVE",
"261 394 OFFCURVE",
"261 340 CURVE SMOOTH",
"261 307 LINE SMOOTH",
"261 246 OFFCURVE",
"234 234 OFFCURVE",
"196 228 CURVE SMOOTH",
"154 221 LINE SMOOTH",
"97 212 OFFCURVE",
"41 186 OFFCURVE",
"41 126 CURVE SMOOTH",
"41 81 OFFCURVE",
"118 -19 OFFCURVE",
"174 -19 CURVE SMOOTH",
"213 -19 OFFCURVE",
"268 2 OFFCURVE",
"299 2 CURVE SMOOTH",
"311 2 OFFCURVE",
"316 -5 OFFCURVE",
"316 -16 CURVE SMOOTH",
"316 -57 OFFCURVE",
"249 -91 OFFCURVE",
"170 -91 CURVE SMOOTH",
"100 -91 OFFCURVE",
"68 -58 OFFCURVE",
"44 3 CURVE",
"11 -7 LINE",
"47 -139 OFFCURVE",
"106 -192 OFFCURVE",
"209 -192 CURVE SMOOTH"
);
},
{
closed = 1;
nodes = (
"169 221 LINE",
"143 228 OFFCURVE",
"132 254 OFFCURVE",
"132 293 CURVE SMOOTH",
"132 330 LINE SMOOTH",
"132 390 OFFCURVE",
"144 412 OFFCURVE",
"194 416 CURVE SMOOTH",
"264 421 LINE SMOOTH",
"326 425 OFFCURVE",
"366 453 OFFCURVE",
"376 523 CURVE",
"307 563 LINE",
"295 556 LINE",
"288 520 OFFCURVE",
"270 506 OFFCURVE",
"223 502 CURVE SMOOTH",
"152 496 LINE SMOOTH",
"69 489 OFFCURVE",
"39 445 OFFCURVE",
"39 362 CURVE SMOOTH",
"39 315 LINE SMOOTH",
"39 258 OFFCURVE",
"68 221 OFFCURVE",
"131 200 CURVE"
);
}
);
userData = {
com.hugojourdan.ColorFlow = {
"0" = 0;
"1" = 0;
"10" = 0;
"11" = 0;
"2" = 0;
"3" = 0;
"4" = 0;
"5" = 0;
"6" = 0;
"7" = 0;
"8" = 0;
"9" = 0;
};
};
width = 401;
}
);
leftKerningGroup = g;
rightKerningGroup = g;
unicode = 0067;
script = latin;
category = Letter;
subCategory = Spacing;
},
{
glyphname = h;
lastChange = "2023-12-05 09:52:54 +0000";
layers = (
{
anchors = (
{
name = bottom;
position = "{242, 9}";
},
{
name = top;
position = "{85, 720}";
}
);
components = (
{
name = bottom;
transform = "{1, 0, 0, 1, 6, 33}";
},
{
name = bottom;
transform = "{1, 0, 0, 1, 237, 33}";
},
{
name = ascender3;
transform = "{1, 0, 0, 1, 9, 5}";
}
);
layerId = m002;
paths = (
{
closed = 1;
nodes = (
"386 176 LINE",
"386 242 LINE SMOOTH",
"386 273 OFFCURVE",
"390 331 OFFCURVE",
"390 364 CURVE SMOOTH",
"390 401 OFFCURVE",
"302 501 OFFCURVE",
"244 501 CURVE SMOOTH",
"193 501 OFFCURVE",
"143 474 OFFCURVE",
"136 431 CURVE",
"155 304 LINE",
"155 370 OFFCURVE",
"189 411 OFFCURVE",
"264 411 CURVE SMOOTH",
"286 411 OFFCURVE",
"291 403 OFFCURVE",
"291 377 CURVE SMOOTH",
"291 335 OFFCURVE",
"287 275 OFFCURVE",
"287 232 CURVE",
"287 176 LINE"
);
},
{
closed = 1;
nodes = (
"155 181 LINE",
"155 448 LINE",
"56 448 LINE",
"56 181 LINE"
);
}
);
userData = {
com.hugojourdan.ColorFlow = {
"0" = 0;
"1" = 0;
"10" = 0;
"11" = 0;
"2" = 0;
"3" = 0;
"4" = 0;
"5" = 0;
"6" = 0;
"7" = 0;
"8" = 0;
"9" = 0;
};
};
width = 441;
}
);
leftKerningGroup = h;
rightKerningGroup = n;
rightMetricsKey = n;
unicode = 0068;
},
{
glyphname = k;
lastChange = "2023-12-05 09:52:54 +0000";
layers = (
{
anchors = (
{
name = bottom;
position = "{226, 9}";
},
{
name = top;
position = "{100, 720}";
}
);
components = (
{
name = bottom;
transform = "{1, 0, 0, 1, 6, 31}";
},
{
name = ascender3;
transform = "{1, 0, 0, 1, 9, 5}";
}
);
layerId = m002;
paths = (
{
closed = 1;
nodes = (
"426 19 LINE",
"394 40 OFFCURVE",
"379 51 OFFCURVE",
"379 74 CURVE SMOOTH",
"379 98 OFFCURVE",
"382 152 OFFCURVE",
"382 178 CURVE SMOOTH",
"382 215 OFFCURVE",
"323 249 OFFCURVE",
"269 271 CURVE",
"280 258 LINE",
"299 269 OFFCURVE",
"324 294 OFFCURVE",
"349 328 CURVE SMOOTH",
"366 351 OFFCURVE",
"382 384 OFFCURVE",
"393 409 CURVE",
"337 494 LINE",
"225 494 LINE",
"218 478 LINE",
"265 409 LINE",
"302 409 LINE",
"308 422 LINE",
"303 410 OFFCURVE",
"291 387 OFFCURVE",
"268 361 CURVE SMOOTH",
"241 330 OFFCURVE",
"222 316 OFFCURVE",
"180 316 CURVE SMOOTH",
"164 316 OFFCURVE",
"155 318 OFFCURVE",
"149 321 CURVE",
"149 249 LINE",
"187 244 LINE SMOOTH",
"253 235 OFFCURVE",
"282 211 OFFCURVE",
"282 191 CURVE SMOOTH",
"282 157 OFFCURVE",
"278 98 OFFCURVE",
"278 73 CURVE SMOOTH",
"278 53 OFFCURVE",
"324 33 OFFCURVE",
"410 -7 CURVE"
);
},
{
closed = 1;
nodes = (
"155 170 LINE",
"155 437 LINE",
"56 437 LINE",
"56 170 LINE"
);
}
);
userData = {
com.hugojourdan.ColorFlow = {
"0" = 0;
"1" = 0;
"10" = 0;
"11" = 0;
"2" = 0;
"3" = 0;
"4" = 0;
"5" = 0;
"6" = 0;
"7" = 0;
"8" = 0;
"9" = 0;
};
};
width = 433;
}
);
leftKerningGroup = h;
leftMetricsKey = h;
rightKerningGroup = k;
unicode = 006B;
},
{
glyphname = l;
lastChange = "2023-12-05 09:52:54 +0000";
layers = (
{
anchors = (
{
name = bottom;
position = "{113, 9}";
},
{
name = top;
position = "{100, 720}";
}
);
components = (
{
name = bottom;
transform = "{1, 0, 0, 1, 6, 31}";
},
{
name = ascender3;
transform = "{1, 0, 0, 1, 9, 5}";
}
);
layerId = m002;
paths = (
{
closed = 1;
nodes = (
"155 171 LINE",
"155 431 LINE",
"56 431 LINE",
"56 171 LINE"
);
}
);
userData = {
com.hugojourdan.ColorFlow = {
"0" = 0;
"1" = 0;
"10" = 0;
"11" = 0;
"2" = 0;
"3" = 0;
"4" = 0;
"5" = 0;
"6" = 0;
"7" = 0;
"8" = 0;
"9" = 0;
};
};
width = 217;
}
);
leftKerningGroup = h;
leftMetricsKey = h;
rightKerningGroup = l;
unicode = 006C;
},
{
glyphname = m;
lastChange = "2023-12-05 09:52:54 +0000";
layers = (
{
anchors = (
{
name = bottom;
position = "{352, 9}";
},
{
name = top;
position = "{334, 494}";
}
);
components = (
{
name = bottom;
transform = "{1, 0, 0, 1, 14, 33}";
},
{
name = bottom;
transform = "{1, 0, 0, 1, 231, 33}";
},
{
name = spur1;
transform = "{1, 0, 0, 1, 17, -10}";
},
{
name = bottom;
transform = "{1, 0, 0, 1, 448, 33}";
}
);
layerId = m002;
paths = (
{
closed = 1;
nodes = (
"597 176 LINE",
"597 242 LINE SMOOTH",
"597 273 OFFCURVE",
"601 331 OFFCURVE",
"601 364 CURVE SMOOTH",
"601 401 OFFCURVE",
"511 501 OFFCURVE",
"458 501 CURVE SMOOTH",
"441 501 LINE SMOOTH",
"396 501 OFFCURVE",
"353 484 OFFCURVE",
"325 436 CURVE",
"380 313 LINE",
"380 379 OFFCURVE",
"410 411 OFFCURVE",
"475 411 CURVE SMOOTH",
"497 411 OFFCURVE",
"502 403 OFFCURVE",
"502 377 CURVE SMOOTH",
"502 335 OFFCURVE",
"498 275 OFFCURVE",
"498 232 CURVE",
"498 176 LINE"
);
},
{
closed = 1;
nodes = (
"163 184 LINE",
"163 308 LINE",
"64 308 LINE",
"64 184 LINE"
);
},
{
closed = 1;
nodes = (
"380 176 LINE",
"380 242 LINE SMOOTH",
"380 273 OFFCURVE",
"381 331 OFFCURVE",
"381 364 CURVE SMOOTH",
"381 401 OFFCURVE",
"293 501 OFFCURVE",
"239 501 CURVE SMOOTH",
"225 501 LINE SMOOTH",
"182 501 OFFCURVE",
"146 481 OFFCURVE",
"119 440 CURVE",
"163 304 LINE",
"163 371 OFFCURVE",
"192 411 OFFCURVE",
"257 411 CURVE SMOOTH",
"279 411 OFFCURVE",
"284 403 OFFCURVE",
"284 377 CURVE SMOOTH",
"284 335 OFFCURVE",
"281 275 OFFCURVE",
"281 232 CURVE",
"281 176 LINE"
);
}
);
userData = {
com.hugojourdan.ColorFlow = {
"0" = 0;
"1" = 0;
"10" = 0;
"11" = 0;
"2" = 0;
"3" = 0;
"4" = 0;
"5" = 0;
"6" = 0;
"7" = 0;
"8" = 0;
"9" = 0;
};
};
width = 646;
}
);
leftKerningGroup = n;
leftMetricsKey = n;
rightKerningGroup = n;
unicode = 006D;
},
{
glyphname = n;
lastChange = "2023-12-05 09:52:54 +0000";
layers = (
{
anchors = (
{
name = bottom;
position = "{245, 7}";
},
{
name = top;
position = "{210, 492}";
}
);
components = (
{
name = bottom;
transform = "{1, 0, 0, 1, 14, 33}";
},
{
name = bottom;
transform = "{1, 0, 0, 1, 246, 33}";
},
{
name = spur1;
transform = "{1, 0, 0, 1, 17, -10}";
}
);
layerId = m002;
paths = (
{
closed = 1;
nodes = (
"395 176 LINE",
"395 242 LINE SMOOTH",
"395 273 OFFCURVE",
"399 331 OFFCURVE",
"399 364 CURVE SMOOTH",
"399 401 OFFCURVE",
"305 501 OFFCURVE",
"253 501 CURVE SMOOTH",
"232 501 LINE SMOOTH",
"193 501 OFFCURVE",
"146 481 OFFCURVE",
"122 440 CURVE",
"163 304 LINE",
"163 370 OFFCURVE",
"198 411 OFFCURVE",
"273 411 CURVE SMOOTH",
"295 411 OFFCURVE",
"300 403 OFFCURVE",
"300 377 CURVE SMOOTH",
"300 335 OFFCURVE",
"296 275 OFFCURVE",
"296 232 CURVE",
"296 176 LINE"
);
},
{
closed = 1;
nodes = (
"163 184 LINE",
"163 308 LINE",
"64 308 LINE",
"64 184 LINE"
);
}
);
userData = {
com.hugojourdan.ColorFlow = {
"0" = 0;
"1" = 0;
"10" = 0;
"11" = 0;
"2" = 0;
"3" = 0;
"4" = 0;
"5" = 0;
"6" = 0;
"7" = 0;
"8" = 0;
"9" = 0;
};
};
width = 450;
}
);
leftKerningGroup = n;
rightKerningGroup = n;
unicode = 006E;
},
{
glyphname = o;
lastChange = "2023-12-05 09:52:54 +0000";
layers = (
{
anchors = (
{
name = bottom;
position = "{212, 9}";
},
{
name = top;
position = "{205, 494}";
}
);
layerId = m002;
paths = (
{
closed = 1;
nodes = (
"331 5 OFFCURVE",
"377 64 OFFCURVE",
"377 150 CURVE SMOOTH",
"377 242 OFFCURVE",
"380 294 OFFCURVE",
"380 345 CURVE SMOOTH",
"380 406 OFFCURVE",
"272 499 OFFCURVE",
"208 499 CURVE SMOOTH",
"98 499 OFFCURVE",
"44 456 OFFCURVE",
"44 363 CURVE SMOOTH",
"44 247 OFFCURVE",
"37 164 OFFCURVE",
"37 148 CURVE SMOOTH",
"37 75 OFFCURVE",
"171 5 OFFCURVE",
"236 5 CURVE SMOOTH"
);
},
{
closed = 1;
nodes = (
"149 90 OFFCURVE",
"137 98 OFFCURVE",
"137 113 CURVE SMOOTH",
"137 136 OFFCURVE",
"141 195 OFFCURVE",
"141 323 CURVE SMOOTH",
"141 391 OFFCURVE",
"180 411 OFFCURVE",
"252 411 CURVE SMOOTH",
"276 411 OFFCURVE",
"282 400 OFFCURVE",
"282 377 CURVE SMOOTH",
"282 349 OFFCURVE",
"278 245 OFFCURVE",
"278 181 CURVE SMOOTH",
"278 121 OFFCURVE",
"245 90 OFFCURVE",
"172 90 CURVE SMOOTH"
);
}
);
userData = {
com.hugojourdan.ColorFlow = {
"0" = 0;
"1" = 0;
"10" = 0;
"11" = 0;
"2" = 0;
"3" = 0;
"4" = 0;
"5" = 0;
"6" = 0;
"7" = 0;
"8" = 0;
"9" = 0;
};
};
width = 417;
}
);
leftKerningGroup = c;
rightKerningGroup = o;
unicode = 006F;
},
{
glyphname = p;
lastChange = "2023-12-05 09:52:54 +0000";
layers = (
{
anchors = (
{
name = bottom;
position = "{114, -188}";
},
{
name = top;
position = "{228, 494}";
}
);
components = (
{
name = bottom;
transform = "{1, 0, 0, 1, 14, -175}";
},
{
name = spur1;
transform = "{1, 0, 0, 1, 17, -10}";
}
);
layerId = m002;
paths = (
{
closed = 1;
nodes = (
"351 9 OFFCURVE",
"400 64 OFFCURVE",
"400 151 CURVE SMOOTH",
"400 243 OFFCURVE",
"402 311 OFFCURVE",
"402 349 CURVE SMOOTH",
"402 391 OFFCURVE",
"311 501 OFFCURVE",
"252 501 CURVE SMOOTH",
"233 501 LINE SMOOTH",
"184 501 OFFCURVE",
"139 475 OFFCURVE",
"122 440 CURVE",
"163 327 LINE",
"163 392 OFFCURVE",
"206 408 OFFCURVE",
"276 408 CURVE SMOOTH",
"302 408 OFFCURVE",
"304 390 OFFCURVE",
"304 371 CURVE SMOOTH",
"304 331 OFFCURVE",
"301 251 OFFCURVE",
"301 187 CURVE SMOOTH",
"301 127 OFFCURVE",
"273 92 OFFCURVE",
"201 92 CURVE SMOOTH",
"179 92 OFFCURVE",
"157 96 OFFCURVE",
"143 103 CURVE",
"143 51 LINE",
"172 32 OFFCURVE",
"219 9 OFFCURVE",
"274 9 CURVE SMOOTH"
);
},
{
closed = 1;
nodes = (
"163 -30 LINE",
"163 303 LINE",
"64 303 LINE",
"64 -30 LINE"
);
}
);
userData = {
com.hugojourdan.ColorFlow = {
"0" = 0;
"1" = 0;
"10" = 0;
"11" = 0;
"2" = 0;
"3" = 0;
"4" = 0;
"5" = 0;
"6" = 0;
"7" = 0;
"8" = 0;
"9" = 0;
};
};
width = 440;
}
);
leftKerningGroup = p;
rightKerningGroup = o;
unicode = 0070;
},
{
glyphname = q;
lastChange = "2023-12-05 09:52:54 +0000";
layers = (
{
anchors = (
{
name = bottom;
position = "{326, -188}";
},
{
name = top;
position = "{221, 494}";
}
);
components = (
{
name = bottom;
transform = "{1, 0, 0, 1, 227, -176}";
},
{
name = spur1.2;
transform = "{1, 0, 0, 1, 229, -10}";
}
);
layerId = m002;
paths = (
{
closed = 1;
nodes = (
"257 9 OFFCURVE",
"277 14 OFFCURVE",
"299 26 CURVE",
"277 189 LINE",
"277 129 OFFCURVE",
"239 94 OFFCURVE",
"173 94 CURVE SMOOTH",
"149 94 OFFCURVE",
"137 102 OFFCURVE",
"137 117 CURVE SMOOTH",
"137 140 OFFCURVE",
"142 199 OFFCURVE",
"141 321 CURVE SMOOTH",
"140 395 OFFCURVE",
"176 409 OFFCURVE",
"229 409 CURVE SMOOTH",
"277 409 LINE",
"327 493 LINE",
"285 493 OFFCURVE",
"204 498 OFFCURVE",
"188 498 CURVE SMOOTH",
"89 498 OFFCURVE",
"42 454 OFFCURVE",
"43 361 CURVE SMOOTH",
"44 248 OFFCURVE",
"37 167 OFFCURVE",
"37 152 CURVE SMOOTH",
"37 79 OFFCURVE",
"168 9 OFFCURVE",
"231 9 CURVE SMOOTH"
);
},
{
closed = 1;
nodes = (
"376 -30 LINE",
"376 307 LINE",
"277 307 LINE",
"277 -30 LINE"
);
}
);
userData = {
com.hugojourdan.ColorFlow = {
"0" = 0;
"1" = 0;
"10" = 0;
"11" = 0;
"2" = 0;
"3" = 0;
"4" = 0;
"5" = 0;
"6" = 0;
"7" = 0;
"8" = 0;
"9" = 0;
};
};
width = 430;
}
);
leftKerningGroup = c;
leftMetricsKey = o;
rightKerningGroup = q;
unicode = 0071;
},
{
glyphname = r;
lastChange = "2023-12-05 09:52:54 +0000";
layers = (
{
anchors = (
{
name = bottom;
position = "{147, 9}";
},
{
name = top;
position = "{139, 494}";
}
);
components = (
{
name = spur1;
transform = "{1, 0, 0, 1, 19, -10}";
}
);
layerId = m002;
paths = (
{
closed = 1;
nodes = (
"233 22 LINE",
"165 49 OFFCURVE",
"160 50 OFFCURVE",
"160 63 CURVE SMOOTH",
"160 75 OFFCURVE",
"165 110 OFFCURVE",
"165 177 CURVE SMOOTH",
"165 315 LINE",
"66 315 LINE",
"66 191 LINE SMOOTH",
"66 115 OFFCURVE",
"59 83 OFFCURVE",
"59 69 CURVE SMOOTH",
"59 57 OFFCURVE",
"106 28 OFFCURVE",
"221 -9 CURVE"
);
},
{
closed = 1;
nodes = (
"165 384 OFFCURVE",
"209 415 OFFCURVE",
"303 414 CURVE",
"311 426 LINE",
"261 496 LINE",
"257 497 OFFCURVE",
"246 498 OFFCURVE",
"237 498 CURVE SMOOTH",
"186 498 OFFCURVE",
"138 476 OFFCURVE",
"123 426 CURVE",
"165 284 LINE"
);
}
);
userData = {
com.hugojourdan.ColorFlow = {
"0" = 0;
"1" = 0;
"10" = 0;
"11" = 0;
"2" = 0;
"3" = 0;
"4" = 0;
"5" = 0;
"6" = 0;
"7" = 0;
"8" = 0;
"9" = 0;
};
};
width = 327;
}
);
leftKerningGroup = n;
rightKerningGroup = r;
unicode = 0072;
script = latin;
category = Letter;
subCategory = Spacing;
},
{
glyphname = s;
lastChange = "2023-12-05 09:52:54 +0000";
layers = (
{
anchors = (
{
name = bottom;
position = "{197, 9}";
},
{
name = top;
position = "{192, 494}";
}
);
layerId = m002;
paths = (
{
closed = 1;
nodes = (
"297 3 OFFCURVE",
"348 61 OFFCURVE",
"348 151 CURVE SMOOTH",
"348 235 OFFCURVE",
"299 325 OFFCURVE",
"253 325 CURVE SMOOTH",
"223 325 OFFCURVE",
"156 300 OFFCURVE",
"127 300 CURVE SMOOTH",
"113 300 OFFCURVE",
"108 308 OFFCURVE",
"108 320 CURVE SMOOTH",
"108 371 OFFCURVE",
"158 408 OFFCURVE",
"222 408 CURVE SMOOTH",
"260 408 OFFCURVE",
"286 394 OFFCURVE",
"304 365 CURVE",
"339 377 LINE",
"312 465 OFFCURVE",
"263 507 OFFCURVE",
"183 507 CURVE SMOOTH",
"89 507 OFFCURVE",
"38 447 OFFCURVE",
"38 368 CURVE SMOOTH",
"38 302 OFFCURVE",
"98 198 OFFCURVE",
"145 198 CURVE SMOOTH",
"169 198 OFFCURVE",
"240 223 OFFCURVE",
"267 223 CURVE SMOOTH",
"279 223 OFFCURVE",
"283 216 OFFCURVE",
"283 201 CURVE SMOOTH",
"283 149 OFFCURVE",
"232 108 OFFCURVE",
"168 108 CURVE SMOOTH",
"112 108 OFFCURVE",
"83 132 OFFCURVE",
"58 196 CURVE",
"26 187 LINE",
"49 74 OFFCURVE",
"103 3 OFFCURVE",
"205 3 CURVE SMOOTH"
);
}
);
userData = {
com.hugojourdan.ColorFlow = {
"0" = 0;
"1" = 0;
"10" = 0;
"11" = 0;
"2" = 0;
"3" = 0;
"4" = 0;
"5" = 0;
"6" = 0;
"7" = 0;
"8" = 0;
"9" = 0;
};
};
width = 378;
}
);
leftKerningGroup = s;
rightKerningGroup = s;
unicode = 0073;
},
{
glyphname = t;
lastChange = "2023-12-05 09:52:54 +0000";
layers = (
{
anchors = (
{
name = bottom;
position = "{174, 9}";
},
{
name = top;
position = "{159, 582}";
}
);
layerId = m002;
paths = (
{
closed = 1;
nodes = (
"247 8 OFFCURVE",
"294 26 OFFCURVE",
"313 49 CURVE",
"266 127 LINE",
"252 127 LINE",
"228 108 OFFCURVE",
"198 94 OFFCURVE",
"174 94 CURVE SMOOTH",
"161 94 OFFCURVE",
"153 100 OFFCURVE",
"153 114 CURVE SMOOTH",
"153 139 OFFCURVE",
"160 160 OFFCURVE",
"160 277 CURVE SMOOTH",
"160 358 OFFCURVE",
"159 456 OFFCURVE",
"159 563 CURVE",
"98 609 LINE",
"81 603 LINE",
"81 532 OFFCURVE",
"71 500 OFFCURVE",
"0 492 CURVE",
"-7 476 LINE",
"44 409 LINE",
"287 409 LINE",
"294 424 LINE",
"244 494 LINE",
"77 494 LINE",
"62 485 LINE",
"62 419 OFFCURVE",
"63 368 OFFCURVE",
"63 321 CURVE SMOOTH",
"63 179 OFFCURVE",
"55 158 OFFCURVE",
"55 128 CURVE SMOOTH",
"55 78 OFFCURVE",
"175 8 OFFCURVE",
"214 8 CURVE SMOOTH"
);
}
);
userData = {
com.hugojourdan.ColorFlow = {
"0" = 0;
"1" = 0;
"10" = 0;
"11" = 0;
"2" = 0;
"3" = 0;
"4" = 0;
"5" = 0;
"6" = 0;
"7" = 0;
"8" = 0;
"9" = 0;
};
};
width = 310;
}
);
leftKerningGroup = t;
rightKerningGroup = t;
unicode = 0074;
},
{
glyphname = u;
lastChange = "2023-12-05 09:52:54 +0000";
layers = (
{
anchors = (
{
name = bottom;
position = "{226, 9}";
},
{
name = top;
position = "{199, 494}";
}
);
components = (
{
name = spur1.2;
transform = "{1, 0, 0, 1, 8, -10}";
},
{
name = spur1.2;
transform = "{1, 0, 0, 1, 241, -10}";
}
);
layerId = m002;
paths = (
{
closed = 1;
nodes = (
"434 29 LINE",
"398 48 OFFCURVE",
"384 62 OFFCURVE",
"384 84 CURVE SMOOTH",
"384 101 OFFCURVE",
"388 135 OFFCURVE",
"388 208 CURVE SMOOTH",
"388 304 LINE",
"289 304 LINE",
"289 172 LINE SMOOTH",
"289 119 OFFCURVE",
"236 90 OFFCURVE",
"186 90 CURVE SMOOTH",
"163 90 OFFCURVE",
"152 99 OFFCURVE",
"152 118 CURVE SMOOTH",
"152 134 OFFCURVE",
"155 168 OFFCURVE",
"155 256 CURVE SMOOTH",
"155 304 LINE",
"56 304 LINE",
"56 263 LINE SMOOTH",
"56 206 OFFCURVE",
"51 158 OFFCURVE",
"51 138 CURVE SMOOTH",
"51 78 OFFCURVE",
"192 5 OFFCURVE",
"239 5 CURVE SMOOTH",
"283 5 OFFCURVE",
"343 32 OFFCURVE",
"363 68 CURVE",
"324 58 LINE",
"352 36 OFFCURVE",
"381 18 OFFCURVE",
"421 3 CURVE"
);
}
);
userData = {
com.hugojourdan.ColorFlow = {
"0" = 0;
"1" = 0;
"10" = 0;
"11" = 0;
"2" = 0;
"3" = 0;
"4" = 0;
"5" = 0;
"6" = 0;
"7" = 0;
"8" = 0;
"9" = 0;
};
};
width = 447;
}
);
leftKerningGroup = u;
rightKerningGroup = i;
unicode = 0075;
},
{
glyphname = v;
lastChange = "2023-12-05 09:52:54 +0000";
layers = (
{
anchors = (
{
name = bottom;
position = "{206, 9}";
},
{
name = top;
position = "{180, 494}";
}
);
layerId = m002;
paths = (
{
closed = 1;
nodes = (
"242 -2 OFFCURVE",
"271 76 OFFCURVE",
"384 410 CURVE",
"323 494 LINE",
"198 494 LINE",
"191 478 LINE",
"237 409 LINE",
"289 409 LINE",
"286 424 LINE",
"220 232 OFFCURVE",
"198 170 OFFCURVE",
"166 91 CURVE",
"176 91 LINE",
"118 291 OFFCURVE",
"107 341 OFFCURVE",
"107 364 CURVE SMOOTH",
"107 391 OFFCURVE",
"116 409 OFFCURVE",
"145 414 CURVE",
"145 427 LINE",
"99 494 LINE",
"-28 494 LINE",
"-36 478 LINE",
"13 409 LINE",
"54 409 LINE",
"42 427 LINE",
"37 418 OFFCURVE",
"33 402 OFFCURVE",
"33 386 CURVE SMOOTH",
"33 353 OFFCURVE",
"51 293 OFFCURVE",
"96 115 CURVE SMOOTH",
"102 92 OFFCURVE",
"198 -2 OFFCURVE",
"227 -2 CURVE SMOOTH"
);
}
);
userData = {
com.hugojourdan.ColorFlow = {
"0" = 0;
"1" = 0;
"10" = 0;
"11" = 0;
"2" = 0;
"3" = 0;
"4" = 0;
"5" = 0;
"6" = 0;
"7" = 0;
"8" = 0;
"9" = 0;
};
};
width = 404;
}
);
leftKerningGroup = v;
rightKerningGroup = v;
unicode = 0076;
},
{
glyphname = w;
lastChange = "2023-12-05 09:52:54 +0000";
layers = (
{
anchors = (
{
name = bottom;
position = "{294, 9}";
},
{
name = top;
position = "{287, 494}";
}
);
layerId = m002;
paths = (
{
closed = 1;
nodes = (
"468 -2 OFFCURVE",
"511 146 OFFCURVE",
"577 410 CURVE",
"522 494 LINE",
"402 494 LINE",
"396 478 LINE",
"441 409 LINE",
"485 409 LINE",
"484 424 LINE",
"476 402 OFFCURVE",
"466 366 OFFCURVE",
"421 195 CURVE SMOOTH",
"411 156 OFFCURVE",
"401 122 OFFCURVE",
"393 95 CURVE",
"409 95 LINE",
"382 222 OFFCURVE",
"361 343 OFFCURVE",
"342 430 CURVE",
"267 487 LINE",
"250 479 LINE",
"214 360 OFFCURVE",
"177 225 OFFCURVE",
"138 103 CURVE",
"151 102 LINE",
"118 266 OFFCURVE",
"107 323 OFFCURVE",
"107 349 CURVE SMOOTH",
"107 383 OFFCURVE",
"115 402 OFFCURVE",
"155 410 CURVE",
"160 424 LINE",
"115 494 LINE",
"-23 494 LINE",
"-29 478 LINE",
"15 409 LINE",
"42 409 LINE",
"46 427 LINE",
"40 413 OFFCURVE",
"38 398 OFFCURVE",
"38 385 CURVE SMOOTH",
"38 348 OFFCURVE",
"55 255 OFFCURVE",
"84 114 CURVE SMOOTH",
"88 96 OFFCURVE",
"174 3 OFFCURVE",
"196 3 CURVE SMOOTH",
"208 3 OFFCURVE",
"235 86 OFFCURVE",
"306 350 CURVE",
"298 351 LINE",
"315 253 OFFCURVE",
"327 186 OFFCURVE",
"341 110 CURVE SMOOTH",
"344 96 OFFCURVE",
"439 -2 OFFCURVE",
"455 -2 CURVE SMOOTH"
);
}
);
userData = {
com.hugojourdan.ColorFlow = {
"0" = 0;
"1" = 0;
"10" = 0;
"11" = 0;
"2" = 0;
"3" = 0;
"4" = 0;
"5" = 0;
"6" = 0;
"7" = 0;
"8" = 0;
"9" = 0;
};
};
width = 594;
}
);
leftKerningGroup = v;
rightKerningGroup = v;
unicode = 0077;
},
{
glyphname = x;
lastChange = "2023-12-05 09:52:54 +0000";
layers = (
{
anchors = (
{
name = bottom;
position = "{206, 9}";
},
{
name = top;
position = "{201, 494}";
}
);
layerId = m002;
paths = (
{
closed = 1;
nodes = (
"152 23 LINE",
"122 36 OFFCURVE",
"117 39 OFFCURVE",
"117 48 CURVE SMOOTH",
"117 63 OFFCURVE",
"182 156 OFFCURVE",
"247 228 CURVE SMOOTH",
"316 305 OFFCURVE",
"355 363 OFFCURVE",
"393 413 CURVE",
"335 494 LINE",
"221 494 LINE",
"214 478 LINE",
"263 409 LINE",
"304 409 LINE",
"306 427 LINE",
"259 383 OFFCURVE",
"219 338 OFFCURVE",
"163 274 CURVE SMOOTH",
"88 189 OFFCURVE",
"17 84 OFFCURVE",
"17 65 CURVE SMOOTH",
"17 51 OFFCURVE",
"54 25 OFFCURVE",
"140 -6 CURVE"
);
},
{
closed = 1;
nodes = (
"402 20 LINE",
"355 43 LINE",
"364 28 LINE",
"366 42 OFFCURVE",
"366 51 OFFCURVE",
"366 58 CURVE SMOOTH",
"366 136 OFFCURVE",
"313 191 OFFCURVE",
"234 247 CURVE",
"218 215 LINE",
"253 179 OFFCURVE",
"264 123 OFFCURVE",
"264 69 CURVE SMOOTH",
"264 62 OFFCURVE",
"264 61 OFFCURVE",
"264 48 CURVE SMOOTH",
"264 39 OFFCURVE",
"306 23 OFFCURVE",
"391 -9 CURVE"
);
},
{
closed = 1;
nodes = (
"182 284 LINE",
"154 308 OFFCURVE",
"143 329 OFFCURVE",
"143 360 CURVE SMOOTH",
"143 382 OFFCURVE",
"152 400 OFFCURVE",
"168 409 CURVE",
"168 422 LINE",
"121 494 LINE",
"0 494 LINE",
"-7 478 LINE",
"39 409 LINE",
"63 409 LINE",
"63 427 LINE",
"58 418 OFFCURVE",
"54 404 OFFCURVE",
"54 393 CURVE SMOOTH",
"54 346 OFFCURVE",
"88 303 OFFCURVE",
"156 256 CURVE"
);
}
);
userData = {
com.hugojourdan.ColorFlow = {
"0" = 0;
"1" = 0;
"10" = 0;
"11" = 0;
"2" = 0;
"3" = 0;
"4" = 0;
"5" = 0;
"6" = 0;
"7" = 0;
"8" = 0;
"9" = 0;
};
};
width = 417;
}
);
leftKerningGroup = x;
rightKerningGroup = x;
unicode = 0078;
},
{
glyphname = y;
lastChange = "2023-12-05 09:52:54 +0000";
layers = (
{
anchors = (
{
name = bottom;
position = "{164, -174}";
},
{
name = top;
position = "{191, 494}";
}
);
layerId = m002;
paths = (
{
closed = 1;
nodes = (
"189 -188 OFFCURVE",
"260 35 OFFCURVE",
"390 411 CURVE",
"335 494 LINE",
"200 494 LINE",
"192 478 LINE",
"237 409 LINE",
"308 409 LINE",
"302 439 LINE",
"272 349 OFFCURVE",
"215 197 OFFCURVE",
"162 35 CURVE SMOOTH",
"120 -86 OFFCURVE",
"104 -115 OFFCURVE",
"88 -115 CURVE SMOOTH",
"75 -115 OFFCURVE",
"59 -106 OFFCURVE",
"46 -98 CURVE",
"31 -125 LINE",
"60 -146 OFFCURVE",
"142 -188 OFFCURVE",
"166 -188 CURVE SMOOTH"
);
},
{
closed = 1;
nodes = (
"120 82 OFFCURVE",
"160 45 OFFCURVE",
"191 29 CURVE",
"198 80 LINE",
"138 239 OFFCURVE",
"115 333 OFFCURVE",
"115 367 CURVE SMOOTH",
"115 393 OFFCURVE",
"126 410 OFFCURVE",
"146 414 CURVE",
"151 427 LINE",
"105 494 LINE",
"-23 494 LINE",
"-31 478 LINE",
"17 409 LINE",
"50 409 LINE",
"48 421 LINE",
"42 415 OFFCURVE",
"38 404 OFFCURVE",
"38 381 CURVE SMOOTH",
"38 346 OFFCURVE",
"64 253 OFFCURVE",
"110 112 CURVE SMOOTH"
);
}
);
userData = {
com.hugojourdan.ColorFlow = {
"0" = 0;
"1" = 0;
"10" = 0;
"11" = 0;
"2" = 0;
"3" = 0;
"4" = 0;
"5" = 0;
"6" = 0;
"7" = 0;
"8" = 0;
"9" = 0;
};
};
width = 412;
}
);
leftKerningGroup = v;
rightKerningGroup = y;
unicode = 0079;
},
{
glyphname = z;
lastChange = "2023-12-05 09:52:54 +0000";
layers = (
{
anchors = (
{
name = bottom;
position = "{187, 9}";
},
{
name = top;
position = "{161, 494}";
}
);
layerId = m002;
paths = (
{
closed = 1;
nodes = (
"327 18 LINE",
"335 35 LINE",
"287 107 LINE",
"229 97 OFFCURVE",
"164 97 OFFCURVE",
"126 98 CURVE SMOOTH",
"71 100 LINE",
"115 91 LINE",
"155 152 OFFCURVE",
"287 354 OFFCURVE",
"318 405 CURVE",
"253 494 LINE",
"9 494 LINE",
"1 477 LINE",
"62 387 LINE",
"79 387 LINE",
"103 408 OFFCURVE",
"138 415 OFFCURVE",
"203 415 CURVE SMOOTH",
"233 415 LINE",
"225 422 LINE",
"183 357 OFFCURVE",
"54 173 OFFCURVE",
"13 105 CURVE",
"71 18 LINE"
);
}
);
userData = {
com.hugojourdan.ColorFlow = {
"0" = 0;
"1" = 0;
"10" = 0;
"11" = 0;
"2" = 0;
"3" = 0;
"4" = 0;
"5" = 0;
"6" = 0;
"7" = 0;
"8" = 0;
"9" = 0;
};
};
width = 338;
}
);
leftKerningGroup = z;
rightKerningGroup = z;
unicode = 007A;
},
{
glyphname = Aogonek;
lastChange = "2023-12-05 09:52:54 +0000";
layers = (
{
anchors = (
{
name = bottom;
position = "{249, 9}";
},
{
name = top;
position = "{232, 639}";
}
);
components = (
{
name = "_mid-bar";
transform = "{1, 0, 0, 1, 82, -69}";
}
);
layerId = m002;
paths = (
{
closed = 1;
nodes = (
"458 -107 LINE",
"401 -103 OFFCURVE",
"386 -95 OFFCURVE",
"386 -72 CURVE SMOOTH",
"386 -44 OFFCURVE",
"412 -24 OFFCURVE",
"444 9 CURVE",
"408 188 OFFCURVE",
"369 392 OFFCURVE",
"330 555 CURVE",
"272 639 LINE",
"66 639 LINE",
"60 623 LINE",
"105 556 LINE",
"193 556 LINE",
"159 564 LINE",
"130 463 OFFCURVE",
"24 69 OFFCURVE",
"24 52 CURVE SMOOTH",
"24 43 OFFCURVE",
"96 15 OFFCURVE",
"146 -2 CURVE",
"158 30 LINE",
"105 55 LINE",
"121 30 LINE",
"179 261 OFFCURVE",
"232 457 OFFCURVE",
"262 566 CURVE",
"253 566 LINE",
"277 441 OFFCURVE",
"318 243 OFFCURVE",
"332 92 CURVE SMOOTH",
"336 53 OFFCURVE",
"354 49 OFFCURVE",
"376 37 CURVE",
"388 64 LINE",
"328 29 OFFCURVE",
"305 -10 OFFCURVE",
"305 -49 CURVE SMOOTH",
"305 -110 OFFCURVE",
"351 -150 OFFCURVE",
"458 -150 CURVE"
);
}
);
width = 453;
}
);
leftKerningGroup = A;
rightKerningGroup = A;
unicode = 0104;
},
{
glyphname = AE;
lastChange = "2023-12-05 09:52:54 +0000";
layers = (
{
components = (
{
name = E;
transform = "{1, 0, 0, 1, 244, 0}";
},
{
name = "_mid-bar";
transform = "{1, 0, 0, 1, 82, -44}";
}
);
layerId = m002;
paths = (
{
closed = 1;
nodes = (
"70 639 LINE",
"64 623 LINE",
"109 556 LINE",
"221 556 LINE",
"187 564 LINE",
"136 405 OFFCURVE",
"81 234 OFFCURVE",
"24 55 CURVE",
"33 43 OFFCURVE",
"109 12 OFFCURVE",
"146 1 CURVE",
"158 33 LINE",
"105 58 LINE",
"121 33 LINE",
"180 220 OFFCURVE",
"237 399 OFFCURVE",
"290 566 CURVE",
"281 556 LINE",
"329 556 LINE",
"269 639 LINE"
);
}
);
width = 640;
}
);
leftKerningGroup = A;
leftMetricsKey = A;
rightKerningGroup = E;
rightMetricsKey = E;
unicode = 00C6;
},
{
glyphname = Eth;
lastChange = "2023-12-05 09:52:54 +0000";
layers = (
{
components = (
{
name = D;
transform = "{1, 0, 0, 1, -5, 0}";
}
);
layerId = m002;
paths = (
{
closed = 1;
nodes = (
"264 296 LINE",
"270 307 LINE",
"236 359 LINE",
"-1 359 LINE",
"-6 347 LINE",
"27 296 LINE"
);
}
);
width = 451;
}
);
leftKerningGroup = L;
rightKerningGroup = D;
rightMetricsKey = D;
unicode = 00D0;
},
{
glyphname = Eogonek;
lastChange = "2023-12-05 09:52:54 +0000";
layers = (
{
components = (
{
name = E;
}
);
layerId = m002;
paths = (
{
closed = 1;
nodes = (
"398 -107 LINE",
"341 -103 OFFCURVE",
"326 -95 OFFCURVE",
"326 -72 CURVE SMOOTH",
"326 -44 OFFCURVE",
"350 -13 OFFCURVE",
"386 20 CURVE",
"317 36 LINE",
"273 26 OFFCURVE",
"245 -25 OFFCURVE",
"245 -64 CURVE SMOOTH",
"245 -120 OFFCURVE",
"291 -150 OFFCURVE",
"398 -150 CURVE"
);
}
);
width = 396;
}
);
leftKerningGroup = L;
rightKerningGroup = E;
unicode = 0118;
},
{
glyphname = Schwa;
lastChange = "2023-12-05 09:52:54 +0000";
layers = (
{
layerId = m002;
paths = (
{
closed = 1;
nodes = (
"140 648 OFFCURVE",
"77 619 OFFCURVE",
"36 579 CURVE",
"90 498 LINE",
"105 498 LINE",
"136 525 OFFCURVE",
"195 555 OFFCURVE",
"258 555 CURVE SMOOTH",
"290 555 OFFCURVE",
"302 544 OFFCURVE",
"302 516 CURVE SMOOTH",
"302 504 OFFCURVE",
"295 263 OFFCURVE",
"295 240 CURVE SMOOTH",
"295 139 OFFCURVE",
"266 99 OFFCURVE",
"176 99 CURVE SMOOTH",
"153 99 OFFCURVE",
"139 109 OFFCURVE",
"139 128 CURVE SMOOTH",
"139 157 OFFCURVE",
"141 198 OFFCURVE",
"141 231 CURVE SMOOTH",
"141 285 OFFCURVE",
"164 304 OFFCURVE",
"227 304 CURVE SMOOTH",
"266 304 OFFCURVE",
"286 303 OFFCURVE",
"305 300 CURVE",
"305 374 LINE",
"269 380 OFFCURVE",
"217 385 OFFCURVE",
"175 385 CURVE SMOOTH",
"75 385 OFFCURVE",
"38 336 OFFCURVE",
"38 256 CURVE SMOOTH",
"38 223 OFFCURVE",
"36 175 OFFCURVE",
"36 141 CURVE SMOOTH",
"36 91 OFFCURVE",
"183 8 OFFCURVE",
"253 8 CURVE SMOOTH",
"346 8 OFFCURVE",
"397 63 OFFCURVE",
"397 171 CURVE SMOOTH",
"397 261 OFFCURVE",
"401 446 OFFCURVE",
"401 485 CURVE SMOOTH",
"401 544 OFFCURVE",
"275 648 OFFCURVE",
"200 648 CURVE SMOOTH"
);
}
);
width = 442;
}
);
leftKerningGroup = Schwa;
rightKerningGroup = O;
rightMetricsKey = O;
unicode = 018F;
},
{
glyphname = Hbar;
lastChange = "2023-12-05 09:52:54 +0000";
layers = (
{
components = (
{
name = ascender1;
transform = "{1, 0, 0, 1, 21, 27}";
},
{
name = ascender1;
transform = "{1, 0, 0, 1, 273, 27}";
},
{
name = "_mid-bar";
transform = "{1, 0, 0, 1, 91, 9}";
},
{
name = "_H-bottom";
transform = "{1, 0, 0, 1, 22, 30}";
},
{
name = "_H-bottom";
transform = "{1, 0, 0, 1, 274, 30}";
},
{
name = "_joining-vert";
transform = "{1, 0, 0, 1, -1, 0}";
},
{
name = "_joining-vert";
transform = "{1, 0, 0, 1, 251, 0}";
}
);
layerId = m002;
paths = (
{
closed = 1;
nodes = (
"498 428 LINE",
"505 440 LINE",
"471 491 LINE",
"5 491 LINE",
"-1 479 LINE",
"34 428 LINE"
);
}
);
width = 498;
}
);
leftKerningGroup = H;
rightKerningGroup = H;
unicode = 0126;
},
{
glyphname = IJ;
lastChange = "2023-12-05 09:52:54 +0000";
layers = (
{
anchors = (
{
name = bottom;
position = "{80, 9}";
},
{
name = top;
position = "{72, 639}";
}
);
components = (
{
alignment = -1;
name = ascender1;
transform = "{1, 0, 0, 1, 7, 27}";
}
);
layerId = m002;
paths = (
{
closed = 1;
nodes = (
"349 9 OFFCURVE",
"397 62 OFFCURVE",
"397 168 CURVE SMOOTH",
"397 208 OFFCURVE",
"395 241 OFFCURVE",
"395 262 CURVE",
"294 271 LINE",
"294 250 OFFCURVE",
"295 233 OFFCURVE",
"295 209 CURVE SMOOTH",
"295 112 OFFCURVE",
"259 93 OFFCURVE",
"194 93 CURVE SMOOTH",
"166 93 OFFCURVE",
"154 102 OFFCURVE",
"154 128 CURVE SMOOTH",
"154 162 OFFCURVE",
"156 175 OFFCURVE",
"158 201 CURVE",
"57 210 LINE",
"54 190 OFFCURVE",
"53 166 OFFCURVE",
"53 143 CURVE SMOOTH",
"53 92 OFFCURVE",
"162 9 OFFCURVE",
"256 9 CURVE SMOOTH"
);
},
{
closed = 1;
nodes = (
"182 302 LINE",
"166 311 OFFCURVE",
"158 319 OFFCURVE",
"158 328 CURVE SMOOTH",
"158 347 OFFCURVE",
"158 366 OFFCURVE",
"158 421 CURVE",
"57 421 LINE",
"57 369 OFFCURVE",
"57 355 OFFCURVE",
"57 334 CURVE SMOOTH",
"57 319 OFFCURVE",
"96 295 OFFCURVE",
"170 269 CURVE"
);
},
{
closed = 1;
nodes = (
"395 256 LINE",
"395 384 LINE SMOOTH",
"395 458 OFFCURVE",
"401 518 OFFCURVE",
"413 561 CURVE",
"357 639 LINE",
"229 639 LINE",
"221 622 LINE",
"271 556 LINE",
"319 556 LINE",
"312 566 LINE",
"300 533 OFFCURVE",
"294 459 OFFCURVE",
"294 389 CURVE SMOOTH",
"294 265 LINE"
);
}
);
width = 448;
}
);
leftKerningGroup = U;
rightKerningGroup = J;
rightMetricsKey = J;
unicode = 0132;
},
{
glyphname = Iogonek;
lastChange = "2023-12-05 09:52:54 +0000";
layers = (
{
anchors = (
{
name = _ogonek;
position = "{112, 57}";
},
{
name = bottom;
position = "{132, 9}";
},
{
name = top;
position = "{124, 639}";
}
);
components = (
{
name = ascender1;
transform = "{1, 0, 0, 1, 29, 27}";
}
);
layerId = m002;
paths = (
{
closed = 1;
nodes = (
"216 -109 LINE",
"159 -105 OFFCURVE",
"144 -97 OFFCURVE",
"144 -74 CURVE SMOOTH",
"144 -46 OFFCURVE",
"162 -23 OFFCURVE",
"207 15 CURVE",
"207 24 LINE",
"178 42 OFFCURVE",
"176 63 OFFCURVE",
"176 74 CURVE SMOOTH",
"176 93 OFFCURVE",
"180 116 OFFCURVE",
"180 174 CURVE SMOOTH",
"180 331 LINE",
"79 331 LINE",
"79 196 LINE SMOOTH",
"79 119 OFFCURVE",
"73 98 OFFCURVE",
"73 77 CURVE SMOOTH",
"73 61 OFFCURVE",
"90 48 OFFCURVE",
"115 38 CURVE",
"146 65 LINE",
"86 34 OFFCURVE",
"63 -12 OFFCURVE",
"63 -48 CURVE SMOOTH",
"63 -112 OFFCURVE",
"109 -152 OFFCURVE",
"216 -152 CURVE"
);
},
{
closed = 1;
nodes = (
"180 280 LINE",
"180 358 LINE",
"79 358 LINE",
"79 280 LINE"
);
}
);
width = 251;
}
);
leftKerningGroup = H;
rightKerningGroup = H;
unicode = 012E;
},
{
glyphname = IJacute;
lastChange = "2023-12-05 09:52:54 +0000";
layers = (
{
anchors = (
{
name = bottom;
position = "{89, 9}";
},
{
name = top;
position = "{81, 639}";
}
);
components = (
{
alignment = -1;
name = ascender1;
transform = "{1, 0, 0, 1, 16, 27}";
},
{
name = acutecomb.case;
transform = "{1, 0, 0, 1, -29, 0}";
},
{
name = acutecomb.case;
transform = "{1, 0, 0, 1, 211, 0}";
}
);
layerId = m002;
paths = (
{
closed = 1;
nodes = (
"358 9 OFFCURVE",
"406 62 OFFCURVE",
"406 168 CURVE SMOOTH",
"406 208 OFFCURVE",
"404 241 OFFCURVE",
"404 262 CURVE",
"303 271 LINE",
"303 250 OFFCURVE",
"304 233 OFFCURVE",
"304 209 CURVE SMOOTH",
"304 112 OFFCURVE",
"268 93 OFFCURVE",
"203 93 CURVE SMOOTH",
"175 93 OFFCURVE",
"163 102 OFFCURVE",
"163 128 CURVE SMOOTH",
"163 162 OFFCURVE",
"165 175 OFFCURVE",
"167 201 CURVE",
"66 210 LINE",
"63 190 OFFCURVE",
"62 166 OFFCURVE",
"62 143 CURVE SMOOTH",
"62 92 OFFCURVE",
"171 9 OFFCURVE",
"265 9 CURVE SMOOTH"
);
},
{
closed = 1;
nodes = (
"191 302 LINE",
"175 311 OFFCURVE",
"167 319 OFFCURVE",
"167 328 CURVE SMOOTH",
"167 347 OFFCURVE",
"167 366 OFFCURVE",
"167 421 CURVE",
"66 421 LINE",
"66 369 OFFCURVE",
"66 355 OFFCURVE",
"66 334 CURVE SMOOTH",
"66 319 OFFCURVE",
"105 295 OFFCURVE",
"179 269 CURVE"
);
},
{
closed = 1;
nodes = (
"404 256 LINE",
"404 384 LINE SMOOTH",
"404 458 OFFCURVE",
"410 518 OFFCURVE",
"422 561 CURVE",
"366 639 LINE",
"238 639 LINE",
"230 622 LINE",
"280 556 LINE",
"328 556 LINE",
"321 566 LINE",
"309 533 OFFCURVE",
"303 459 OFFCURVE",
"303 389 CURVE SMOOTH",
"303 265 LINE"
);
}
);
width = 460;
}
);
leftKerningGroup = U;
rightKerningGroup = J;
},
{
glyphname = Lslash;
lastChange = "2023-12-05 09:52:54 +0000";
layers = (
{
components = (
{
name = L;
transform = "{1, 0, 0, 1, -4, 0}";
}
);
layerId = m002;
paths = (
{
closed = 1;
nodes = (
"249 447 LINE",
"-20 260 LINE",
"14 215 LINE",
"27 215 LINE",
"296 401 LINE",
"262 447 LINE"
);
}
);
width = 332;
}
);
leftKerningGroup = Lslash;
rightKerningGroup = Lslash;
unicode = 0141;
},
{
glyphname = Eng;
lastChange = "2023-12-05 09:52:54 +0000";
layers = (
{
components = (
{
name = "_H-bottom";
transform = "{1, 0, 0, 1, 21, 29}";
}
);
layerId = m002;
paths = (
{
closed = 1;
nodes = (
"201 533 LINE SMOOTH",
"170 608 OFFCURVE",
"146 639 OFFCURVE",
"138 639 CURVE SMOOTH",
"6 639 LINE",
"-1 623 LINE",
"48 556 LINE",
"110 556 LINE",
"90 578 LINE",
"78 551 OFFCURVE",
"70 493 OFFCURVE",
"70 372 CURVE",
"70 313 LINE",
"171 313 LINE",
"171 367 OFFCURVE",
"172 422 OFFCURVE",
"166 476 CURVE",
"163 454 LINE",
"300 137 LINE SMOOTH",
"318 95 OFFCURVE",
"332 67 OFFCURVE",
"348 55 CURVE",
"348 178 LINE"
);
},
{
closed = 1;
nodes = (
"436 308 LINE",
"436 423 LINE SMOOTH",
"436 502 OFFCURVE",
"445 539 OFFCURVE",
"455 564 CURVE",
"405 639 LINE",
"274 639 LINE",
"267 623 LINE",
"310 556 LINE",
"373 556 LINE",
"354 575 LINE",
"342 539 OFFCURVE",
"335 497 OFFCURVE",
"335 408 CURVE SMOOTH",
"335 308 LINE"
);
},
{
closed = 1;
nodes = (
"415 -181 OFFCURVE",
"436 -119 OFFCURVE",
"436 -27 CURVE SMOOTH",
"436 310 LINE",
"335 310 LINE",
"335 -16 LINE SMOOTH",
"335 -100 OFFCURVE",
"319 -115 OFFCURVE",
"300 -115 CURVE SMOOTH",
"287 -115 OFFCURVE",
"277 -108 OFFCURVE",
"260 -98 CURVE",
"244 -124 LINE",
"280 -150 OFFCURVE",
"335 -181 OFFCURVE",
"370 -181 CURVE SMOOTH"
);
}
);
width = 484;
}
);
leftKerningGroup = N;
leftMetricsKey = N;
rightKerningGroup = Eng;
rightMetricsKey = N;
unicode = 014A;
},
{
glyphname = Oslash;
lastChange = "2023-12-05 09:52:54 +0000";
layers = (
{
layerId = m002;
paths = (
{
closed = 1;
nodes = (
"360 8 OFFCURVE",
"410 64 OFFCURVE",
"410 170 CURVE SMOOTH",
"410 266 OFFCURVE",
"414 435 OFFCURVE",
"414 478 CURVE SMOOTH",
"414 537 OFFCURVE",
"283 648 OFFCURVE",
"209 648 CURVE SMOOTH",
"105 648 OFFCURVE",
"55 609 OFFCURVE",
"55 501 CURVE SMOOTH",
"55 293 LINE SMOOTH",
"55 233 OFFCURVE",
"49 181 OFFCURVE",
"49 147 CURVE SMOOTH",
"49 97 OFFCURVE",
"202 8 OFFCURVE",
"272 8 CURVE SMOOTH"
);
},
{
closed = 1;
nodes = (
"166 99 OFFCURVE",
"139 109 OFFCURVE",
"139 128 CURVE SMOOTH",
"139 144 OFFCURVE",
"157 256 OFFCURVE",
"157 370 CURVE SMOOTH",
"157 463 LINE SMOOTH",
"157 526 OFFCURVE",
"176 555 OFFCURVE",
"271 555 CURVE SMOOTH",
"303 555 OFFCURVE",
"323 544 OFFCURVE",
"323 516 CURVE SMOOTH",
"323 482 OFFCURVE",
"308 356 OFFCURVE",
"308 241 CURVE SMOOTH",
"308 139 OFFCURVE",
"281 99 OFFCURVE",
"189 99 CURVE SMOOTH"
);
},
{
closed = 1;
nodes = (
"42 9 LINE",
"92 -17 LINE",
"417 631 LINE",
"364 658 LINE"
);
}
);
width = 455;
}
);
leftKerningGroup = O;
rightKerningGroup = O;
unicode = 00D8;
},
{
glyphname = OE;
lastChange = "2023-12-05 09:52:54 +0000";
layers = (
{
components = (
{
name = E;
transform = "{1, 0, 0, 1, 238, 0}";
}
);
layerId = m002;
paths = (
{
closed = 1;
nodes = (
"309 8 OFFCURVE",
"339 19 OFFCURVE",
"365 40 CURVE",
"522 20 LINE",
"398 95 LINE",
"406 116 OFFCURVE",
"410 140 OFFCURVE",
"410 170 CURVE SMOOTH",
"410 266 OFFCURVE",
"414 435 OFFCURVE",
"414 485 CURVE SMOOTH",
"414 529 OFFCURVE",
"344 606 OFFCURVE",
"274 631 CURVE",
"256 641 OFFCURVE",
"236 648 OFFCURVE",
"206 648 CURVE SMOOTH",
"108 648 OFFCURVE",
"55 609 OFFCURVE",
"55 501 CURVE SMOOTH",
"55 293 LINE SMOOTH",
"55 233 OFFCURVE",
"49 175 OFFCURVE",
"49 141 CURVE SMOOTH",
"49 91 OFFCURVE",
"196 8 OFFCURVE",
"266 8 CURVE SMOOTH"
);
},
{
closed = 1;
nodes = (
"166 99 OFFCURVE",
"152 109 OFFCURVE",
"152 128 CURVE SMOOTH",
"152 144 OFFCURVE",
"157 186 OFFCURVE",
"157 250 CURVE SMOOTH",
"157 463 LINE SMOOTH",
"157 526 OFFCURVE",
"178 555 OFFCURVE",
"258 555 CURVE SMOOTH",
"290 555 OFFCURVE",
"318 541 OFFCURVE",
"329 516 CURVE",
"309 163 LINE",
"291 112 OFFCURVE",
"248 99 OFFCURVE",
"189 99 CURVE SMOOTH"
);
}
);
width = 634;
}
);
leftKerningGroup = O;
leftMetricsKey = O;
rightKerningGroup = E;
rightMetricsKey = E;
unicode = 0152;
},
{
glyphname = Thorn;
lastChange = "2023-12-05 09:52:54 +0000";
layers = (
{
components = (
{
name = "_H-bottom";
transform = "{1, 0, 0, 1, 19, 18}";
},
{
name = "_joining-vert";
transform = "{1, 0, 0, 1, -4, 0}";
}
);
layerId = m002;
paths = (
{
closed = 1;
nodes = (
"392 153 OFFCURVE",
"427 200 OFFCURVE",
"427 300 CURVE SMOOTH",
"427 332 LINE SMOOTH",
"427 387 OFFCURVE",
"303 489 OFFCURVE",
"243 489 CURVE SMOOTH",
"204 489 OFFCURVE",
"151 486 OFFCURVE",
"99 486 CURVE",
"159 391 LINE",
"195 401 OFFCURVE",
"249 408 OFFCURVE",
"277 408 CURVE SMOOTH",
"315 408 OFFCURVE",
"326 389 OFFCURVE",
"326 353 CURVE SMOOTH",
"326 338 LINE SMOOTH",
"326 265 OFFCURVE",
"305 234 OFFCURVE",
"236 234 CURVE SMOOTH",
"185 234 OFFCURVE",
"157 239 OFFCURVE",
"136 247 CURVE",
"136 185 LINE",
"181 164 OFFCURVE",
"260 153 OFFCURVE",
"307 153 CURVE SMOOTH"
);
},
{
closed = 1;
nodes = (
"169 336 LINE",
"169 391 LINE",
"169 484 LINE SMOOTH",
"169 513 OFFCURVE",
"174 539 OFFCURVE",
"181 556 CURVE",
"134 639 LINE",
"9 639 LINE",
"1 623 LINE",
"51 556 LINE",
"105 556 LINE",
"90 570 LINE",
"80 543 OFFCURVE",
"68 487 OFFCURVE",
"68 384 CURVE SMOOTH",
"68 336 LINE"
);
},
{
closed = 1;
nodes = (
"220 572 LINE",
"170 639 LINE",
"82 639 LINE",
"82 556 LINE",
"211 556 LINE"
);
}
);
width = 437;
}
);
leftKerningGroup = H;
leftMetricsKey = P;
rightKerningGroup = Thorn;
unicode = 00DE;
},
{
glyphname = Germandbls;
lastChange = "2023-12-05 09:52:54 +0000";
layers = (
{
components = (
{
alignment = -1;
name = "_H-bottom";
transform = "{1, 0, 0, 1, 11, 27}";
}
);
layerId = m002;
paths = (
{
closed = 1;
nodes = (
"161 256 LINE",
"161 424 LINE SMOOTH",
"161 531 OFFCURVE",
"197 558 OFFCURVE",
"255 558 CURVE SMOOTH",
"296 558 OFFCURVE",
"333 537 OFFCURVE",
"358 502 CURVE",
"358 507 LINE",
"209 335 LINE",
"274 263 LINE",
"433 450 LINE",
"408 571 OFFCURVE",
"325 651 OFFCURVE",
"225 651 CURVE SMOOTH",
"127 651 OFFCURVE",
"60 606 OFFCURVE",
"60 434 CURVE SMOOTH",
"60 256 LINE"
);
},
{
closed = 1;
nodes = (
"424 4 OFFCURVE",
"468 73 OFFCURVE",
"468 164 CURVE SMOOTH",
"468 265 OFFCURVE",
"412 351 OFFCURVE",
"354 351 CURVE SMOOTH",
"335 351 OFFCURVE",
"301 325 OFFCURVE",
"281 292 CURVE",
"274 263 LINE",
"306 271 OFFCURVE",
"333 277 OFFCURVE",
"359 277 CURVE SMOOTH",
"388 277 OFFCURVE",
"401 264 OFFCURVE",
"401 224 CURVE SMOOTH",
"401 162 OFFCURVE",
"371 122 OFFCURVE",
"317 122 CURVE SMOOTH",
"284 122 OFFCURVE",
"255 134 OFFCURVE",
"235 167 CURVE",
"203 157 LINE",
"230 58 OFFCURVE",
"265 4 OFFCURVE",
"344 4 CURVE SMOOTH"
);
}
);
width = 484;
}
);
leftKerningGroup = Germandbls;
rightKerningGroup = Germandbls;
unicode = 1E9E;
},
{
glyphname = aogonek;
lastChange = "2023-12-05 09:52:54 +0000";
layers = (
{
anchors = (
{
name = bottom;
position = "{211, 9}";
},
{
name = top;
position = "{203, 494}";
}
);
layerId = m002;
paths = (
{
closed = 1;
nodes = (
"402 14 LINE",
"373 48 OFFCURVE",
"358 57 OFFCURVE",
"358 97 CURVE SMOOTH",
"357 173 OFFCURVE",
"366 284 OFFCURVE",
"366 351 CURVE SMOOTH",
"366 398 OFFCURVE",
"265 494 OFFCURVE",
"213 494 CURVE SMOOTH",
"168 494 OFFCURVE",
"101 494 OFFCURVE",
"46 494 CURVE",
"38 478 LINE",
"103 383 LINE",
"122 383 LINE",
"154 401 OFFCURVE",
"187 409 OFFCURVE",
"239 409 CURVE SMOOTH",
"260 409 OFFCURVE",
"267 403 OFFCURVE",
"267 388 CURVE SMOOTH",
"267 349 OFFCURVE",
"262 223 OFFCURVE",
"262 181 CURVE SMOOTH",
"262 120 OFFCURVE",
"220 92 OFFCURVE",
"166 92 CURVE SMOOTH",
"149 92 OFFCURVE",
"135 96 OFFCURVE",
"135 130 CURVE SMOOTH",
"135 165 LINE SMOOTH",
"135 218 OFFCURVE",
"159 237 OFFCURVE",
"207 237 CURVE SMOOTH",
"226 237 OFFCURVE",
"251 236 OFFCURVE",
"266 231 CURVE",
"268 295 LINE",
"239 303 OFFCURVE",
"190 309 OFFCURVE",
"153 309 CURVE SMOOTH",
"80 309 OFFCURVE",
"37 279 OFFCURVE",
"37 201 CURVE SMOOTH",
"37 195 OFFCURVE",
"36 165 OFFCURVE",
"36 130 CURVE SMOOTH",
"36 74 OFFCURVE",
"187 9 OFFCURVE",
"233 9 CURVE SMOOTH",
"291 9 OFFCURVE",
"326 77 OFFCURVE",
"342 107 CURVE",
"284 56 LINE",
"317 34 OFFCURVE",
"354 20 OFFCURVE",
"398 5 CURVE"
);
},
{
closed = 1;
nodes = (
"413 -114 LINE",
"354 -110 OFFCURVE",
"344 -102 OFFCURVE",
"344 -79 CURVE SMOOTH",
"344 -51 OFFCURVE",
"361 -27 OFFCURVE",
"398 5 CURVE",
"328 44 LINE",
"294 12 OFFCURVE",
"263 -26 OFFCURVE",
"263 -71 CURVE SMOOTH",
"263 -123 OFFCURVE",
"304 -157 OFFCURVE",
"413 -157 CURVE"
);
}
);
width = 413;
}
);
leftKerningGroup = a;
rightKerningGroup = a;
unicode = 0105;
},
{
glyphname = ae;
lastChange = "2023-12-05 09:52:54 +0000";
layers = (
{
components = (
{
name = e;
transform = "{1, 0, 0, 1, 219, 0}";
}
);
layerId = m002;
paths = (
{
closed = 1;
nodes = (
"359 97 LINE",
"358 173 OFFCURVE",
"367 284 OFFCURVE",
"367 351 CURVE SMOOTH",
"367 398 OFFCURVE",
"266 494 OFFCURVE",
"214 494 CURVE SMOOTH",
"166 494 OFFCURVE",
"99 494 OFFCURVE",
"44 494 CURVE",
"36 478 LINE",
"101 383 LINE",
"120 383 LINE",
"152 401 OFFCURVE",
"185 409 OFFCURVE",
"240 409 CURVE SMOOTH",
"261 409 OFFCURVE",
"268 403 OFFCURVE",
"268 388 CURVE SMOOTH",
"268 349 OFFCURVE",
"263 223 OFFCURVE",
"263 181 CURVE SMOOTH",
"263 120 OFFCURVE",
"221 92 OFFCURVE",
"167 92 CURVE SMOOTH",
"150 92 OFFCURVE",
"136 96 OFFCURVE",
"136 130 CURVE SMOOTH",
"136 165 LINE SMOOTH",
"136 218 OFFCURVE",
"160 237 OFFCURVE",
"208 237 CURVE SMOOTH",
"227 237 OFFCURVE",
"252 236 OFFCURVE",
"267 231 CURVE",
"269 295 LINE",
"240 303 OFFCURVE",
"191 309 OFFCURVE",
"154 309 CURVE SMOOTH",
"81 309 OFFCURVE",
"38 279 OFFCURVE",
"38 201 CURVE SMOOTH",
"38 195 OFFCURVE",
"37 165 OFFCURVE",
"37 130 CURVE SMOOTH",
"37 74 OFFCURVE",
"188 9 OFFCURVE",
"234 9 CURVE SMOOTH",
"292 9 OFFCURVE",
"327 47 OFFCURVE",
"343 87 CURVE"
);
}
);
width = 613;
}
);
leftKerningGroup = a;
leftMetricsKey = a;
rightKerningGroup = e;
rightMetricsKey = e;
unicode = 00E6;
},
{
glyphname = eth;
lastChange = "2023-12-05 09:52:54 +0000";
layers = (
{
layerId = m002;
paths = (
{
closed = 1;
nodes = (
"72 697 LINE",
"251 602 OFFCURVE",
"280 537 OFFCURVE",
"280 382 CURVE SMOOTH",
"280 200 LINE SMOOTH",
"280 120 OFFCURVE",
"246 90 OFFCURVE",
"174 90 CURVE SMOOTH",
"150 90 OFFCURVE",
"139 98 OFFCURVE",
"139 121 CURVE SMOOTH",
"143 323 LINE SMOOTH",
"144 389 OFFCURVE",
"183 411 OFFCURVE",
"239 411 CURVE SMOOTH",
"258 411 OFFCURVE",
"279 401 OFFCURVE",
"280 374 CURVE",
"298 448 LINE",
"280 475 OFFCURVE",
"228 497 OFFCURVE",
"190 497 CURVE SMOOTH",
"100 497 OFFCURVE",
"45 459 OFFCURVE",
"45 364 CURVE SMOOTH",
"45 231 OFFCURVE",
"39 163 OFFCURVE",
"39 148 CURVE SMOOTH",
"39 75 OFFCURVE",
"174 5 OFFCURVE",
"238 5 CURVE SMOOTH",
"323 5 OFFCURVE",
"378 53 OFFCURVE",
"378 157 CURVE SMOOTH",
"378 194 OFFCURVE",
"379 249 OFFCURVE",
"379 314 CURVE SMOOTH",
"379 363 LINE SMOOTH",
"379 535 OFFCURVE",
"326 644 OFFCURVE",
"96 740 CURVE"
);
},
{
closed = 1;
nodes = (
"293 743 LINE",
"84 577 LINE",
"120 535 LINE",
"130 535 LINE",
"341 699 LINE",
"303 743 LINE"
);
}
);
width = 429;
}
);
leftKerningGroup = c;
leftMetricsKey = d;
rightKerningGroup = d;
unicode = 00F0;
},
{
glyphname = dcroat;
lastChange = "2023-12-05 09:52:54 +0000";
layers = (
{
anchors = (
{
name = bottom;
position = "{212, 9}";
}
);
layerId = m002;
paths = (
{
closed = 1;
nodes = (
"441 540 LINE",
"447 551 LINE",
"415 599 LINE",
"170 599 LINE",
"165 589 LINE",
"198 540 LINE"
);
},
{
closed = 1;
nodes = (
"419 30 LINE",
"380 46 OFFCURVE",
"372 54 OFFCURVE",
"371 94 CURVE SMOOTH",
"370 171 OFFCURVE",
"374 239 OFFCURVE",
"374 304 CURVE SMOOTH",
"374 423 LINE",
"275 423 LINE",
"275 185 LINE SMOOTH",
"275 125 OFFCURVE",
"241 90 OFFCURVE",
"169 90 CURVE SMOOTH",
"145 90 OFFCURVE",
"134 98 OFFCURVE",
"134 121 CURVE SMOOTH",
"138 323 LINE SMOOTH",
"139 389 OFFCURVE",
"178 409 OFFCURVE",
"234 409 CURVE SMOOTH",
"253 409 OFFCURVE",
"274 406 OFFCURVE",
"288 401 CURVE",
"294 458 LINE",
"267 477 OFFCURVE",
"223 497 OFFCURVE",
"188 497 CURVE SMOOTH",
"95 497 OFFCURVE",
"40 459 OFFCURVE",
"40 364 CURVE SMOOTH",
"40 231 OFFCURVE",
"34 163 OFFCURVE",
"34 148 CURVE SMOOTH",
"34 75 OFFCURVE",
"169 5 OFFCURVE",
"233 5 CURVE SMOOTH",
"282 5 OFFCURVE",
"306 18 OFFCURVE",
"338 49 CURVE",
"313 43 LINE",
"348 24 OFFCURVE",
"370 13 OFFCURVE",
"404 2 CURVE"
);
},
{
closed = 1;
nodes = (
"374 417 LINE",
"374 455 LINE",
"374 579 LINE SMOOTH",
"374 606 OFFCURVE",
"378 631 OFFCURVE",
"383 655 CURVE",
"334 720 LINE",
"200 720 LINE",
"193 704 LINE",
"239 650 LINE",
"309 650 LINE",
"294 660 LINE",
"287 636 OFFCURVE",
"282 610 OFFCURVE",
"282 581 CURVE",
"281 551 LINE",
"277 529 OFFCURVE",
"275 492 OFFCURVE",
"275 447 CURVE SMOOTH",
"275 417 LINE"
);
}
);
width = 443;
}
);
leftKerningGroup = c;
rightKerningGroup = d;
unicode = 0111;
},
{
glyphname = eogonek;
lastChange = "2023-12-05 09:52:54 +0000";
layers = (
{
components = (
{
name = e;
}
);
layerId = m002;
paths = (
{
closed = 1;
nodes = (
"328 -110 LINE",
"275 -108 OFFCURVE",
"256 -98 OFFCURVE",
"256 -75 CURVE SMOOTH",
"256 -47 OFFCURVE",
"275 -19 OFFCURVE",
"364 41 CURVE",
"251 40 LINE",
"210 19 OFFCURVE",
"175 -18 OFFCURVE",
"175 -67 CURVE SMOOTH",
"175 -122 OFFCURVE",
"221 -153 OFFCURVE",
"328 -153 CURVE"
);
}
);
width = 394;
}
);
leftKerningGroup = c;
rightKerningGroup = e;
unicode = 0119;
},
{
glyphname = schwa;
lastChange = "2023-12-05 09:52:54 +0000";
layers = (
{
anchors = (
{
name = bottom;
position = "{185, 4}";
},
{
name = top;
position = "{188, 489}";
}
);
layerId = m002;
paths = (
{
closed = 1;
nodes = (
"117 501 OFFCURVE",
"66 483 OFFCURVE",
"36 459 CURVE",
"90 377 LINE",
"105 377 LINE",
"144 403 OFFCURVE",
"180 415 OFFCURVE",
"221 415 CURVE SMOOTH",
"249 415 OFFCURVE",
"258 407 OFFCURVE",
"258 385 CURVE SMOOTH",
"258 373 OFFCURVE",
"253 196 OFFCURVE",
"253 163 CURVE SMOOTH",
"253 105 OFFCURVE",
"220 86 OFFCURVE",
"167 86 CURVE SMOOTH",
"141 86 OFFCURVE",
"135 99 OFFCURVE",
"135 113 CURVE SMOOTH",
"135 133 OFFCURVE",
"135 158 OFFCURVE",
"135 173 CURVE SMOOTH",
"135 213 OFFCURVE",
"149 232 OFFCURVE",
"187 232 CURVE SMOOTH",
"220 232 OFFCURVE",
"250 231 OFFCURVE",
"269 228 CURVE",
"269 295 LINE",
"233 301 OFFCURVE",
"177 306 OFFCURVE",
"135 306 CURVE SMOOTH",
"75 306 OFFCURVE",
"38 274 OFFCURVE",
"38 218 CURVE SMOOTH",
"38 193 OFFCURVE",
"38 151 OFFCURVE",
"38 123 CURVE SMOOTH",
"38 78 OFFCURVE",
"159 1 OFFCURVE",
"238 1 CURVE SMOOTH",
"309 1 OFFCURVE",
"350 43 OFFCURVE",
"350 131 CURVE SMOOTH",
"350 241 OFFCURVE",
"353 323 OFFCURVE",
"353 362 CURVE SMOOTH",
"353 420 OFFCURVE",
"227 501 OFFCURVE",
"162 501 CURVE SMOOTH"
);
}
);
width = 394;
}
);
leftKerningGroup = a;
rightKerningGroup = o;
unicode = 0259;
},
{
glyphname = f;
lastChange = "2023-12-05 14:24:30 +0000";
layers = (
{
anchors = (
{
name = bottom;
position = "{118, 9}";
}
);
layerId = m002;
paths = (
{
closed = 1;
nodes = (
"209 24 LINE",
"168 42 OFFCURVE",
"162 48 OFFCURVE",
"162 61 CURVE SMOOTH",
"162 80 OFFCURVE",
"168 113 OFFCURVE",
"168 161 CURVE SMOOTH",
"168 289 LINE SMOOTH",
"168 355 OFFCURVE",
"171 398 OFFCURVE",
"185 422 CURVE",
"84 422 LINE",
"71 389 OFFCURVE",
"69 358 OFFCURVE",
"69 299 CURVE SMOOTH",
"69 172 LINE SMOOTH",
"69 134 OFFCURVE",
"61 95 OFFCURVE",
"61 76 CURVE SMOOTH",
"61 54 OFFCURVE",
"115 25 OFFCURVE",
"195 -3 CURVE"
);
},
{
closed = 1;
nodes = (
"294 409 LINE",
"303 424 LINE",
"250 494 LINE",
"-16 494 LINE",
"-23 477 LINE",
"34 409 LINE"
);
},
{
closed = 1;
nodes = (
"151 497 OFFCURVE",
"138 523 OFFCURVE",
"138 551 CURVE SMOOTH",
"138 594 OFFCURVE",
"169 613 OFFCURVE",
"221 613 CURVE SMOOTH",
"253 613 OFFCURVE",
"275 609 OFFCURVE",
"288 605 CURVE",
"299 618 LINE",
"252 698 LINE",
"234 706 OFFCURVE",
"211 710 OFFCURVE",
"188 710 CURVE SMOOTH",
"97 710 OFFCURVE",
"56 662 OFFCURVE",
"56 597 CURVE SMOOTH",
"56 545 OFFCURVE",
"87 503 OFFCURVE",
"109 483 CURVE",
"173 483 LINE"
);
}
);
userData = {
com.hugojourdan.ColorFlow = {
"0" = 0;
"1" = 0;
"10" = 0;
"11" = 0;
"2" = 0;
"3" = 0;
"4" = 0;
"5" = 0;
"6" = 0;
"7" = 0;
"8" = 0;
"9" = 0;
};
};
width = 254;
}
);
leftKerningGroup = f;
rightKerningGroup = f;
unicode = 0066;
},
{
glyphname = hbar;
lastChange = "2023-12-05 09:52:54 +0000";
layers = (
{
anchors = (
{
name = bottom;
position = "{224, 9}";
}
);
layerId = m002;
paths = (
{
closed = 1;
nodes = (
"263 540 LINE",
"269 551 LINE",
"237 599 LINE",
"0 599 LINE",
"-5 589 LINE",
"28 540 LINE"
);
},
{
closed = 1;
nodes = (
"386 176 LINE",
"386 242 LINE SMOOTH",
"386 273 OFFCURVE",
"390 326 OFFCURVE",
"390 359 CURVE SMOOTH",
"390 396 OFFCURVE",
"302 496 OFFCURVE",
"244 496 CURVE SMOOTH",
"193 496 OFFCURVE",
"143 469 OFFCURVE",
"136 426 CURVE",
"155 299 LINE",
"155 365 OFFCURVE",
"189 406 OFFCURVE",
"264 406 CURVE SMOOTH",
"286 406 OFFCURVE",
"291 398 OFFCURVE",
"291 372 CURVE SMOOTH",
"291 330 OFFCURVE",
"287 270 OFFCURVE",
"287 232 CURVE",
"287 176 LINE"
);
},
{
closed = 1;
nodes = (
"155 181 LINE",
"155 443 LINE",
"56 448 LINE",
"56 181 LINE"
);
},
{
closed = 1;
nodes = (
"194 27 LINE",
"154 48 OFFCURVE",
"149 51 OFFCURVE",
"149 64 CURVE SMOOTH",
"149 83 OFFCURVE",
"155 121 OFFCURVE",
"155 169 CURVE SMOOTH",
"155 188 LINE",
"56 188 LINE",
"56 180 LINE SMOOTH",
"56 142 OFFCURVE",
"49 98 OFFCURVE",
"49 79 CURVE SMOOTH",
"49 57 OFFCURVE",
"97 32 OFFCURVE",
"182 0 CURVE"
);
},
{
closed = 1;
nodes = (
"425 27 LINE",
"385 48 OFFCURVE",
"380 51 OFFCURVE",
"380 64 CURVE SMOOTH",
"380 83 OFFCURVE",
"386 121 OFFCURVE",
"386 169 CURVE SMOOTH",
"386 188 LINE",
"287 188 LINE",
"287 180 LINE SMOOTH",
"287 142 OFFCURVE",
"280 98 OFFCURVE",
"280 79 CURVE SMOOTH",
"280 57 OFFCURVE",
"328 32 OFFCURVE",
"413 0 CURVE"
);
},
{
closed = 1;
nodes = (
"155 412 LINE",
"155 450 LINE",
"155 579 LINE SMOOTH",
"155 606 OFFCURVE",
"159 631 OFFCURVE",
"164 655 CURVE",
"115 720 LINE",
"-19 720 LINE",
"-26 704 LINE",
"20 650 LINE",
"90 650 LINE",
"75 660 LINE",
"68 636 OFFCURVE",
"63 610 OFFCURVE",
"63 581 CURVE",
"62 551 LINE",
"58 529 OFFCURVE",
"56 492 OFFCURVE",
"56 447 CURVE SMOOTH",
"56 417 LINE"
);
}
);
width = 441;
}
);
leftKerningGroup = h;
leftMetricsKey = h;
rightKerningGroup = n;
rightMetricsKey = h;
unicode = 0127;
},
{
glyphname = iogonek;
lastChange = "2023-12-05 09:52:54 +0000";
layers = (
{
anchors = (
{
name = top;
position = "{115, 494}";
}
);
components = (
{
alignment = -1;
name = spur1.2;
transform = "{1, 0, 0, 1, 26, -10}";
},
{
name = dotaccentcomb;
transform = "{1, 0, 0, 1, -3, 0}";
}
);
layerId = m002;
paths = (
{
closed = 1;
nodes = (
"172 173 LINE",
"172 308 LINE",
"75 308 LINE",
"75 173 LINE"
);
},
{
closed = 1;
nodes = (
"210 -109 LINE",
"153 -105 OFFCURVE",
"138 -97 OFFCURVE",
"138 -74 CURVE SMOOTH",
"138 -46 OFFCURVE",
"156 -23 OFFCURVE",
"201 15 CURVE",
"201 24 LINE",
"172 42 OFFCURVE",
"170 63 OFFCURVE",
"170 74 CURVE SMOOTH",
"170 93 OFFCURVE",
"173 116 OFFCURVE",
"173 174 CURVE SMOOTH",
"173 331 LINE",
"74 331 LINE",
"74 196 LINE SMOOTH",
"74 119 OFFCURVE",
"68 98 OFFCURVE",
"68 77 CURVE SMOOTH",
"68 61 OFFCURVE",
"84 48 OFFCURVE",
"109 38 CURVE",
"140 65 LINE",
"80 34 OFFCURVE",
"57 -12 OFFCURVE",
"57 -48 CURVE SMOOTH",
"57 -112 OFFCURVE",
"103 -152 OFFCURVE",
"210 -152 CURVE"
);
}
);
width = 239;
}
);
leftKerningGroup = i;
rightKerningGroup = i;
unicode = 012F;
},
{
glyphname = jdotless;
lastChange = "2023-12-05 09:52:54 +0000";
layers = (
{
anchors = (
{
name = bottom;
position = "{104, -188}";
},
{
name = top;
position = "{112, 494}";
}
);
components = (
{
name = spur1.2;
transform = "{1, 0, 0, 1, 24, -10}";
}
);
layerId = m002;
paths = (
{
closed = 1;
nodes = (
"150 -181 OFFCURVE",
"171 -119 OFFCURVE",
"171 -27 CURVE SMOOTH",
"171 310 LINE",
"72 310 LINE",
"72 -16 LINE SMOOTH",
"72 -100 OFFCURVE",
"56 -115 OFFCURVE",
"37 -115 CURVE SMOOTH",
"24 -115 OFFCURVE",
"14 -108 OFFCURVE",
"-3 -98 CURVE",
"-19 -124 LINE",
"17 -150 OFFCURVE",
"70 -181 OFFCURVE",
"105 -181 CURVE SMOOTH"
);
}
);
width = 231;
}
);
leftKerningGroup = j;
rightKerningGroup = j;
unicode = 0237;
},
{
glyphname = lmacronbelow;
lastChange = "2023-12-05 09:52:54 +0000";
layers = (
{
components = (
{
name = l;
}
);
layerId = m002;
paths = (
{
closed = 1;
nodes = (
"255 -144 LINE",
"262 -129 LINE",
"221 -72 LINE",
"26 -72 LINE",
"20 -87 LINE",
"62 -144 LINE"
);
}
);
width = 217;
}
);
leftKerningGroup = h;
leftMetricsKey = l;
widthMetricsKey = l;
rightKerningGroup = l;
unicode = 1E3B;
},
{
glyphname = lslash;
lastChange = "2023-12-05 09:52:54 +0000";
layers = (
{
components = (
{
name = l;
transform = "{1, 0, 0, 1, 27, 0}";
}
);
layerId = m002;
paths = (
{
closed = 1;
nodes = (
"233 452 LINE",
"-10 275 LINE",
"24 230 LINE",
"37 230 LINE",
"280 406 LINE",
"246 452 LINE"
);
}
);
width = 297;
}
);
unicode = 0142;
},
{
glyphname = eng;
lastChange = "2023-12-05 09:52:54 +0000";
layers = (
{
components = (
{
name = bottom;
transform = "{1, 0, 0, 1, 14, 33}";
},
{
name = spur1;
transform = "{1, 0, 0, 1, 17, -10}";
}
);
layerId = m002;
paths = (
{
closed = 1;
nodes = (
"395 176 LINE",
"395 242 LINE SMOOTH",
"395 273 OFFCURVE",
"399 331 OFFCURVE",
"399 364 CURVE SMOOTH",
"399 401 OFFCURVE",
"305 501 OFFCURVE",
"253 501 CURVE SMOOTH",
"232 501 LINE SMOOTH",
"193 501 OFFCURVE",
"146 481 OFFCURVE",
"122 440 CURVE",
"163 304 LINE",
"163 370 OFFCURVE",
"198 411 OFFCURVE",
"273 411 CURVE SMOOTH",
"295 411 OFFCURVE",
"300 403 OFFCURVE",
"300 377 CURVE SMOOTH",
"300 335 OFFCURVE",
"296 275 OFFCURVE",
"296 232 CURVE",
"296 176 LINE"
);
},
{
closed = 1;
nodes = (
"163 184 LINE",
"163 308 LINE",
"64 308 LINE",
"64 184 LINE"
);
},
{
closed = 1;
nodes = (
"374 -181 OFFCURVE",
"395 -119 OFFCURVE",
"395 -27 CURVE SMOOTH",
"395 200 LINE",
"296 200 LINE",
"296 -16 LINE SMOOTH",
"296 -100 OFFCURVE",
"280 -115 OFFCURVE",
"261 -115 CURVE SMOOTH",
"248 -115 OFFCURVE",
"238 -108 OFFCURVE",
"221 -98 CURVE",
"205 -124 LINE",
"241 -150 OFFCURVE",
"294 -181 OFFCURVE",
"329 -181 CURVE SMOOTH"
);
}
);
width = 444;
}
);
leftKerningGroup = n;
leftMetricsKey = n;
rightKerningGroup = j;
unicode = 014B;
},
{
glyphname = oslash;
lastChange = "2023-12-05 09:52:54 +0000";
layers = (
{
anchors = (
{
name = bottom;
position = "{207, 9}";
},
{
name = top;
position = "{212, 494}";
}
);
layerId = m002;
paths = (
{
closed = 1;
nodes = (
"41 2 LINE",
"86 -26 LINE",
"372 494 LINE",
"326 520 LINE"
);
},
{
closed = 1;
nodes = (
"330 5 OFFCURVE",
"372 64 OFFCURVE",
"372 150 CURVE SMOOTH",
"372 242 OFFCURVE",
"375 288 OFFCURVE",
"375 339 CURVE SMOOTH",
"375 400 OFFCURVE",
"257 499 OFFCURVE",
"183 499 CURVE SMOOTH",
"93 499 OFFCURVE",
"39 456 OFFCURVE",
"39 363 CURVE SMOOTH",
"39 247 OFFCURVE",
"32 171 OFFCURVE",
"32 155 CURVE SMOOTH",
"32 82 OFFCURVE",
"170 5 OFFCURVE",
"235 5 CURVE SMOOTH"
);
},
{
closed = 1;
nodes = (
"149 85 OFFCURVE",
"120 98 OFFCURVE",
"120 113 CURVE SMOOTH",
"120 136 OFFCURVE",
"134 197 OFFCURVE",
"134 325 CURVE SMOOTH",
"134 393 OFFCURVE",
"172 413 OFFCURVE",
"230 413 CURVE SMOOTH",
"268 413 OFFCURVE",
"290 400 OFFCURVE",
"290 377 CURVE SMOOTH",
"290 349 OFFCURVE",
"277 251 OFFCURVE",
"277 177 CURVE SMOOTH",
"277 117 OFFCURVE",
"245 85 OFFCURVE",
"178 85 CURVE SMOOTH"
);
}
);
width = 417;
}
);
leftKerningGroup = c;
rightKerningGroup = o;
unicode = 00F8;
},
{
glyphname = thorn;
lastChange = "2023-12-05 09:52:54 +0000";
layers = (
{
components = (
{
name = bottom;
transform = "{1, 0, 0, 1, 6, -175}";
},
{
name = ascender3;
transform = "{1, 0, 0, 1, 9, 5}";
}
);
layerId = m002;
paths = (
{
closed = 1;
nodes = (
"343 9 OFFCURVE",
"392 64 OFFCURVE",
"392 151 CURVE SMOOTH",
"392 243 OFFCURVE",
"394 311 OFFCURVE",
"394 349 CURVE SMOOTH",
"394 391 OFFCURVE",
"303 501 OFFCURVE",
"244 501 CURVE SMOOTH",
"233 501 LINE SMOOTH",
"196 501 OFFCURVE",
"158 485 OFFCURVE",
"139 462 CURVE",
"155 317 LINE",
"155 388 OFFCURVE",
"198 408 OFFCURVE",
"268 408 CURVE SMOOTH",
"294 408 OFFCURVE",
"296 390 OFFCURVE",
"296 371 CURVE SMOOTH",
"296 331 OFFCURVE",
"293 251 OFFCURVE",
"293 187 CURVE SMOOTH",
"293 127 OFFCURVE",
"265 92 OFFCURVE",
"193 92 CURVE SMOOTH",
"171 92 OFFCURVE",
"149 96 OFFCURVE",
"135 103 CURVE",
"135 51 LINE",
"164 32 OFFCURVE",
"211 9 OFFCURVE",
"266 9 CURVE SMOOTH"
);
},
{
closed = 1;
nodes = (
"155 -30 LINE",
"155 433 LINE",
"56 433 LINE",
"56 -30 LINE"
);
}
);
width = 432;
}
);
leftKerningGroup = thorn;
leftMetricsKey = h;
rightKerningGroup = p;
rightMetricsKey = p;
unicode = 00FE;
},
{
glyphname = germandbls;
lastChange = "2023-12-05 09:52:54 +0000";
layers = (
{
components = (
{
alignment = -1;
name = "_H-bottom";
transform = "{1, 0, 0, 1, 22, 27}";
},
{
name = spur1;
transform = "{1, 0, 0, 1, 24, -10}";
}
);
layerId = m002;
paths = (
{
closed = 1;
nodes = (
"241 84 LINE",
"278 2 LINE",
"368 2 OFFCURVE",
"433 50 OFFCURVE",
"433 144 CURVE SMOOTH",
"433 202 OFFCURVE",
"423 223 OFFCURVE",
"381 267 CURVE SMOOTH",
"347 302 LINE SMOOTH",
"335 314 OFFCURVE",
"329 318 OFFCURVE",
"329 327 CURVE SMOOTH",
"329 339 OFFCURVE",
"332 346 OFFCURVE",
"348 364 CURVE SMOOTH",
"372 392 LINE SMOOTH",
"397 422 OFFCURVE",
"405 435 OFFCURVE",
"405 493 CURVE SMOOTH",
"405 526 LINE SMOOTH",
"405 590 OFFCURVE",
"287 677 OFFCURVE",
"224 677 CURVE SMOOTH",
"129 677 OFFCURVE",
"78 637 OFFCURVE",
"78 526 CURVE SMOOTH",
"78 441 LINE",
"78 256 LINE",
"172 256 LINE",
"172 397 LINE",
"172 487 LINE SMOOTH",
"172 565 OFFCURVE",
"200 595 OFFCURVE",
"271 595 CURVE SMOOTH",
"298 595 OFFCURVE",
"308 581 OFFCURVE",
"308 544 CURVE SMOOTH",
"308 526 LINE SMOOTH",
"308 495 OFFCURVE",
"301 473 OFFCURVE",
"282 449 CURVE SMOOTH",
"247 406 LINE SMOOTH",
"225 379 OFFCURVE",
"224 372 OFFCURVE",
"224 359 CURVE SMOOTH",
"224 340 OFFCURVE",
"232 332 OFFCURVE",
"262 304 CURVE SMOOTH",
"302 267 LINE SMOOTH",
"337 234 OFFCURVE",
"340 213 OFFCURVE",
"340 186 CURVE SMOOTH",
"340 124 OFFCURVE",
"311 103 OFFCURVE",
"247 94 CURVE"
);
}
);
width = 465;
}
);
leftKerningGroup = germandbls;
rightKerningGroup = germandbls;
unicode = 00DF;
},
{
glyphname = uogonek;
lastChange = "2023-12-05 09:52:54 +0000";
layers = (
{
anchors = (
{
name = bottom;
position = "{226, 9}";
},
{
name = top;
position = "{211, 494}";
}
);
components = (
{
name = spur1.2;
transform = "{1, 0, 0, 1, 8, -10}";
},
{
name = spur1.2;
transform = "{1, 0, 0, 1, 241, -10}";
}
);
layerId = m002;
paths = (
{
closed = 1;
nodes = (
"434 29 LINE",
"398 48 OFFCURVE",
"384 62 OFFCURVE",
"384 84 CURVE SMOOTH",
"384 101 OFFCURVE",
"388 135 OFFCURVE",
"388 208 CURVE SMOOTH",
"388 304 LINE",
"289 304 LINE",
"289 172 LINE SMOOTH",
"289 119 OFFCURVE",
"236 90 OFFCURVE",
"186 90 CURVE SMOOTH",
"163 90 OFFCURVE",
"152 99 OFFCURVE",
"152 118 CURVE SMOOTH",
"152 134 OFFCURVE",
"155 168 OFFCURVE",
"155 256 CURVE SMOOTH",
"155 304 LINE",
"56 304 LINE",
"56 263 LINE SMOOTH",
"56 206 OFFCURVE",
"51 158 OFFCURVE",
"51 138 CURVE SMOOTH",
"51 78 OFFCURVE",
"192 5 OFFCURVE",
"239 5 CURVE SMOOTH",
"283 5 OFFCURVE",
"321 30 OFFCURVE",
"341 66 CURVE",
"322 50 LINE",
"350 31 OFFCURVE",
"384 15 OFFCURVE",
"421 3 CURVE"
);
},
{
closed = 1;
nodes = (
"437 -114 LINE",
"378 -110 OFFCURVE",
"368 -102 OFFCURVE",
"368 -79 CURVE SMOOTH",
"368 -51 OFFCURVE",
"385 -27 OFFCURVE",
"422 5 CURVE",
"352 44 LINE",
"318 12 OFFCURVE",
"287 -26 OFFCURVE",
"287 -71 CURVE SMOOTH",
"287 -123 OFFCURVE",
"328 -157 OFFCURVE",
"437 -157 CURVE"
);
}
);
width = 447;
}
);
leftKerningGroup = u;
rightKerningGroup = i;
unicode = 0173;
},
{
glyphname = T_T;
lastChange = "2023-12-05 09:52:54 +0000";
layers = (
{
anchors = (
{
name = caret_1;
position = "{359, 0}";
}
);
layerId = m002;
paths = (
{
closed = 1;
nodes = (
"567 288 LINE",
"567 441 LINE SMOOTH",
"567 496 OFFCURVE",
"575 542 OFFCURVE",
"588 566 CURVE",
"572 556 LINE",
"706 566 LINE",
"710 577 LINE",
"671 639 LINE",
"312 639 LINE",
"304 617 LINE",
"360 527 LINE",
"371 527 LINE",
"387 548 OFFCURVE",
"423 556 OFFCURVE",
"453 556 CURVE",
"516 556 LINE",
"481 568 LINE",
"471 539 OFFCURVE",
"466 493 OFFCURVE",
"466 436 CURVE SMOOTH",
"466 288 LINE"
);
},
{
closed = 1;
nodes = (
"278 31 LINE",
"248 45 OFFCURVE",
"235 55 OFFCURVE",
"235 68 CURVE SMOOTH",
"235 87 OFFCURVE",
"240 118 OFFCURVE",
"240 176 CURVE SMOOTH",
"240 333 LINE",
"139 333 LINE",
"139 198 LINE SMOOTH",
"139 111 OFFCURVE",
"131 95 OFFCURVE",
"131 74 CURVE SMOOTH",
"131 58 OFFCURVE",
"177 31 OFFCURVE",
"265 2 CURVE"
);
},
{
closed = 1;
nodes = (
"240 288 LINE",
"240 441 LINE SMOOTH",
"240 496 OFFCURVE",
"248 542 OFFCURVE",
"261 566 CURVE",
"245 556 LINE",
"379 566 LINE",
"383 577 LINE",
"344 639 LINE",
"-15 639 LINE",
"-22 623 LINE",
"43 527 LINE",
"64 527 LINE",
"76 541 OFFCURVE",
"106 556 OFFCURVE",
"136 556 CURVE",
"189 556 LINE",
"154 568 LINE",
"144 539 OFFCURVE",
"139 493 OFFCURVE",
"139 436 CURVE SMOOTH",
"139 288 LINE"
);
},
{
closed = 1;
nodes = (
"605 31 LINE",
"575 45 OFFCURVE",
"562 55 OFFCURVE",
"562 68 CURVE SMOOTH",
"562 87 OFFCURVE",
"567 118 OFFCURVE",
"567 176 CURVE SMOOTH",
"567 333 LINE",
"466 333 LINE",
"466 198 LINE SMOOTH",
"466 111 OFFCURVE",
"458 95 OFFCURVE",
"458 74 CURVE SMOOTH",
"458 58 OFFCURVE",
"504 31 OFFCURVE",
"592 2 CURVE"
);
},
{
closed = 1;
nodes = (
"357 527 LINE",
"400 569 LINE",
"352 639 LINE",
"128 639 LINE",
"157 556 LINE",
"271 556 LINE SMOOTH",
"303 556 OFFCURVE",
"329 550 OFFCURVE",
"350 527 CURVE"
);
},
{
closed = 1;
nodes = (
"677 527 LINE",
"727 569 LINE",
"679 639 LINE",
"455 639 LINE",
"484 556 LINE",
"588 556 LINE SMOOTH",
"620 556 OFFCURVE",
"635 551 OFFCURVE",
"660 527 CURVE"
);
}
);
userData = {
com.hugojourdan.ColorFlow = {
"0" = 0;
"1" = 0;
"10" = 0;
"11" = 0;
"2" = 0;
"3" = 0;
"4" = 0;
"5" = 0;
"6" = 0;
"7" = 0;
"8" = 0;
"9" = 0;
};
};
width = 730;
}
);
leftKerningGroup = T;
leftMetricsKey = T;
rightKerningGroup = T;
rightMetricsKey = T;
script = latin;
category = Letter;
subCategory = Spacing;
},
{
glyphname = T_Y;
lastChange = "2023-12-05 09:52:54 +0000";
layers = (
{
anchors = (
{
name = bottom;
position = "{201, 9}";
},
{
name = caret_1;
position = "{387, 0}";
},
{
name = top;
position = "{188, 639}";
}
);
components = (
{
name = "_H-bottom";
transform = "{1, 0, 0, 1, 90, 31}";
},
{
name = Y;
transform = "{1, 0, 0, 1, 344, 0}";
}
);
layerId = m002;
paths = (
{
closed = 1;
nodes = (
"240 288 LINE",
"240 441 LINE SMOOTH",
"240 496 OFFCURVE",
"248 542 OFFCURVE",
"261 566 CURVE",
"245 556 LINE",
"379 566 LINE",
"383 577 LINE",
"344 639 LINE",
"-15 639 LINE",
"-22 623 LINE",
"43 527 LINE",
"64 527 LINE",
"76 541 OFFCURVE",
"106 556 OFFCURVE",
"136 556 CURVE",
"189 556 LINE",
"154 568 LINE",
"144 539 OFFCURVE",
"139 493 OFFCURVE",
"139 436 CURVE SMOOTH",
"139 288 LINE"
);
},
{
closed = 1;
nodes = (
"400 556 LINE",
"352 639 LINE",
"128 639 LINE",
"157 556 LINE",
"261 556 LINE"
);
}
);
userData = {
com.hugojourdan.ColorFlow = {
"0" = 0;
"1" = 0;
"10" = 0;
"11" = 0;
"2" = 0;
"3" = 0;
"4" = 0;
"5" = 0;
"6" = 0;
"7" = 0;
"8" = 0;
"9" = 0;
};
};
width = 774;
}
);
leftKerningGroup = T;
leftMetricsKey = T;
rightKerningGroup = Y;
rightMetricsKey = Y;
script = latin;
category = Letter;
subCategory = Spacing;
},
{
glyphname = r_narrow;
lastChange = "2023-12-05 09:52:54 +0000";
layers = (
{
anchors = (
{
name = bottom;
position = "{145, 9}";
},
{
name = top;
position = "{137, 494}";
}
);
components = (
{
name = spur1;
transform = "{1, 0, 0, 1, 19, -10}";
}
);
layerId = m002;
paths = (
{
closed = 1;
nodes = (
"233 22 LINE",
"165 49 OFFCURVE",
"160 50 OFFCURVE",
"160 63 CURVE SMOOTH",
"160 75 OFFCURVE",
"165 110 OFFCURVE",
"165 177 CURVE SMOOTH",
"165 315 LINE",
"66 315 LINE",
"66 191 LINE SMOOTH",
"66 115 OFFCURVE",
"59 83 OFFCURVE",
"59 69 CURVE SMOOTH",
"59 57 OFFCURVE",
"106 28 OFFCURVE",
"221 -9 CURVE"
);
},
{
closed = 1;
nodes = (
"165 374 OFFCURVE",
"212 414 OFFCURVE",
"283 414 CURVE",
"289 429 LINE",
"239 495 LINE",
"199 499 OFFCURVE",
"139 477 OFFCURVE",
"123 419 CURVE",
"165 266 LINE"
);
}
);
userData = {
com.hugojourdan.ColorFlow = {
"0" = 0;
"1" = 0;
"10" = 0;
"11" = 0;
"2" = 0;
"3" = 0;
"4" = 0;
"5" = 0;
"6" = 0;
"7" = 0;
"8" = 0;
"9" = 0;
};
};
width = 307;
}
);
leftKerningGroup = n;
rightKerningGroup = r;
script = latin;
category = Letter;
subCategory = Spacing;
},
{
glyphname = c_t;
lastChange = "2023-12-05 09:52:54 +0000";
layers = (
{
anchors = (
{
name = caret_1;
position = "{397, 0}";
}
);
components = (
{
name = c;
},
{
name = t;
transform = "{1, 0, 0, 1, 385, 0}";
}
);
layerId = m002;
paths = (
{
closed = 1;
nodes = (
"292 465 OFFCURVE",
"277 488 OFFCURVE",
"277 532 CURVE SMOOTH",
"277 606 OFFCURVE",
"320 648 OFFCURVE",
"395 648 CURVE SMOOTH",
"439 648 OFFCURVE",
"463 626 OFFCURVE",
"463 579 CURVE SMOOTH",
"463 558 OFFCURVE",
"459 544 OFFCURVE",
"456 532 CURVE",
"544 561 LINE",
"542 630 OFFCURVE",
"467 734 OFFCURVE",
"359 734 CURVE SMOOTH",
"263 734 OFFCURVE",
"204 680 OFFCURVE",
"204 590 CURVE SMOOTH",
"204 541 OFFCURVE",
"228 483 OFFCURVE",
"267 456 CURVE",
"325 423 LINE"
);
}
);
userData = {
com.hugojourdan.ColorFlow = {
"0" = 0;
"1" = 0;
"10" = 0;
"11" = 0;
"2" = 0;
"3" = 0;
"4" = 0;
"5" = 0;
"6" = 0;
"7" = 0;
"8" = 0;
"9" = 0;
};
};
width = 695;
}
);
leftKerningGroup = c;
leftMetricsKey = c;
rightKerningGroup = t;
rightMetricsKey = t;
},
{
glyphname = f_b;
lastChange = "2023-12-05 09:52:54 +0000";
layers = (
{
anchors = (
{
name = caret_1;
position = "{308, 0}";
}
);
layerId = m002;
paths = (
{
closed = 1;
nodes = (
"608 5 OFFCURVE",
"657 64 OFFCURVE",
"657 152 CURVE SMOOTH",
"657 233 OFFCURVE",
"660 317 OFFCURVE",
"660 347 CURVE SMOOTH",
"660 391 OFFCURVE",
"556 501 OFFCURVE",
"503 501 CURVE SMOOTH",
"456 501 OFFCURVE",
"415 478 OFFCURVE",
"402 462 CURVE",
"418 313 LINE",
"418 378 OFFCURVE",
"448 411 OFFCURVE",
"523 411 CURVE SMOOTH",
"555 411 OFFCURVE",
"561 398 OFFCURVE",
"561 379 CURVE SMOOTH",
"560 336 OFFCURVE",
"558 264 OFFCURVE",
"558 202 CURVE SMOOTH",
"558 123 OFFCURVE",
"512 89 OFFCURVE",
"443 89 CURVE SMOOTH",
"422 89 OFFCURVE",
"412 95 OFFCURVE",
"412 107 CURVE SMOOTH",
"412 122 OFFCURVE",
"418 188 OFFCURVE",
"418 254 CURVE SMOOTH",
"418 447 LINE",
"319 447 LINE",
"318 279 LINE SMOOTH",
"318 198 OFFCURVE",
"312 161 OFFCURVE",
"312 121 CURVE SMOOTH",
"312 66 OFFCURVE",
"473 5 OFFCURVE",
"513 5 CURVE SMOOTH"
);
},
{
closed = 1;
nodes = (
"209 24 LINE",
"168 42 OFFCURVE",
"162 48 OFFCURVE",
"162 61 CURVE SMOOTH",
"162 80 OFFCURVE",
"168 113 OFFCURVE",
"168 161 CURVE SMOOTH",
"168 289 LINE SMOOTH",
"168 355 OFFCURVE",
"171 398 OFFCURVE",
"185 422 CURVE",
"84 422 LINE",
"71 389 OFFCURVE",
"69 358 OFFCURVE",
"69 299 CURVE SMOOTH",
"69 172 LINE SMOOTH",
"69 134 OFFCURVE",
"61 95 OFFCURVE",
"61 76 CURVE SMOOTH",
"61 54 OFFCURVE",
"115 25 OFFCURVE",
"195 -3 CURVE"
);
},
{
closed = 1;
nodes = (
"283 409 LINE",
"292 424 LINE",
"239 494 LINE",
"-16 494 LINE",
"-23 477 LINE",
"34 409 LINE"
);
},
{
closed = 1;
nodes = (
"418 420 LINE",
"418 455 LINE SMOOTH",
"418 522 OFFCURVE",
"423 598 OFFCURVE",
"423 615 CURVE SMOOTH",
"423 646 OFFCURVE",
"340 720 OFFCURVE",
"223 720 CURVE SMOOTH",
"119 720 OFFCURVE",
"60 674 OFFCURVE",
"60 591 CURVE SMOOTH",
"60 549 OFFCURVE",
"80 506 OFFCURVE",
"110 483 CURVE",
"173 483 LINE",
"153 495 OFFCURVE",
"139 516 OFFCURVE",
"139 547 CURVE SMOOTH",
"139 598 OFFCURVE",
"184 619 OFFCURVE",
"254 619 CURVE SMOOTH",
"296 619 OFFCURVE",
"318 615 OFFCURVE",
"347 606 CURVE",
"329 648 LINE",
"324 620 OFFCURVE",
"319 527 OFFCURVE",
"319 447 CURVE SMOOTH",
"319 420 LINE"
);
}
);
userData = {
com.hugojourdan.ColorFlow = {
"0" = 0;
"1" = 0;
"10" = 0;
"11" = 0;
"2" = 0;
"3" = 0;
"4" = 0;
"5" = 0;
"6" = 0;
"7" = 0;
"8" = 0;
"9" = 0;
};
};
width = 697;
}
);
leftKerningGroup = f;
leftMetricsKey = f;
rightKerningGroup = b;
rightMetricsKey = b;
},
{
glyphname = f_f;
lastChange = "2023-12-05 09:52:54 +0000";
layers = (
{
anchors = (
{
name = caret_1;
position = "{246, 0}";
}
);
components = (
{
name = f;
transform = "{1, 0, 0, 1, 248, 0}";
},
{
name = "_half-f";
transform = "{1, 0, 0, 1, -9, 0}";
}
);
layerId = m002;
paths = (
{
closed = 1;
nodes = (
"208 409 LINE",
"310 409 LINE",
"310 494 LINE",
"208 494 LINE"
);
}
);
userData = {
com.hugojourdan.ColorFlow = {
"0" = 0;
"1" = 0;
"10" = 0;
"11" = 0;
"2" = 0;
"3" = 0;
"4" = 0;
"5" = 0;
"6" = 0;
"7" = 0;
"8" = 0;
"9" = 0;
};
};
width = 502;
}
);
leftKerningGroup = f;
leftMetricsKey = f;
rightKerningGroup = f;
rightMetricsKey = f;
},
{
glyphname = f_f_h;
lastChange = "2023-12-05 09:52:54 +0000";
layers = (
{
anchors = (
{
name = caret_1;
position = "{248, 0}";
},
{
name = caret_2;
position = "{492, 0}";
}
);
components = (
{
name = f_h;
transform = "{1, 0, 0, 1, 253, 0}";
},
{
name = "_half-f";
transform = "{1, 0, 0, 1, -9, 0}";
}
);
layerId = m002;
paths = (
{
closed = 1;
nodes = (
"200 409 LINE",
"290 409 LINE",
"290 494 LINE",
"200 494 LINE"
);
}
);
userData = {
com.hugojourdan.ColorFlow = {
"0" = 0;
"1" = 0;
"10" = 0;
"11" = 0;
"2" = 0;
"3" = 0;
"4" = 0;
"5" = 0;
"6" = 0;
"7" = 0;
"8" = 0;
"9" = 0;
};
};
width = 952;
}
);
leftKerningGroup = f;
leftMetricsKey = f;
rightKerningGroup = h;
rightMetricsKey = h;
},
{
glyphname = f_f_i;
lastChange = "2023-12-05 09:52:54 +0000";
layers = (
{
anchors = (
{
name = caret_1;
position = "{248, 0}";
},
{
name = caret_2;
position = "{492, 0}";
}
);
components = (
{
name = f_i;
transform = "{1, 0, 0, 1, 248, 0}";
},
{
name = "_half-f";
transform = "{1, 0, 0, 1, -9, 0}";
}
);
layerId = m002;
paths = (
{
closed = 1;
nodes = (
"196 409 LINE",
"292 409 LINE",
"292 494 LINE",
"196 494 LINE"
);
}
);
userData = {
com.hugojourdan.ColorFlow = {
"0" = 0;
"1" = 0;
"10" = 0;
"11" = 0;
"2" = 0;
"3" = 0;
"4" = 0;
"5" = 0;
"6" = 0;
"7" = 0;
"8" = 0;
"9" = 0;
};
};
width = 727;
}
);
leftKerningGroup = f;
leftMetricsKey = f;
rightKerningGroup = i;
rightMetricsKey = i;
},
{
glyphname = f_f_j;
lastChange = "2023-12-05 09:52:54 +0000";
layers = (
{
anchors = (
{
name = caret_1;
position = "{248, 0}";
},
{
name = caret_2;
position = "{492, 0}";
}
);
components = (
{
name = f_j;
transform = "{1, 0, 0, 1, 248, 0}";
},
{
name = "_half-f";
transform = "{1, 0, 0, 1, -9, 0}";
}
);
layerId = m002;
paths = (
{
closed = 1;
nodes = (
"204 409 LINE",
"297 409 LINE",
"297 494 LINE",
"204 494 LINE"
);
}
);
userData = {
com.hugojourdan.ColorFlow = {
"0" = 0;
"1" = 0;
"10" = 0;
"11" = 0;
"2" = 0;
"3" = 0;
"4" = 0;
"5" = 0;
"6" = 0;
"7" = 0;
"8" = 0;
"9" = 0;
};
};
width = 725;
}
);
leftKerningGroup = f;
leftMetricsKey = f;
rightKerningGroup = j;
rightMetricsKey = j;
},
{
glyphname = f_f_l;
lastChange = "2023-12-05 09:52:54 +0000";
layers = (
{
anchors = (
{
name = caret_1;
position = "{248, 0}";
},
{
name = caret_2;
position = "{492, 0}";
}
);
components = (
{
name = f_l;
transform = "{1, 0, 0, 1, 248, 0}";
},
{
name = "_half-f";
transform = "{1, 0, 0, 1, -9, 0}";
}
);
layerId = m002;
paths = (
{
closed = 1;
nodes = (
"199 409 LINE",
"301 409 LINE",
"301 494 LINE",
"199 494 LINE"
);
}
);
userData = {
com.hugojourdan.ColorFlow = {
"0" = 0;
"1" = 0;
"10" = 0;
"11" = 0;
"2" = 0;
"3" = 0;
"4" = 0;
"5" = 0;
"6" = 0;
"7" = 0;
"8" = 0;
"9" = 0;
};
};
width = 727;
}
);
leftKerningGroup = f;
leftMetricsKey = f;
rightKerningGroup = l;
rightMetricsKey = l;
},
{
glyphname = f_h;
lastChange = "2023-12-05 09:52:54 +0000";
layers = (
{
anchors = (
{
name = caret_1;
position = "{302, 0}";
}
);
components = (
{
name = bottom;
transform = "{1, 0, 0, 1, 268, 33}";
},
{
name = bottom;
transform = "{1, 0, 0, 1, 495, 33}";
}
);
layerId = m002;
paths = (
{
closed = 1;
nodes = (
"644 176 LINE",
"644 242 LINE SMOOTH",
"644 273 OFFCURVE",
"648 331 OFFCURVE",
"648 364 CURVE SMOOTH",
"648 401 OFFCURVE",
"560 501 OFFCURVE",
"502 501 CURVE SMOOTH",
"451 501 OFFCURVE",
"405 474 OFFCURVE",
"398 431 CURVE",
"417 304 LINE",
"417 370 OFFCURVE",
"447 411 OFFCURVE",
"522 411 CURVE SMOOTH",
"544 411 OFFCURVE",
"549 403 OFFCURVE",
"549 377 CURVE SMOOTH",
"549 335 OFFCURVE",
"545 275 OFFCURVE",
"545 232 CURVE",
"545 176 LINE"
);
},
{
closed = 1;
nodes = (
"417 181 LINE",
"417 448 LINE",
"318 448 LINE",
"318 181 LINE"
);
},
{
closed = 1;
nodes = (
"209 24 LINE",
"168 42 OFFCURVE",
"162 48 OFFCURVE",
"162 61 CURVE SMOOTH",
"162 80 OFFCURVE",
"168 113 OFFCURVE",
"168 161 CURVE SMOOTH",
"168 289 LINE SMOOTH",
"168 355 OFFCURVE",
"171 398 OFFCURVE",
"185 422 CURVE",
"84 422 LINE",
"71 389 OFFCURVE",
"69 358 OFFCURVE",
"69 299 CURVE SMOOTH",
"69 172 LINE SMOOTH",
"69 134 OFFCURVE",
"61 95 OFFCURVE",
"61 76 CURVE SMOOTH",
"61 54 OFFCURVE",
"115 25 OFFCURVE",
"195 -3 CURVE"
);
},
{
closed = 1;
nodes = (
"283 409 LINE",
"292 424 LINE",
"239 494 LINE",
"-16 494 LINE",
"-23 477 LINE",
"34 409 LINE"
);
},
{
closed = 1;
nodes = (
"418 420 LINE",
"418 455 LINE SMOOTH",
"418 522 OFFCURVE",
"423 598 OFFCURVE",
"423 615 CURVE SMOOTH",
"423 646 OFFCURVE",
"340 720 OFFCURVE",
"223 720 CURVE SMOOTH",
"119 720 OFFCURVE",
"60 674 OFFCURVE",
"60 591 CURVE SMOOTH",
"60 549 OFFCURVE",
"80 506 OFFCURVE",
"110 483 CURVE",
"173 483 LINE",
"153 495 OFFCURVE",
"139 516 OFFCURVE",
"139 547 CURVE SMOOTH",
"139 598 OFFCURVE",
"184 619 OFFCURVE",
"254 619 CURVE SMOOTH",
"296 619 OFFCURVE",
"318 615 OFFCURVE",
"347 606 CURVE",
"329 648 LINE",
"324 620 OFFCURVE",
"319 527 OFFCURVE",
"319 447 CURVE SMOOTH",
"319 420 LINE"
);
}
);
userData = {
com.hugojourdan.ColorFlow = {
"0" = 0;
"1" = 0;
"10" = 0;
"11" = 0;
"2" = 0;
"3" = 0;
"4" = 0;
"5" = 0;
"6" = 0;
"7" = 0;
"8" = 0;
"9" = 0;
};
};
width = 699;
}
);
leftKerningGroup = f;
leftMetricsKey = f;
rightKerningGroup = h;
rightMetricsKey = h;
},
{
glyphname = f_i;
lastChange = "2023-12-05 09:52:54 +0000";
layers = (
{
anchors = (
{
name = caret_1;
position = "{264, 0}";
}
);
components = (
{
name = bottom;
transform = "{1, 0, 0, 1, 264, 33}";
},
{
name = spur1.2;
transform = "{1, 0, 0, 1, 266, -10}";
}
);
layerId = m002;
paths = (
{
closed = 1;
nodes = (
"148 502 OFFCURVE",
"138 524 OFFCURVE",
"138 550 CURVE SMOOTH",
"138 590 OFFCURVE",
"164 613 OFFCURVE",
"221 613 CURVE SMOOTH",
"266 613 OFFCURVE",
"316 590 OFFCURVE",
"352 548 CURVE",
"374 568 OFFCURVE",
"403 590 OFFCURVE",
"430 609 CURVE",
"431 621 LINE",
"371 688 LINE",
"340 673 OFFCURVE",
"311 650 OFFCURVE",
"292 627 CURVE",
"315 627 LINE",
"248 701 LINE",
"231 708 OFFCURVE",
"209 713 OFFCURVE",
"186 713 CURVE SMOOTH",
"95 713 OFFCURVE",
"54 668 OFFCURVE",
"54 606 CURVE SMOOTH",
"54 554 OFFCURVE",
"82 509 OFFCURVE",
"110 486 CURVE",
"166 489 LINE"
);
},
{
closed = 1;
nodes = (
"209 24 LINE",
"168 42 OFFCURVE",
"162 48 OFFCURVE",
"162 61 CURVE SMOOTH",
"162 80 OFFCURVE",
"168 113 OFFCURVE",
"168 161 CURVE SMOOTH",
"168 289 LINE SMOOTH",
"168 355 OFFCURVE",
"171 398 OFFCURVE",
"185 422 CURVE",
"84 422 LINE",
"71 389 OFFCURVE",
"69 358 OFFCURVE",
"69 299 CURVE SMOOTH",
"69 172 LINE SMOOTH",
"69 134 OFFCURVE",
"61 95 OFFCURVE",
"61 76 CURVE SMOOTH",
"61 54 OFFCURVE",
"115 25 OFFCURVE",
"195 -3 CURVE"
);
},
{
closed = 1;
nodes = (
"304 409 LINE",
"313 424 LINE",
"260 494 LINE",
"-16 494 LINE",
"-23 477 LINE",
"34 409 LINE"
);
},
{
closed = 1;
nodes = (
"413 175 LINE",
"413 308 LINE",
"314 308 LINE",
"314 175 LINE"
);
}
);
userData = {
com.hugojourdan.ColorFlow = {
"0" = 0;
"1" = 0;
"10" = 0;
"11" = 0;
"2" = 0;
"3" = 0;
"4" = 0;
"5" = 0;
"6" = 0;
"7" = 0;
"8" = 0;
"9" = 0;
};
};
width = 479;
}
);
leftKerningGroup = f;
leftMetricsKey = f;
rightKerningGroup = i;
rightMetricsKey = i;
},
{
glyphname = f_j;
lastChange = "2023-12-05 09:52:54 +0000";
layers = (
{
anchors = (
{
name = caret_1;
position = "{276, 0}";
}
);
components = (
{
name = spur1.2;
transform = "{1, 0, 0, 1, 265, -10}";
}
);
layerId = m002;
paths = (
{
closed = 1;
nodes = (
"391 -167 OFFCURVE",
"412 -105 OFFCURVE",
"412 -13 CURVE SMOOTH",
"412 310 LINE",
"313 310 LINE",
"313 -2 LINE SMOOTH",
"313 -86 OFFCURVE",
"297 -101 OFFCURVE",
"278 -101 CURVE SMOOTH",
"265 -101 OFFCURVE",
"255 -94 OFFCURVE",
"238 -84 CURVE",
"222 -110 LINE",
"258 -136 OFFCURVE",
"311 -167 OFFCURVE",
"346 -167 CURVE SMOOTH"
);
},
{
closed = 1;
nodes = (
"148 502 OFFCURVE",
"138 524 OFFCURVE",
"138 550 CURVE SMOOTH",
"138 590 OFFCURVE",
"164 613 OFFCURVE",
"222 613 CURVE SMOOTH",
"266 613 OFFCURVE",
"315 590 OFFCURVE",
"351 548 CURVE",
"373 568 OFFCURVE",
"402 590 OFFCURVE",
"429 609 CURVE",
"430 621 LINE",
"370 688 LINE",
"339 673 OFFCURVE",
"310 650 OFFCURVE",
"291 627 CURVE",
"314 627 LINE",
"248 701 LINE",
"231 708 OFFCURVE",
"209 713 OFFCURVE",
"186 713 CURVE SMOOTH",
"95 713 OFFCURVE",
"54 668 OFFCURVE",
"54 606 CURVE SMOOTH",
"54 554 OFFCURVE",
"82 509 OFFCURVE",
"110 486 CURVE",
"166 489 LINE"
);
},
{
closed = 1;
nodes = (
"209 24 LINE",
"168 42 OFFCURVE",
"162 48 OFFCURVE",
"162 61 CURVE SMOOTH",
"162 80 OFFCURVE",
"168 113 OFFCURVE",
"168 161 CURVE SMOOTH",
"168 289 LINE SMOOTH",
"168 355 OFFCURVE",
"171 398 OFFCURVE",
"185 422 CURVE",
"84 422 LINE",
"71 389 OFFCURVE",
"69 358 OFFCURVE",
"69 299 CURVE SMOOTH",
"69 172 LINE SMOOTH",
"69 134 OFFCURVE",
"61 95 OFFCURVE",
"61 76 CURVE SMOOTH",
"61 54 OFFCURVE",
"115 25 OFFCURVE",
"195 -3 CURVE"
);
},
{
closed = 1;
nodes = (
"303 409 LINE",
"312 424 LINE",
"259 494 LINE",
"-16 494 LINE",
"-23 477 LINE",
"34 409 LINE"
);
}
);
userData = {
com.hugojourdan.ColorFlow = {
"0" = 0;
"1" = 0;
"10" = 0;
"11" = 0;
"2" = 0;
"3" = 0;
"4" = 0;
"5" = 0;
"6" = 0;
"7" = 0;
"8" = 0;
"9" = 0;
};
};
width = 477;
}
);
leftKerningGroup = f;
leftMetricsKey = f;
rightKerningGroup = j;
rightMetricsKey = j;
},
{
glyphname = f_k;
lastChange = "2023-12-05 09:52:54 +0000";
layers = (
{
anchors = (
{
name = caret_1;
position = "{302, 0}";
}
);
components = (
{
name = bottom;
transform = "{1, 0, 0, 1, 268, 31}";
}
);
layerId = m002;
paths = (
{
closed = 1;
nodes = (
"688 19 LINE",
"656 40 OFFCURVE",
"641 51 OFFCURVE",
"641 74 CURVE SMOOTH",
"641 98 OFFCURVE",
"644 162 OFFCURVE",
"644 188 CURVE SMOOTH",
"644 225 OFFCURVE",
"585 259 OFFCURVE",
"531 281 CURVE",
"531 268 LINE",
"564 274 OFFCURVE",
"593 307 OFFCURVE",
"614 338 CURVE SMOOTH",
"630 362 OFFCURVE",
"642 384 OFFCURVE",
"655 409 CURVE",
"599 494 LINE",
"487 494 LINE",
"480 478 LINE",
"527 409 LINE",
"564 409 LINE",
"570 422 LINE",
"565 410 OFFCURVE",
"553 397 OFFCURVE",
"530 371 CURVE SMOOTH",
"503 340 OFFCURVE",
"484 326 OFFCURVE",
"442 326 CURVE SMOOTH",
"426 326 OFFCURVE",
"417 328 OFFCURVE",
"411 331 CURVE",
"411 259 LINE",
"449 254 LINE SMOOTH",
"515 245 OFFCURVE",
"544 221 OFFCURVE",
"544 201 CURVE SMOOTH",
"544 167 OFFCURVE",
"540 98 OFFCURVE",
"540 73 CURVE SMOOTH",
"540 53 OFFCURVE",
"586 33 OFFCURVE",
"672 -7 CURVE"
);
},
{
closed = 1;
nodes = (
"417 170 LINE",
"417 437 LINE",
"318 437 LINE",
"318 170 LINE"
);
},
{
closed = 1;
nodes = (
"209 24 LINE",
"168 42 OFFCURVE",
"162 48 OFFCURVE",
"162 61 CURVE SMOOTH",
"162 80 OFFCURVE",
"168 113 OFFCURVE",
"168 161 CURVE SMOOTH",
"168 289 LINE SMOOTH",
"168 355 OFFCURVE",
"171 398 OFFCURVE",
"185 422 CURVE",
"84 422 LINE",
"71 389 OFFCURVE",
"69 358 OFFCURVE",
"69 299 CURVE SMOOTH",
"69 172 LINE SMOOTH",
"69 134 OFFCURVE",
"61 95 OFFCURVE",
"61 76 CURVE SMOOTH",
"61 54 OFFCURVE",
"115 25 OFFCURVE",
"195 -3 CURVE"
);
},
{
closed = 1;
nodes = (
"283 409 LINE",
"292 424 LINE",
"239 494 LINE",
"-16 494 LINE",
"-23 477 LINE",
"34 409 LINE"
);
},
{
closed = 1;
nodes = (
"418 420 LINE",
"418 455 LINE SMOOTH",
"418 522 OFFCURVE",
"423 598 OFFCURVE",
"423 615 CURVE SMOOTH",
"423 646 OFFCURVE",
"340 720 OFFCURVE",
"223 720 CURVE SMOOTH",
"119 720 OFFCURVE",
"60 674 OFFCURVE",
"60 591 CURVE SMOOTH",
"60 549 OFFCURVE",
"80 506 OFFCURVE",
"110 483 CURVE",
"173 483 LINE",
"153 495 OFFCURVE",
"139 516 OFFCURVE",
"139 547 CURVE SMOOTH",
"139 598 OFFCURVE",
"184 619 OFFCURVE",
"254 619 CURVE SMOOTH",
"296 619 OFFCURVE",
"318 615 OFFCURVE",
"347 606 CURVE",
"329 648 LINE",
"324 620 OFFCURVE",
"319 527 OFFCURVE",
"319 447 CURVE SMOOTH",
"319 420 LINE"
);
}
);
userData = {
com.hugojourdan.ColorFlow = {
"0" = 0;
"1" = 0;
"10" = 0;
"11" = 0;
"2" = 0;
"3" = 0;
"4" = 0;
"5" = 0;
"6" = 0;
"7" = 0;
"8" = 0;
"9" = 0;
};
};
width = 695;
}
);
leftKerningGroup = f;
leftMetricsKey = f;
rightKerningGroup = k;
rightMetricsKey = k;
},
{
glyphname = f_l;
lastChange = "2023-12-05 09:52:54 +0000";
layers = (
{
anchors = (
{
name = caret_1;
position = "{248, 0}";
}
);
components = (
{
name = bottom;
transform = "{1, 0, 0, 1, 268, 27}";
}
);
layerId = m002;
paths = (
{
closed = 1;
nodes = (
"209 24 LINE",
"168 42 OFFCURVE",
"162 48 OFFCURVE",
"162 61 CURVE SMOOTH",
"162 80 OFFCURVE",
"168 113 OFFCURVE",
"168 161 CURVE SMOOTH",
"168 289 LINE SMOOTH",
"168 355 OFFCURVE",
"171 398 OFFCURVE",
"185 422 CURVE",
"84 422 LINE",
"71 389 OFFCURVE",
"69 358 OFFCURVE",
"69 299 CURVE SMOOTH",
"69 172 LINE SMOOTH",
"69 134 OFFCURVE",
"61 95 OFFCURVE",
"61 76 CURVE SMOOTH",
"61 54 OFFCURVE",
"115 25 OFFCURVE",
"195 -3 CURVE"
);
},
{
closed = 1;
nodes = (
"283 409 LINE",
"292 424 LINE",
"239 494 LINE",
"-16 494 LINE",
"-23 477 LINE",
"34 409 LINE"
);
},
{
closed = 1;
nodes = (
"417 170 LINE",
"417 455 LINE SMOOTH",
"417 522 OFFCURVE",
"422 598 OFFCURVE",
"422 615 CURVE SMOOTH",
"422 646 OFFCURVE",
"340 720 OFFCURVE",
"223 720 CURVE SMOOTH",
"119 720 OFFCURVE",
"60 674 OFFCURVE",
"60 591 CURVE SMOOTH",
"60 549 OFFCURVE",
"80 506 OFFCURVE",
"110 483 CURVE",
"173 483 LINE",
"153 495 OFFCURVE",
"139 516 OFFCURVE",
"139 547 CURVE SMOOTH",
"139 598 OFFCURVE",
"184 619 OFFCURVE",
"254 619 CURVE SMOOTH",
"296 619 OFFCURVE",
"318 615 OFFCURVE",
"347 606 CURVE",
"328 648 LINE",
"323 620 OFFCURVE",
"318 527 OFFCURVE",
"318 447 CURVE SMOOTH",
"318 170 LINE"
);
}
);
userData = {
com.hugojourdan.ColorFlow = {
"0" = 0;
"1" = 0;
"10" = 0;
"11" = 0;
"2" = 0;
"3" = 0;
"4" = 0;
"5" = 0;
"6" = 0;
"7" = 0;
"8" = 0;
"9" = 0;
};
};
width = 479;
}
);
leftKerningGroup = f;
leftMetricsKey = f;
rightKerningGroup = l;
rightMetricsKey = l;
},
{
glyphname = f_narrow;
lastChange = "2023-12-05 09:52:54 +0000";
layers = (
{
layerId = m002;
paths = (
{
closed = 1;
nodes = (
"209 24 LINE",
"168 42 OFFCURVE",
"162 48 OFFCURVE",
"162 61 CURVE SMOOTH",
"162 80 OFFCURVE",
"168 113 OFFCURVE",
"168 161 CURVE SMOOTH",
"168 289 LINE SMOOTH",
"168 355 OFFCURVE",
"171 398 OFFCURVE",
"185 422 CURVE",
"84 422 LINE",
"71 389 OFFCURVE",
"69 358 OFFCURVE",
"69 299 CURVE SMOOTH",
"69 172 LINE SMOOTH",
"69 134 OFFCURVE",
"61 95 OFFCURVE",
"61 76 CURVE SMOOTH",
"61 54 OFFCURVE",
"115 25 OFFCURVE",
"195 -3 CURVE"
);
},
{
closed = 1;
nodes = (
"263 409 LINE",
"272 424 LINE",
"219 494 LINE",
"-16 494 LINE",
"-23 477 LINE",
"34 409 LINE"
);
},
{
closed = 1;
nodes = (
"150 498 OFFCURVE",
"138 524 OFFCURVE",
"138 554 CURVE SMOOTH",
"138 592 OFFCURVE",
"163 616 OFFCURVE",
"222 616 CURVE SMOOTH",
"240 616 OFFCURVE",
"254 614 OFFCURVE",
"270 610 CURVE",
"280 623 LINE",
"227 698 LINE",
"215 702 OFFCURVE",
"199 705 OFFCURVE",
"181 705 CURVE SMOOTH",
"97 705 OFFCURVE",
"55 664 OFFCURVE",
"55 600 CURVE SMOOTH",
"55 555 OFFCURVE",
"77 510 OFFCURVE",
"114 483 CURVE",
"173 483 LINE"
);
}
);
userData = {
com.hugojourdan.ColorFlow = {
"0" = 0;
"1" = 0;
"10" = 0;
"11" = 0;
"2" = 0;
"3" = 0;
"4" = 0;
"5" = 0;
"6" = 0;
"7" = 0;
"8" = 0;
"9" = 0;
};
};
width = 238;
}
);
leftKerningGroup = f;
rightKerningGroup = f;
},
{
glyphname = f_thorn;
lastChange = "2023-12-05 09:52:54 +0000";
layers = (
{
anchors = (
{
name = caret_1;
position = "{298, 0}";
}
);
components = (
{
name = bottom;
transform = "{1, 0, 0, 1, 268, -175}";
}
);
layerId = m002;
paths = (
{
closed = 1;
nodes = (
"209 24 LINE",
"168 42 OFFCURVE",
"162 48 OFFCURVE",
"162 61 CURVE SMOOTH",
"162 80 OFFCURVE",
"168 113 OFFCURVE",
"168 161 CURVE SMOOTH",
"168 289 LINE SMOOTH",
"168 355 OFFCURVE",
"171 398 OFFCURVE",
"185 422 CURVE",
"84 422 LINE",
"71 389 OFFCURVE",
"69 358 OFFCURVE",
"69 299 CURVE SMOOTH",
"69 172 LINE SMOOTH",
"69 134 OFFCURVE",
"61 95 OFFCURVE",
"61 76 CURVE SMOOTH",
"61 54 OFFCURVE",
"115 25 OFFCURVE",
"195 -3 CURVE"
);
},
{
closed = 1;
nodes = (
"283 409 LINE",
"292 424 LINE",
"239 494 LINE",
"-16 494 LINE",
"-23 477 LINE",
"34 409 LINE"
);
},
{
closed = 1;
nodes = (
"417 170 LINE",
"417 455 LINE SMOOTH",
"417 522 OFFCURVE",
"422 598 OFFCURVE",
"422 615 CURVE SMOOTH",
"422 646 OFFCURVE",
"340 720 OFFCURVE",
"223 720 CURVE SMOOTH",
"119 720 OFFCURVE",
"60 674 OFFCURVE",
"60 591 CURVE SMOOTH",
"60 549 OFFCURVE",
"80 506 OFFCURVE",
"110 483 CURVE",
"173 483 LINE",
"153 495 OFFCURVE",
"139 516 OFFCURVE",
"139 547 CURVE SMOOTH",
"139 598 OFFCURVE",
"184 619 OFFCURVE",
"254 619 CURVE SMOOTH",
"296 619 OFFCURVE",
"318 615 OFFCURVE",
"347 606 CURVE",
"328 648 LINE",
"323 620 OFFCURVE",
"318 527 OFFCURVE",
"318 447 CURVE SMOOTH",
"318 170 LINE"
);
},
{
closed = 1;
nodes = (
"605 9 OFFCURVE",
"654 64 OFFCURVE",
"654 151 CURVE SMOOTH",
"654 243 OFFCURVE",
"656 311 OFFCURVE",
"656 349 CURVE SMOOTH",
"656 391 OFFCURVE",
"565 501 OFFCURVE",
"506 501 CURVE SMOOTH",
"495 501 LINE SMOOTH",
"458 501 OFFCURVE",
"420 485 OFFCURVE",
"401 462 CURVE",
"417 317 LINE",
"417 388 OFFCURVE",
"460 408 OFFCURVE",
"530 408 CURVE SMOOTH",
"556 408 OFFCURVE",
"558 390 OFFCURVE",
"558 371 CURVE SMOOTH",
"558 331 OFFCURVE",
"555 251 OFFCURVE",
"555 187 CURVE SMOOTH",
"555 127 OFFCURVE",
"527 92 OFFCURVE",
"455 92 CURVE SMOOTH",
"433 92 OFFCURVE",
"411 96 OFFCURVE",
"397 103 CURVE",
"397 51 LINE",
"426 32 OFFCURVE",
"473 9 OFFCURVE",
"528 9 CURVE SMOOTH"
);
},
{
closed = 1;
nodes = (
"417 -30 LINE",
"417 433 LINE",
"318 433 LINE",
"318 -30 LINE"
);
}
);
userData = {
com.hugojourdan.ColorFlow = {
"0" = 0;
"1" = 0;
"10" = 0;
"11" = 0;
"2" = 0;
"3" = 0;
"4" = 0;
"5" = 0;
"6" = 0;
"7" = 0;
"8" = 0;
"9" = 0;
};
};
width = 694;
}
);
leftKerningGroup = f;
leftMetricsKey = f;
rightKerningGroup = p;
rightMetricsKey = thorn;
},
{
glyphname = s_t;
lastChange = "2023-12-05 09:52:54 +0000";
layers = (
{
anchors = (
{
name = caret_1;
position = "{379, 0}";
}
);
components = (
{
name = s;
},
{
name = t;
transform = "{1, 0, 0, 1, 380, 0}";
}
);
layerId = m002;
paths = (
{
closed = 1;
nodes = (
"292 466 OFFCURVE",
"277 488 OFFCURVE",
"277 537 CURVE SMOOTH",
"277 606 OFFCURVE",
"314 648 OFFCURVE",
"387 648 CURVE SMOOTH",
"437 648 OFFCURVE",
"460 626 OFFCURVE",
"460 579 CURVE SMOOTH",
"460 563 OFFCURVE",
"457 546 OFFCURVE",
"451 532 CURVE",
"539 561 LINE",
"539 630 OFFCURVE",
"457 734 OFFCURVE",
"350 734 CURVE SMOOTH",
"256 734 OFFCURVE",
"204 680 OFFCURVE",
"204 592 CURVE SMOOTH",
"204 541 OFFCURVE",
"228 489 OFFCURVE",
"267 462 CURVE",
"316 428 LINE"
);
}
);
userData = {
com.hugojourdan.ColorFlow = {
"0" = 0;
"1" = 0;
"10" = 0;
"11" = 0;
"2" = 0;
"3" = 0;
"4" = 0;
"5" = 0;
"6" = 0;
"7" = 0;
"8" = 0;
"9" = 0;
};
};
width = 690;
}
);
leftKerningGroup = s;
leftMetricsKey = s;
rightKerningGroup = t;
rightMetricsKey = t;
},
{
glyphname = t_t;
lastChange = "2023-12-05 09:52:54 +0000";
layers = (
{
anchors = (
{
name = caret_1;
position = "{301, 0}";
}
);
layerId = m002;
paths = (
{
closed = 1;
nodes = (
"247 8 OFFCURVE",
"294 26 OFFCURVE",
"313 49 CURVE",
"266 127 LINE",
"252 127 LINE",
"231 109 OFFCURVE",
"197 94 OFFCURVE",
"174 94 CURVE SMOOTH",
"161 94 OFFCURVE",
"153 100 OFFCURVE",
"153 114 CURVE SMOOTH",
"153 139 OFFCURVE",
"160 160 OFFCURVE",
"160 277 CURVE SMOOTH",
"160 358 OFFCURVE",
"159 456 OFFCURVE",
"159 563 CURVE",
"98 609 LINE",
"81 603 LINE",
"81 532 OFFCURVE",
"70 503 OFFCURVE",
"0 491 CURVE",
"-7 476 LINE",
"44 409 LINE",
"265 409 LINE",
"272 424 LINE",
"222 494 LINE",
"77 494 LINE",
"62 485 LINE",
"62 419 OFFCURVE",
"63 368 OFFCURVE",
"63 321 CURVE SMOOTH",
"63 179 OFFCURVE",
"55 158 OFFCURVE",
"55 128 CURVE SMOOTH",
"55 78 OFFCURVE",
"175 8 OFFCURVE",
"214 8 CURVE SMOOTH"
);
},
{
closed = 1;
nodes = (
"518 8 OFFCURVE",
"565 26 OFFCURVE",
"584 49 CURVE",
"537 127 LINE",
"523 127 LINE",
"499 108 OFFCURVE",
"469 94 OFFCURVE",
"445 94 CURVE SMOOTH",
"432 94 OFFCURVE",
"424 100 OFFCURVE",
"424 114 CURVE SMOOTH",
"424 139 OFFCURVE",
"431 160 OFFCURVE",
"431 277 CURVE SMOOTH",
"431 358 OFFCURVE",
"430 456 OFFCURVE",
"430 563 CURVE",
"369 609 LINE",
"352 603 LINE",
"352 532 OFFCURVE",
"341 503 OFFCURVE",
"293 491 CURVE",
"286 476 LINE",
"333 409 LINE",
"558 409 LINE",
"565 424 LINE",
"515 494 LINE",
"348 494 LINE",
"333 485 LINE",
"333 419 OFFCURVE",
"334 368 OFFCURVE",
"334 321 CURVE SMOOTH",
"334 179 OFFCURVE",
"326 158 OFFCURVE",
"326 128 CURVE SMOOTH",
"326 78 OFFCURVE",
"446 8 OFFCURVE",
"485 8 CURVE SMOOTH"
);
}
);
userData = {
com.hugojourdan.ColorFlow = {
"0" = 0;
"1" = 0;
"10" = 0;
"11" = 0;
"2" = 0;
"3" = 0;
"4" = 0;
"5" = 0;
"6" = 0;
"7" = 0;
"8" = 0;
"9" = 0;
};
};
width = 581;
}
);
leftKerningGroup = t;
leftMetricsKey = t;
rightKerningGroup = t;
rightMetricsKey = t;
},
{
glyphname = ordfeminine;
lastChange = "2023-12-05 09:52:54 +0000";
layers = (
{
layerId = m002;
paths = (
{
closed = 1;
nodes = (
"262 355 LINE",
"239 363 OFFCURVE",
"232 373 OFFCURVE",
"232 396 CURVE SMOOTH",
"231 442 OFFCURVE",
"235 500 OFFCURVE",
"235 548 CURVE SMOOTH",
"235 576 OFFCURVE",
"170 626 OFFCURVE",
"143 626 CURVE SMOOTH",
"104 626 OFFCURVE",
"64 626 OFFCURVE",
"31 626 CURVE",
"26 617 LINE",
"61 548 LINE",
"72 548 LINE",
"92 560 OFFCURVE",
"115 566 OFFCURVE",
"151 566 CURVE SMOOTH",
"164 566 OFFCURVE",
"168 563 OFFCURVE",
"168 554 CURVE SMOOTH",
"168 530 OFFCURVE",
"165 462 OFFCURVE",
"165 439 CURVE SMOOTH",
"165 402 OFFCURVE",
"142 389 OFFCURVE",
"119 389 CURVE SMOOTH",
"108 389 OFFCURVE",
"99 391 OFFCURVE",
"99 407 CURVE SMOOTH",
"99 434 LINE SMOOTH",
"99 462 OFFCURVE",
"114 471 OFFCURVE",
"131 471 CURVE SMOOTH",
"141 471 OFFCURVE",
"155 470 OFFCURVE",
"168 465 CURVE",
"169 510 LINE",
"151 515 OFFCURVE",
"119 518 OFFCURVE",
"97 518 CURVE SMOOTH",
"53 518 OFFCURVE",
"31 497 OFFCURVE",
"31 451 CURVE SMOOTH",
"31 447 OFFCURVE",
"31 429 OFFCURVE",
"31 408 CURVE SMOOTH",
"31 374 OFFCURVE",
"117 335 OFFCURVE",
"151 335 CURVE SMOOTH",
"193 335 OFFCURVE",
"213 358 OFFCURVE",
"222 382 CURVE",
"188 363 LINE",
"208 349 OFFCURVE",
"226 341 OFFCURVE",
"253 332 CURVE"
);
},
{
closed = 1;
nodes = (
"267 233 LINE",
"239 284 LINE",
"32 284 LINE",
"26 275 LINE",
"54 224 LINE",
"261 224 LINE"
);
}
);
width = 273;
}
);
leftKerningGroup = ordfeminine;
rightKerningGroup = ordfeminine;
unicode = 00AA;
},
{
glyphname = ordmasculine;
lastChange = "2023-12-05 09:52:54 +0000";
layers = (
{
layerId = m002;
paths = (
{
closed = 1;
nodes = (
"197 330 OFFCURVE",
"229 365 OFFCURVE",
"229 417 CURVE SMOOTH",
"229 472 OFFCURVE",
"231 513 OFFCURVE",
"231 544 CURVE SMOOTH",
"231 581 OFFCURVE",
"161 626 OFFCURVE",
"123 626 CURVE SMOOTH",
"57 626 OFFCURVE",
"19 601 OFFCURVE",
"19 545 CURVE SMOOTH",
"19 475 OFFCURVE",
"15 415 OFFCURVE",
"15 406 CURVE SMOOTH",
"15 362 OFFCURVE",
"101 330 OFFCURVE",
"140 330 CURVE SMOOTH"
);
},
{
closed = 1;
nodes = (
"97 389 OFFCURVE",
"90 394 OFFCURVE",
"90 403 CURVE SMOOTH",
"90 417 OFFCURVE",
"93 444 OFFCURVE",
"93 521 CURVE SMOOTH",
"93 555 OFFCURVE",
"108 566 OFFCURVE",
"139 566 CURVE SMOOTH",
"154 566 OFFCURVE",
"157 559 OFFCURVE",
"157 547 CURVE SMOOTH",
"157 530 OFFCURVE",
"155 474 OFFCURVE",
"155 436 CURVE SMOOTH",
"155 407 OFFCURVE",
"147 389 OFFCURVE",
"111 389 CURVE SMOOTH"
);
},
{
closed = 1;
nodes = (
"244 233 LINE",
"216 284 LINE",
"22 284 LINE",
"16 275 LINE",
"44 224 LINE",
"238 224 LINE"
);
}
);
width = 246;
}
);
leftKerningGroup = ordmasculine;
rightKerningGroup = ordmasculine;
unicode = 00BA;
},
{
glyphname = periodcentered;
lastChange = "2023-12-05 09:52:54 +0000";
layers = (
{
layerId = m002;
paths = (
{
closed = 1;
nodes = (
"115 246 OFFCURVE",
"137 269 OFFCURVE",
"162 287 CURVE",
"163 298 LINE",
"99 363 LINE",
"72 347 OFFCURVE",
"48 326 OFFCURVE",
"30 304 CURVE",
"30 294 LINE",
"93 227 LINE"
);
}
);
width = 173;
}
);
leftKerningGroup = periodcentered;
leftMetricsKey = period;
rightKerningGroup = periodcentered;
rightMetricsKey = period;
unicode = 00B7;
},
{
glyphname = guilsinglleft;
lastChange = "2023-12-05 09:52:54 +0000";
layers = (
{
layerId = m002;
paths = (
{
closed = 1;
nodes = (
"168 392 OFFCURVE",
"114 332 OFFCURVE",
"53 272 CURVE",
"68 219 LINE",
"114 175 OFFCURVE",
"163 119 OFFCURVE",
"210 59 CURVE",
"255 81 LINE",
"222 144 OFFCURVE",
"188 202 OFFCURVE",
"148 259 CURVE",
"148 241 LINE",
"188 302 OFFCURVE",
"228 361 OFFCURVE",
"256 423 CURVE",
"212 451 LINE"
);
}
);
width = 301;
}
);
leftKerningGroup = guilsingleft;
rightKerningGroup = guilsingleft;
unicode = 2039;
},
{
glyphname = paragraph;
lastChange = "2023-12-05 09:52:54 +0000";
layers = (
{
components = (
{
name = bottom;
transform = "{1, 0, 0, 1, 200, -31}";
}
);
layerId = m002;
paths = (
{
closed = 1;
nodes = (
"349 109 LINE",
"349 381 LINE",
"250 381 LINE",
"250 109 LINE"
);
},
{
closed = 1;
nodes = (
"349 367 LINE",
"349 405 LINE SMOOTH",
"349 473 OFFCURVE",
"354 540 OFFCURVE",
"364 592 CURVE",
"303 670 LINE",
"277 670 LINE",
"277 587 LINE",
"267 590 LINE",
"256 546 OFFCURVE",
"250 457 OFFCURVE",
"250 397 CURVE SMOOTH",
"250 367 LINE"
);
},
{
closed = 1;
nodes = (
"267 670 LINE SMOOTH",
"98 670 OFFCURVE",
"34 597 OFFCURVE",
"34 466 CURVE SMOOTH",
"34 335 OFFCURVE",
"93 262 OFFCURVE",
"250 262 CURVE SMOOTH",
"285 262 LINE",
"285 670 LINE"
);
},
{
closed = 1;
nodes = (
"398 602 LINE",
"346 670 LINE",
"282 670 LINE",
"331 551 LINE",
"398 589 LINE"
);
}
);
width = 437;
}
);
leftKerningGroup = paragraph;
rightKerningGroup = paragraph;
unicode = 00B6;
},
{
glyphname = section;
lastChange = "2023-12-05 09:52:54 +0000";
layers = (
{
layerId = m002;
paths = (
{
closed = 1;
nodes = (
"433 483 LINE",
"395 585 OFFCURVE",
"343 654 OFFCURVE",
"238 654 CURVE SMOOTH",
"122 654 OFFCURVE",
"58 579 OFFCURVE",
"58 455 CURVE SMOOTH",
"58 350 OFFCURVE",
"93 287 OFFCURVE",
"167 200 CURVE SMOOTH",
"327 10 LINE",
"367 50 LINE",
"213 239 LINE SMOOTH",
"158 306 OFFCURVE",
"142 346 OFFCURVE",
"142 396 CURVE SMOOTH",
"142 501 OFFCURVE",
"182 539 OFFCURVE",
"271 539 CURVE SMOOTH",
"332 539 OFFCURVE",
"368 515 OFFCURVE",
"395 470 CURVE"
);
},
{
closed = 1;
nodes = (
"50 73 LINE",
"89 -89 OFFCURVE",
"161 -144 OFFCURVE",
"268 -144 CURVE SMOOTH",
"393 -144 OFFCURVE",
"446 -46 OFFCURVE",
"446 59 CURVE SMOOTH",
"446 147 OFFCURVE",
"425 223 OFFCURVE",
"332 328 CURVE SMOOTH",
"166 517 LINE",
"132 469 LINE",
"284 295 LINE SMOOTH",
"345 225 OFFCURVE",
"368 189 OFFCURVE",
"368 130 CURVE SMOOTH",
"368 48 OFFCURVE",
"312 -32 OFFCURVE",
"204 -32 CURVE SMOOTH",
"148 -32 OFFCURVE",
"114 9 OFFCURVE",
"87 83 CURVE"
);
}
);
width = 478;
}
);
leftKerningGroup = section;
rightKerningGroup = section;
unicode = 00A7;
},
{
glyphname = cent;
lastChange = "2023-12-05 09:52:54 +0000";
layers = (
{
components = (
{
name = c;
}
);
layerId = m002;
paths = (
{
closed = 1;
nodes = (
"244 552 LINE",
"166 592 LINE",
"153 588 LINE",
"153 489 LINE",
"244 468 LINE"
);
},
{
closed = 1;
nodes = (
"240 -85 LINE",
"240 11 LINE",
"149 35 LINE",
"149 -49 LINE",
"227 -89 LINE"
);
}
);
width = 388;
}
);
leftKerningGroup = c;
leftMetricsKey = c;
rightKerningGroup = c;
rightMetricsKey = c;
unicode = 00A2;
},
{
glyphname = rupeeIndian;
lastChange = "2023-12-05 09:52:54 +0000";
layers = (
{
layerId = m002;
paths = (
{
closed = 1;
nodes = (
"436 404 LINE",
"441 418 LINE",
"390 477 LINE",
"33 477 LINE",
"29 463 LINE",
"76 404 LINE"
);
},
{
closed = 1;
nodes = (
"435 556 LINE",
"440 570 LINE",
"384 639 LINE",
"24 639 LINE",
"20 625 LINE",
"75 556 LINE"
);
},
{
closed = 1;
nodes = (
"78 326 OFFCURVE",
"68 312 OFFCURVE",
"68 299 CURVE SMOOTH",
"68 291 OFFCURVE",
"73 281 OFFCURVE",
"85 263 CURVE SMOOTH",
"148 172 OFFCURVE",
"219 79 OFFCURVE",
"294 -2 CURVE",
"341 34 LINE",
"281 95 OFFCURVE",
"221 166 OFFCURVE",
"177 236 CURVE",
"154 221 LINE",
"261 221 OFFCURVE",
"316 281 OFFCURVE",
"316 378 CURVE",
"319 457 LINE",
"319 505 OFFCURVE",
"328 544 OFFCURVE",
"348 563 CURVE",
"242 563 LINE",
"231 544 OFFCURVE",
"222 510 OFFCURVE",
"222 459 CURVE",
"219 397 LINE",
"219 349 OFFCURVE",
"196 316 OFFCURVE",
"146 316 CURVE SMOOTH",
"120 316 OFFCURVE",
"110 326 OFFCURVE",
"95 326 CURVE SMOOTH"
);
}
);
userData = {
com.hugojourdan.ColorFlow = {
"0" = 0;
"1" = 0;
"10" = 0;
"11" = 0;
"2" = 0;
"3" = 0;
"4" = 0;
"5" = 0;
"6" = 0;
"7" = 0;
"8" = 0;
"9" = 0;
};
};
width = 457;
}
);
leftKerningGroup = rupeeIndian;
rightKerningGroup = rupeeIndian;
unicode = 20B9;
},
{
glyphname = acutecomb.case;
lastChange = "2023-12-05 09:52:54 +0000";
layers = (
{
anchors = (
{
name = _top;
position = "{112, 639}";
}
);
layerId = m002;
paths = (
{
closed = 1;
nodes = (
"269 790 LINE",
"186 841 LINE",
"61 707 LINE",
"86 683 LINE",
"266 778 LINE"
);
}
);
userData = {
com.hugojourdan.ColorFlow = {
"0" = 0;
"1" = 0;
"10" = 0;
"11" = 0;
"2" = 0;
"3" = 0;
"4" = 0;
"5" = 0;
"6" = 0;
"7" = 0;
"8" = 0;
"9" = 0;
};
};
width = 301;
}
);
script = latin;
category = Mark;
subCategory = Nonspacing;
},
{
glyphname = brevecomb.case;
lastChange = "2023-12-05 09:52:54 +0000";
layers = (
{
anchors = (
{
name = _top;
position = "{205, 639}";
}
);
layerId = m002;
paths = (
{
closed = 1;
nodes = (
"266 687 OFFCURVE",
"312 708 OFFCURVE",
"341 767 CURVE",
"293 818 LINE",
"283 818 LINE",
"257 771 OFFCURVE",
"224 756 OFFCURVE",
"184 756 CURVE SMOOTH",
"131 756 OFFCURVE",
"104 781 OFFCURVE",
"81 821 CURVE",
"50 805 LINE",
"87 720 OFFCURVE",
"138 687 OFFCURVE",
"215 687 CURVE SMOOTH"
);
}
);
width = 390;
}
);
script = latin;
category = Mark;
subCategory = Nonspacing;
},
{
glyphname = dieresiscomb;
lastChange = "2023-12-05 09:52:54 +0000";
layers = (
{
anchors = (
{
name = _top;
position = "{218, 494}";
}
);
layerId = m002;
paths = (
{
closed = 1;
nodes = (
"151 585 OFFCURVE",
"172 606 OFFCURVE",
"196 623 CURVE",
"197 633 LINE",
"137 695 LINE",
"111 680 OFFCURVE",
"89 660 OFFCURVE",
"71 639 CURVE",
"71 630 LINE",
"131 567 LINE"
);
},
{
closed = 1;
nodes = (
"314 584 OFFCURVE",
"335 606 OFFCURVE",
"359 623 CURVE",
"359 633 LINE",
"300 695 LINE",
"274 680 OFFCURVE",
"252 660 OFFCURVE",
"235 639 CURVE",
"235 630 LINE",
"294 567 LINE"
);
}
);
width = 459;
}
);
unicode = 0308;
},
{
glyphname = dotaccentcomb;
lastChange = "2023-12-05 09:52:54 +0000";
layers = (
{
anchors = (
{
name = _top;
position = "{118, 494}";
}
);
layerId = m002;
paths = (
{
closed = 1;
nodes = (
"134 587 OFFCURVE",
"158 608 OFFCURVE",
"183 629 CURVE",
"183 638 LINE",
"120 702 LINE",
"93 686 OFFCURVE",
"69 664 OFFCURVE",
"50 642 CURVE",
"50 633 LINE",
"113 566 LINE"
);
}
);
width = 233;
}
);
unicode = 0307;
},
{
glyphname = gravecomb;
lastChange = "2023-12-05 09:52:54 +0000";
layers = (
{
anchors = (
{
name = _top;
position = "{225, 494}";
}
);
layerId = m002;
paths = (
{
closed = 1;
nodes = (
"242 548 LINE",
"272 564 LINE",
"187 716 LINE",
"89 695 LINE",
"89 683 LINE"
);
}
);
userData = {
com.hugojourdan.ColorFlow = {
"0" = 0;
"1" = 0;
"10" = 0;
"11" = 0;
"2" = 0;
"3" = 0;
"4" = 0;
"5" = 0;
"6" = 0;
"7" = 0;
"8" = 0;
"9" = 0;
};
};
width = 410;
}
);
unicode = 0300;
},
{
glyphname = acutecomb;
lastChange = "2023-12-05 09:52:54 +0000";
layers = (
{
anchors = (
{
name = _top;
position = "{132, 494}";
}
);
layerId = m002;
paths = (
{
closed = 1;
nodes = (
"264 695 LINE",
"165 719 LINE",
"81 564 LINE",
"111 548 LINE",
"264 683 LINE"
);
}
);
userData = {
com.hugojourdan.ColorFlow = {
"0" = 0;
"1" = 0;
"10" = 0;
"11" = 0;
"2" = 0;
"3" = 0;
"4" = 0;
"5" = 0;
"6" = 0;
"7" = 0;
"8" = 0;
"9" = 0;
};
};
width = 301;
}
);
unicode = 0301;
},
{
glyphname = hungarumlautcomb;
lastChange = "2023-12-05 09:52:54 +0000";
layers = (
{
anchors = (
{
name = _top;
position = "{242, 494}";
}
);
layerId = m002;
paths = (
{
closed = 1;
nodes = (
"278 718 LINE",
"176 728 LINE",
"115 563 LINE",
"147 551 LINE",
"279 706 LINE"
);
},
{
closed = 1;
nodes = (
"435 703 LINE",
"335 723 LINE",
"256 565 LINE",
"287 551 LINE",
"435 691 LINE"
);
}
);
width = 511;
}
);
unicode = 030B;
},
